<svg width="21" height="19" viewBox="0 0 21 19" fill="none" xmlns="http://www.w3.org/2000/svg">
<path d="M10.5001 13.525C12.1938 13.525 13.5667 12.152 13.5667 10.4583C13.5667 8.76466 12.1938 7.39167 10.5001 7.39167C8.80641 7.39167 7.43341 8.76466 7.43341 10.4583C7.43341 12.152 8.80641 13.525 10.5001 13.525Z" fill="#4E7EA7"/>
<path d="M7.62508 0.875L5.87133 2.79167H2.83341C1.77925 2.79167 0.916748 3.65417 0.916748 4.70833V16.2083C0.916748 17.2625 1.77925 18.125 2.83341 18.125H18.1667C19.2209 18.125 20.0834 17.2625 20.0834 16.2083V4.70833C20.0834 3.65417 19.2209 2.79167 18.1667 2.79167H15.1288L13.3751 0.875H7.62508ZM10.5001 15.25C7.85508 15.25 5.70842 13.1033 5.70842 10.4583C5.70842 7.81333 7.85508 5.66667 10.5001 5.66667C13.1451 5.66667 15.2917 7.81333 15.2917 10.4583C15.2917 13.1033 13.1451 15.25 10.5001 15.25Z" fill="#4E7EA7"/>
</svg>
