<svg width="128" height="222" viewBox="0 0 128 222" fill="none" xmlns="http://www.w3.org/2000/svg">
<path d="M104.501 105.042C101.048 106.49 97.6919 102.994 96.6489 108.596C95.6059 114.199 92.8333 113.934 91.11 116.473C89.3868 119.013 88.6613 122.702 93.6625 124.822C98.6637 126.941 109.32 131.581 109.463 125.901C109.605 120.221 106.295 119.29 110.292 117.171C114.289 115.052 111.73 109.785 110.072 109.417C111.044 105.184 107.494 103.782 104.501 105.042Z" fill="#263238"/>
<path d="M75.2253 103.059L76.2683 103.479C76.4624 103.555 76.635 103.677 76.7715 103.835C76.908 103.992 77.0043 104.181 77.0522 104.383L77.5122 106.322C77.6037 106.699 77.6033 107.092 77.5109 107.469C77.4184 107.845 77.2367 108.194 76.9809 108.486L76.657 108.855C74.882 108.28 73.3855 106.348 73.3855 106.348L72.8997 105.844C72.7972 105.743 72.7159 105.622 72.6604 105.49C72.6049 105.357 72.5763 105.215 72.5763 105.071C72.5763 104.928 72.6049 104.785 72.6604 104.653C72.7159 104.52 72.7972 104.4 72.8997 104.299L73.8844 103.323C74.0609 103.159 74.28 103.047 74.517 103C74.7539 102.953 74.9993 102.974 75.2253 103.059Z" fill="#CE7A63"/>
<path d="M95.5347 128.718C93.1183 127.859 90.8185 126.993 88.4669 126.043C87.2943 125.558 86.1283 125.048 84.9427 124.499C84.3467 124.221 83.7572 123.93 83.1483 123.594C82.4903 123.242 81.8563 122.847 81.2501 122.411C81.0817 122.282 80.9197 122.159 80.7319 121.991L80.4533 121.752L80.1553 121.449L80.0128 121.294L79.9221 121.177L79.7407 120.938C79.6176 120.783 79.4881 120.615 79.3844 120.466L78.7949 119.588L78.2702 118.735C77.6223 117.604 77.0134 116.486 76.4368 115.368C75.2772 113.139 74.2213 110.942 73.107 108.693L78.0564 106.464C78.9763 108.629 80.0387 110.806 81.1594 112.874C81.7295 113.901 82.319 114.916 82.928 115.853C83.239 116.318 83.537 116.764 83.8479 117.145C83.9257 117.242 83.9904 117.307 84.0617 117.384L84.1653 117.501L84.2172 117.559L84.2949 117.617L84.4957 117.753C85.3801 118.259 86.3054 118.692 87.2619 119.045C88.3049 119.465 89.4192 119.827 90.5399 120.176C92.7684 120.874 95.1136 121.468 97.381 121.972L95.5347 128.718Z" fill="#45C2D6"/>
<path d="M95.3922 218.511C98.1843 218.511 98.6313 218.465 100.225 218.414C101.572 218.368 101.89 218.53 102.972 218.511C103.872 218.511 103.84 217.632 103.561 216.637C103.425 216.139 103.205 215.532 103.017 214.73H98.7738C98.1972 215.823 96.3704 216.669 94.8026 216.856C93.2349 217.044 94.2779 218.511 95.3922 218.511Z" fill="#45C2D6"/>
<path d="M68.6369 216.908C71.3254 217.47 72.2648 217.49 73.8195 217.755C75.1152 217.981 75.1152 218.226 76.4108 218.53C77.2789 218.73 77.6676 217.793 77.551 216.999C77.4356 216.298 77.375 215.589 77.3696 214.879L73.8973 213.632C73.1792 214.269 72.3341 214.748 71.4174 215.036C70.5008 215.325 69.5334 215.417 68.5786 215.306C67.0303 215.105 67.5616 216.682 68.6369 216.908Z" fill="#45C2D6"/>
<path d="M85.4351 144.698C85.4351 144.698 77.3956 162.933 75.3938 175.114C74.3508 185.924 73.8066 213.348 73.8066 213.348C73.6641 213.923 76.7283 214.976 77.3761 214.873C77.3761 214.873 84.1783 188.845 83.5175 175.605C95.6253 159.011 98.5989 145.687 98.5989 145.687L85.4351 144.698Z" fill="#263238"/>
<path opacity="0.2" d="M91.706 153.538C89.905 155.664 89.0499 163.049 88.6871 167.876C90.84 164.379 92.7763 160.754 94.4852 157.021C94.1613 155.179 93.2737 153.854 91.706 153.538Z" fill="black"/>
<path d="M89.3608 144.995C89.3608 144.995 88.862 167.424 90.8185 178.474C92.8721 190.072 99.2402 207.112 98.7737 214.73C99.4216 215.105 101.728 215.131 103.017 214.73C103.017 214.73 105.213 189.071 98.6053 178.034C100.037 166.985 103.846 152.678 100.465 145.842L89.3608 144.995Z" fill="#263238"/>
<path d="M98.4564 213.141C98.4428 213.665 98.393 214.187 98.3074 214.704C98.298 214.748 98.2978 214.792 98.3066 214.836C98.3155 214.879 98.3332 214.921 98.3587 214.957C98.3843 214.993 98.417 215.024 98.455 215.047C98.493 215.07 98.5354 215.086 98.5795 215.092C100.095 215.227 101.622 215.147 103.114 214.853C103.18 214.84 103.241 214.807 103.287 214.758C103.334 214.71 103.364 214.648 103.373 214.581L103.607 213.121C103.614 213.074 103.611 213.026 103.598 212.98C103.585 212.934 103.562 212.892 103.53 212.856C103.499 212.82 103.459 212.792 103.415 212.773C103.372 212.754 103.324 212.745 103.276 212.747L98.7932 212.831C98.7505 212.828 98.7076 212.834 98.6673 212.848C98.6269 212.863 98.5899 212.885 98.5584 212.914C98.527 212.943 98.5017 212.978 98.4841 213.017C98.4666 213.056 98.4572 213.098 98.4564 213.141Z" fill="#263238"/>
<path opacity="0.1" d="M98.4564 213.141C98.4428 213.665 98.393 214.187 98.3074 214.704C98.298 214.748 98.2978 214.792 98.3066 214.836C98.3155 214.879 98.3332 214.921 98.3587 214.957C98.3843 214.993 98.417 215.024 98.455 215.047C98.493 215.07 98.5354 215.086 98.5795 215.092C100.095 215.227 101.622 215.147 103.114 214.853C103.18 214.84 103.241 214.807 103.287 214.758C103.334 214.71 103.364 214.648 103.373 214.581L103.607 213.121C103.614 213.074 103.611 213.026 103.598 212.98C103.585 212.934 103.562 212.892 103.53 212.856C103.499 212.82 103.459 212.792 103.415 212.773C103.372 212.754 103.324 212.745 103.276 212.747L98.7932 212.831C98.7505 212.828 98.7076 212.834 98.6673 212.848C98.6269 212.863 98.5899 212.885 98.5584 212.914C98.527 212.943 98.5017 212.978 98.4841 213.017C98.4666 213.056 98.4572 213.098 98.4564 213.141Z" fill="white"/>
<path d="M73.5086 212.353C73.4114 212.753 73.243 213.464 73.094 213.98C73.0717 214.063 73.0822 214.15 73.1232 214.225C73.1643 214.3 73.2327 214.356 73.3143 214.381C74.6708 214.707 76.0542 214.91 77.4474 214.988C77.5157 214.993 77.5838 214.977 77.642 214.941C77.7002 214.905 77.7455 214.851 77.7713 214.788L78.3479 213.399C78.3659 213.354 78.3739 213.306 78.3713 213.258C78.3686 213.21 78.3554 213.163 78.3326 213.12C78.3097 213.078 78.2778 213.041 78.239 213.012C78.2002 212.983 78.1555 212.963 78.1082 212.953L73.8843 212.114C73.8029 212.098 73.7186 212.114 73.6487 212.158C73.5788 212.203 73.5287 212.272 73.5086 212.353Z" fill="#263238"/>
<path opacity="0.1" d="M73.5086 212.353C73.4114 212.753 73.243 213.464 73.094 213.98C73.0717 214.063 73.0822 214.15 73.1232 214.225C73.1643 214.3 73.2327 214.356 73.3143 214.381C74.6708 214.707 76.0542 214.91 77.4474 214.988C77.5157 214.993 77.5838 214.977 77.642 214.941C77.7002 214.905 77.7455 214.851 77.7713 214.788L78.3479 213.399C78.3659 213.354 78.3739 213.306 78.3713 213.258C78.3686 213.21 78.3554 213.163 78.3326 213.12C78.3097 213.078 78.2778 213.041 78.239 213.012C78.2002 212.983 78.1555 212.963 78.1082 212.953L73.8843 212.114C73.8029 212.098 73.7186 212.114 73.6487 212.158C73.5788 212.203 73.5287 212.272 73.5086 212.353Z" fill="white"/>
<path d="M88.4086 125.694C88.0329 127.128 87.4304 128.699 86.7048 132.156C85.93 136.294 85.4966 140.489 85.4092 144.698C87.3527 146.443 93.8957 146.145 100.439 145.842C100.439 141.596 102.201 137.681 106.956 128.983C107.223 128.531 107.385 128.026 107.43 127.503C107.475 126.981 107.401 126.455 107.214 125.965C107.028 125.474 106.733 125.032 106.352 124.671C105.97 124.31 105.513 124.039 105.012 123.878C104.442 123.684 103.84 123.497 103.211 123.323C101.026 122.659 98.7965 122.154 96.5388 121.81C95.8003 121.714 95.0294 121.636 94.2844 121.571C92.9781 121.475 91.6785 121.832 90.6071 122.584C89.5357 123.336 88.7587 124.435 88.4086 125.694Z" fill="#45C2D6"/>
<path opacity="0.2" d="M103.309 129.015C103.056 131.154 103.309 133.648 103.956 134.689C104.494 133.629 105.097 132.472 105.777 131.212L103.309 129.015Z" fill="black"/>
<path d="M100.186 133.048L95.9104 131.755C95.8678 131.743 95.8283 131.722 95.794 131.694C95.7597 131.666 95.7315 131.631 95.7109 131.592C95.6904 131.553 95.6779 131.51 95.6744 131.466C95.6708 131.421 95.6761 131.377 95.6901 131.335L96.3833 129.248C96.4129 129.164 96.4734 129.093 96.5527 129.051C96.6319 129.009 96.7241 128.999 96.8109 129.022L101.087 130.314C101.129 130.327 101.169 130.348 101.203 130.376C101.237 130.404 101.265 130.438 101.286 130.478C101.307 130.517 101.319 130.56 101.323 130.604C101.326 130.648 101.321 130.692 101.307 130.734L100.62 132.815C100.592 132.902 100.531 132.975 100.45 133.018C100.369 133.061 100.274 133.072 100.186 133.048Z" fill="white"/>
<path d="M99.2273 130.126L98.2814 129.829C98.2426 129.829 98.2361 129.745 98.2814 129.668L98.6378 128.776C98.6702 128.699 98.7284 128.647 98.7673 128.66L99.7067 128.951C99.7455 128.951 99.7585 129.035 99.7067 129.112L99.3439 130.004C99.3245 130.081 99.2662 130.133 99.2273 130.126Z" fill="#263238"/>
<path d="M104.501 115.724C103.432 117.733 101.825 121.494 102.894 123.239C102.894 123.239 100.115 123.239 95.4699 125.901C94.6212 123.833 96.2213 121.727 96.2213 121.727C98.8126 121.727 99.2661 119.956 99.3503 118.224L104.501 115.724Z" fill="#CE7A63"/>
<path opacity="0.2" d="M102.402 116.744L99.3504 118.25C99.3403 118.656 99.2904 119.061 99.2014 119.458C100.154 119.535 101.715 118.812 102.104 117.92C102.274 117.55 102.375 117.151 102.402 116.744Z" fill="black"/>
<path d="M107.597 113.081C106.036 116.04 105.44 117.32 103.062 118.25C99.4799 119.633 95.8197 117.21 96.3833 113.882C96.8886 110.884 99.3633 106.554 103.173 106.58C106.982 106.606 109.139 110.153 107.597 113.081Z" fill="#CE7A63"/>
<path d="M108.938 109.261C105.742 109.338 102.602 108.414 99.9593 106.619C102.661 105.424 107.5 105.521 108.938 109.261Z" fill="#263238"/>
<path d="M102.46 110.98C102.35 111.252 102.116 111.413 101.942 111.342C101.767 111.271 101.715 111 101.831 110.735C101.948 110.47 102.175 110.309 102.35 110.373C102.525 110.438 102.576 110.716 102.46 110.98Z" fill="#263238"/>
<path d="M99.454 109.791C99.3373 110.056 99.1041 110.218 98.9357 110.147C98.7672 110.076 98.7089 109.811 98.8255 109.54C98.9422 109.268 99.1689 109.113 99.3438 109.184C99.5188 109.255 99.5641 109.527 99.454 109.791Z" fill="#263238"/>
<path d="M99.4216 109.204L98.858 108.764C98.858 108.764 98.9681 109.423 99.4216 109.204Z" fill="#263238"/>
<path d="M102.421 110.418L101.864 109.979C101.864 109.979 101.974 110.612 102.421 110.418Z" fill="#263238"/>
<path d="M99.6095 110.735C99.0431 111.243 98.4139 111.678 97.7372 112.027C97.9186 112.512 98.6053 112.628 98.6053 112.628L99.6095 110.735Z" fill="#BA4D3C"/>
<path d="M99.0394 113.946C98.8841 113.884 98.7346 113.808 98.5924 113.72C98.5769 113.704 98.5683 113.682 98.5683 113.659C98.5683 113.636 98.5769 113.614 98.5924 113.598C98.6108 113.583 98.6336 113.575 98.6572 113.575C98.6807 113.575 98.7036 113.583 98.722 113.598C99.0377 113.805 99.3967 113.938 99.7716 113.986C100.147 114.034 100.528 113.996 100.886 113.875C100.896 113.87 100.908 113.867 100.92 113.867C100.931 113.866 100.943 113.868 100.954 113.872C100.965 113.876 100.975 113.883 100.983 113.891C100.992 113.9 100.998 113.91 101.002 113.921C101.007 113.931 101.01 113.943 101.01 113.954C101.01 113.966 101.008 113.977 101.003 113.988C100.998 113.999 100.991 114.008 100.982 114.015C100.972 114.023 100.962 114.028 100.95 114.03C100.326 114.247 99.6424 114.216 99.0394 113.946Z" fill="#263238"/>
<path d="M106.936 116.24C106.627 116.394 106.288 116.482 105.942 116.499C105.597 116.516 105.251 116.46 104.928 116.337C104.144 115.994 104.455 115.045 105.258 114.463C106.062 113.882 107.26 113.507 107.766 114.173C108.271 114.838 107.779 115.846 106.936 116.24Z" fill="#CE7A63"/>
<path d="M105.809 108.629C103.976 110.961 106.334 113.423 103.976 115.413C101.618 117.404 94.9063 125.642 103.82 123.484C105.628 121.481 110.486 114.877 109.968 112.738C109.45 110.599 109.087 107.498 105.809 108.629Z" fill="#263238"/>
<path d="M103.989 110.786C103.968 110.775 103.95 110.759 103.935 110.74C103.921 110.721 103.91 110.7 103.905 110.677C103.866 110.466 103.775 110.268 103.64 110.101C103.506 109.935 103.332 109.804 103.134 109.72C103.112 109.713 103.092 109.702 103.075 109.687C103.059 109.671 103.045 109.653 103.036 109.632C103.027 109.612 103.022 109.589 103.022 109.566C103.022 109.544 103.027 109.521 103.036 109.501C103.055 109.457 103.09 109.423 103.133 109.404C103.176 109.384 103.225 109.382 103.27 109.397C103.522 109.499 103.745 109.663 103.919 109.873C104.092 110.082 104.209 110.332 104.261 110.599C104.265 110.633 104.259 110.667 104.245 110.697C104.231 110.728 104.209 110.754 104.181 110.774C104.153 110.793 104.12 110.804 104.087 110.806C104.053 110.809 104.019 110.802 103.989 110.786Z" fill="#263238"/>
<path d="M99.0977 108.351C99.056 108.339 99.0194 108.314 98.9941 108.279C98.9816 108.26 98.9733 108.238 98.9698 108.215C98.9663 108.192 98.9676 108.168 98.9737 108.146C98.9798 108.123 98.9905 108.102 99.0052 108.084C99.0198 108.066 99.0381 108.051 99.0588 108.04C99.2932 107.879 99.5618 107.773 99.8438 107.731C100.126 107.69 100.414 107.714 100.685 107.801C100.706 107.81 100.725 107.822 100.741 107.839C100.758 107.855 100.77 107.874 100.778 107.896C100.786 107.917 100.789 107.94 100.788 107.963C100.786 107.985 100.78 108.007 100.769 108.028C100.748 108.07 100.712 108.104 100.668 108.122C100.624 108.139 100.574 108.14 100.529 108.124C100.313 108.056 100.084 108.037 99.859 108.071C99.6343 108.105 99.4204 108.189 99.2337 108.318C99.194 108.345 99.1455 108.357 99.0977 108.351Z" fill="#263238"/>
<path opacity="0.5" d="M126.501 205.93L118.817 210.033L102.654 179.902L100.769 176.386L114.853 168.865L112.378 164.245L107.999 166.584L88.1624 129.616L86.951 127.368L51.0032 60.3657L33.8877 59.054L32.2681 56.0299L33.1233 55.5711L28.6403 47.216L27.0661 48.0561L25.7705 45.6329L24.7728 46.1692L25.3882 45.8397L0 0L24.1509 46.4988L23.7687 46.7056L25.0708 49.1222L23.5031 49.9623L27.986 58.3173L28.8411 57.8585L30.4607 60.8826L22.0649 75.8158L79.054 182.028L86.342 178.138L74.6812 184.367L77.1559 188.993L91.2461 181.465L109.301 215.112L114.062 212.572L101.624 219.215L103.114 222L127.991 208.715L126.501 205.93Z" fill="white"/>
<path d="M25.7718 45.6207L23.7728 46.688L28.2579 55.0454L30.2569 53.978L25.7718 45.6207Z" fill="#263238"/>
<path opacity="0.2" d="M51.0032 60.3657L31.5879 58.8795L22.0649 75.8157L79.054 182.028L107.999 166.584L51.0032 60.3657Z" fill="#45C2D6"/>
<path opacity="0.6" d="M51.0032 60.3657L31.5879 58.8795L22.0649 75.8157L56.2311 139.49L85.1694 124.046L51.0032 60.3657Z" fill="#45C2D6"/>
<path d="M31.5879 58.8795L22.0649 75.8157L51.0032 60.3657L31.5879 58.8795Z" fill="#45C2D6"/>
<path opacity="0.3" d="M112.386 164.229L74.6904 184.356L77.1699 188.976L114.865 168.849L112.386 164.229Z" fill="#45C2D6"/>
<path opacity="0.2" d="M100.775 176.372L91.2545 181.455L109.308 215.096L118.829 210.012L100.775 176.372Z" fill="#45C2D6"/>
<path opacity="0.1" d="M80.2357 138.105L70.7147 143.189L88.7681 176.829L98.2891 171.746L80.2357 138.105Z" fill="#45C2D6"/>
<path opacity="0.4" d="M84.5717 124.056L55.6854 139.445L60.4383 148.321L89.3245 132.933L84.5717 124.056Z" fill="#45C2D6"/>
<path opacity="0.4" d="M86.3468 127.372L57.4605 142.76L58.6602 145.001L87.5464 129.612L86.3468 127.372Z" fill="#45C2D6"/>
<path opacity="0.2" d="M100.778 176.372L91.2573 181.455L93.1432 184.969L102.664 179.886L100.778 176.372Z" fill="#45C2D6"/>
<path opacity="0.3" d="M126.505 205.911L101.626 219.195L103.121 221.98L128 208.697L126.505 205.911Z" fill="#45C2D6"/>
<path d="M37.2351 84.4446L29.0511 88.8143L30.6437 91.7817L38.8277 87.412L37.2351 84.4446Z" fill="#45C2D6"/>
<path d="M45.5209 99.8971L37.3369 104.267L38.9294 107.234L47.1134 102.865L45.5209 99.8971Z" fill="#45C2D6"/>
<path d="M53.81 115.337L45.626 119.707L47.2186 122.675L55.4026 118.305L53.81 115.337Z" fill="#45C2D6"/>
<path d="M62.0984 130.775L53.9144 135.144L55.5069 138.112L63.6909 133.742L62.0984 130.775Z" fill="#45C2D6"/>
<path d="M70.3875 146.222L62.2035 150.591L63.796 153.559L71.98 149.189L70.3875 146.222Z" fill="#45C2D6"/>
<path d="M78.6732 161.674L70.4893 166.044L72.0818 169.011L80.2658 164.641L78.6732 161.674Z" fill="#45C2D6"/>
<path d="M30.6943 53.0849L27.2675 54.9146L31.7525 63.272L35.1794 61.4422L30.6943 53.0849Z" fill="#45C2D6"/>
<path d="M28.64 47.2131L23.4998 49.9577L27.9848 58.315L33.1251 55.5705L28.64 47.2131Z" fill="#45C2D6"/>
<path d="M0 0L24.1509 46.4988L25.3882 45.8397L0 0Z" fill="#45C2D6"/>
<path d="M93.9475 144.776L94.8351 144.084C94.9993 143.956 95.1923 143.868 95.3976 143.83C95.6028 143.792 95.8144 143.804 96.0141 143.865L97.9057 144.42C98.2794 144.531 98.6209 144.73 98.9016 145C99.1823 145.27 99.394 145.603 99.5188 145.971L99.6743 146.43C98.2815 147.677 95.8586 148 95.8586 148L95.1784 148.168C95.0397 148.206 94.8948 148.216 94.7522 148.198C94.6095 148.18 94.4718 148.134 94.3471 148.063C94.2224 147.991 94.1132 147.896 94.0257 147.782C93.9382 147.668 93.8742 147.538 93.8374 147.399L93.4876 146.055C93.4303 145.82 93.4433 145.574 93.5251 145.346C93.6068 145.119 93.7537 144.921 93.9475 144.776Z" fill="#CE7A63"/>
<path d="M106.71 125.016C107.092 125.597 107.357 126.056 107.668 126.579C107.979 127.103 108.239 127.607 108.511 128.13C109.057 129.179 109.544 130.257 109.968 131.361C110.421 132.514 110.774 133.703 111.024 134.915C111.155 135.555 111.246 136.202 111.296 136.853C111.296 137.196 111.335 137.538 111.296 137.887V138.178C111.291 138.373 111.271 138.567 111.238 138.76C111.179 139.085 111.085 139.403 110.959 139.71C110.594 140.511 110.075 141.233 109.431 141.835C108.961 142.302 108.459 142.734 107.928 143.128C106.972 143.821 105.977 144.457 104.948 145.034C102.978 146.132 100.949 147.122 98.871 148L97.0117 143.884C98.8602 142.965 100.657 141.947 102.395 140.834C103.219 140.306 104.011 139.73 104.766 139.109C105.09 138.841 105.393 138.549 105.673 138.236C105.919 137.984 106.075 137.687 106.016 137.745C105.985 137.801 105.963 137.863 105.952 137.926C105.947 137.984 105.947 138.042 105.952 138.101C105.952 138.101 105.952 138.023 105.952 137.991C105.952 137.803 105.913 137.609 105.887 137.416C105.821 137.001 105.731 136.591 105.615 136.188C105.354 135.301 105.02 134.436 104.617 133.603C104.199 132.73 103.734 131.881 103.224 131.057C102.965 130.637 102.693 130.224 102.421 129.823C102.149 129.422 101.838 128.99 101.598 128.686L106.71 125.016Z" fill="#45C2D6"/>
</svg>
