<svg width="14" height="16" viewBox="0 0 14 16" fill="none" xmlns="http://www.w3.org/2000/svg">
<path d="M12.25 1.875H11.5V1.125C11.5 0.7125 11.1625 0.375 10.75 0.375C10.3375 0.375 10 0.7125 10 1.125V1.875H4V1.125C4 0.7125 3.6625 0.375 3.25 0.375C2.8375 0.375 2.5 0.7125 2.5 1.125V1.875H1.75C0.9175 1.875 0.25 2.55 0.25 3.375V13.875C0.25 14.7 0.925 15.375 1.75 15.375H12.25C13.075 15.375 13.75 14.7 13.75 13.875V3.375C13.75 2.55 13.075 1.875 12.25 1.875ZM7 4.125C8.245 4.125 9.25 5.13 9.25 6.375C9.25 7.62 8.245 8.625 7 8.625C5.755 8.625 4.75 7.62 4.75 6.375C4.75 5.13 5.755 4.125 7 4.125ZM11.5 13.125H2.5V12.375C2.5 10.875 5.5 10.05 7 10.05C8.5 10.05 11.5 10.875 11.5 12.375V13.125Z" fill="white"/>
</svg>
