<svg width="8" height="8" viewBox="0 0 8 8" fill="none" xmlns="http://www.w3.org/2000/svg">
<path d="M6.66675 0.99998H6.33342V0.666646C6.33342 0.483313 6.18341 0.333313 6.00008 0.333313C5.81675 0.333313 5.66675 0.483313 5.66675 0.666646V0.99998H2.33341V0.666646C2.33341 0.483313 2.18341 0.333313 2.00008 0.333313C1.81675 0.333313 1.66675 0.483313 1.66675 0.666646V0.99998H1.33341C0.966748 0.99998 0.666748 1.29998 0.666748 1.66665V6.99998C0.666748 7.36665 0.966748 7.66665 1.33341 7.66665H6.66675C7.03341 7.66665 7.33342 7.36665 7.33342 6.99998V1.66665C7.33342 1.29998 7.03341 0.99998 6.66675 0.99998ZM6.33342 6.99998H1.66675C1.48341 6.99998 1.33341 6.84998 1.33341 6.66665V2.66665H6.66675V6.66665C6.66675 6.84998 6.51675 6.99998 6.33342 6.99998Z" fill="#4E7EA7"/>
</svg>
