<svg width="18" height="11" viewBox="0 0 18 11" fill="none" xmlns="http://www.w3.org/2000/svg">
<path d="M12 4.875C13.245 4.875 14.2425 3.87 14.2425 2.625C14.2425 1.38 13.245 0.375 12 0.375C10.755 0.375 9.75 1.38 9.75 2.625C9.75 3.87 10.755 4.875 12 4.875ZM6 4.875C7.245 4.875 8.2425 3.87 8.2425 2.625C8.2425 1.38 7.245 0.375 6 0.375C4.755 0.375 3.75 1.38 3.75 2.625C3.75 3.87 4.755 4.875 6 4.875ZM6 6.375C4.2525 6.375 0.75 7.2525 0.75 9V10.125C0.75 10.5375 1.0875 10.875 1.5 10.875H10.5C10.9125 10.875 11.25 10.5375 11.25 10.125V9C11.25 7.2525 7.7475 6.375 6 6.375ZM12 6.375C11.7825 6.375 11.535 6.39 11.2725 6.4125C11.2875 6.42 11.295 6.435 11.3025 6.4425C12.1575 7.065 12.75 7.8975 12.75 9V10.125C12.75 10.3875 12.6975 10.6425 12.615 10.875H16.5C16.9125 10.875 17.25 10.5375 17.25 10.125V9C17.25 7.2525 13.7475 6.375 12 6.375Z" fill="white"/>
</svg>
