<svg width="16" height="15" viewBox="0 0 16 15" fill="none" xmlns="http://www.w3.org/2000/svg">
<path d="M9.05305 0.751336C5.23555 0.646336 2.10805 3.71384 2.10805 7.50134H0.765555C0.428055 7.50134 0.263055 7.90634 0.503055 8.13884L2.59556 10.2388C2.74555 10.3888 2.97806 10.3888 3.12806 10.2388L5.22055 8.13884C5.45305 7.90634 5.28805 7.50134 4.95055 7.50134H3.60805C3.60805 4.57634 5.99305 2.21384 8.93305 2.25134C11.7231 2.28884 14.0706 4.63634 14.1081 7.42634C14.1456 10.3588 11.7831 12.7513 8.85805 12.7513C7.65055 12.7513 6.53305 12.3388 5.64806 11.6413C5.34805 11.4088 4.92805 11.4313 4.65805 11.7013C4.34305 12.0163 4.36555 12.5488 4.71805 12.8188C5.85805 13.7188 7.29055 14.2513 8.85805 14.2513C12.6456 14.2513 15.7131 11.1238 15.6081 7.30634C15.5106 3.78884 12.5706 0.848836 9.05305 0.751336ZM8.67055 4.50134C8.36305 4.50134 8.10805 4.75634 8.10805 5.06384V7.82384C8.10805 8.08634 8.25055 8.33384 8.47555 8.46884L10.8156 9.85634C11.0856 10.0138 11.4306 9.92384 11.5881 9.66134C11.7456 9.39134 11.6556 9.04634 11.3931 8.88884L9.23305 7.60634V5.05634C9.23305 4.75634 8.97805 4.50134 8.67055 4.50134Z" fill="white"/>
</svg>
