<svg width="190" height="140" viewBox="0 0 190 140" fill="none" xmlns="http://www.w3.org/2000/svg">
<path d="M190 123.03H0V123.124H190V123.03Z" fill="#EBEBEB"/>
<path d="M170.962 129.076H158.376V129.17H170.962V129.076Z" fill="#EBEBEB"/>
<path d="M125.864 130.098H122.561V130.192H125.864V130.098Z" fill="#EBEBEB"/>
<path d="M157.996 125.589H150.704V125.683H157.996V125.589Z" fill="#EBEBEB"/>
<path d="M36.347 126.22H19.9348V126.314H36.347V126.22Z" fill="#EBEBEB"/>
<path d="M42.1382 126.22H39.7328V126.314H42.1382V126.22Z" fill="#EBEBEB"/>
<path d="M85.557 127.806H49.9586V127.9H85.557V127.806Z" fill="#EBEBEB"/>
<path d="M90.06 106.27H16.6858C16.111 106.269 15.5601 106.043 15.154 105.64C14.7479 105.238 14.5198 104.693 14.5198 104.124V2.12691C14.5248 1.56174 14.7551 1.02136 15.1607 0.623123C15.5662 0.224888 16.1143 0.000968151 16.6858 0H90.06C90.6355 0 91.1874 0.226064 91.5943 0.62846C92.0012 1.03086 92.2298 1.57662 92.2298 2.14569V104.124C92.2298 104.694 92.0012 105.239 91.5943 105.642C91.1874 106.044 90.6355 106.27 90.06 106.27ZM16.6858 0.075156C16.1362 0.0761514 15.6094 0.292756 15.2212 0.677426C14.8329 1.0621 14.6148 1.5834 14.6148 2.12691V104.124C14.6148 104.668 14.8329 105.189 15.2212 105.574C15.6094 105.959 16.1362 106.175 16.6858 106.176H90.06C90.61 106.175 91.1371 105.959 91.526 105.574C91.9149 105.19 92.1338 104.668 92.1348 104.124V2.12691C92.1338 1.58305 91.9149 1.06176 91.526 0.677196C91.1371 0.292634 90.61 0.0761493 90.06 0.075156H16.6858Z" fill="#EBEBEB"/>
<path d="M172.258 106.27H98.8798C98.3047 106.269 97.7534 106.043 97.3467 105.641C96.94 105.238 96.711 104.693 96.71 104.124V2.12691C96.716 1.5614 96.9472 1.02102 97.3533 0.622888C97.7595 0.224756 98.3079 0.000957592 98.8798 0H172.258C172.829 0.00195574 173.376 0.226312 173.781 0.624441C174.185 1.02257 174.415 1.56239 174.42 2.12691V104.124C174.42 104.692 174.192 105.237 173.787 105.639C173.382 106.041 172.832 106.268 172.258 106.27ZM98.8798 0.075156C98.3299 0.0761493 97.8027 0.292634 97.4138 0.677196C97.0249 1.06176 96.806 1.58305 96.805 2.12691V104.124C96.806 104.668 97.0249 105.19 97.4138 105.574C97.8027 105.959 98.3299 106.175 98.8798 106.176H172.258C172.808 106.175 173.335 105.959 173.724 105.574C174.113 105.19 174.332 104.668 174.333 104.124V2.12691C174.332 1.58305 174.113 1.06176 173.724 0.677196C173.335 0.292634 172.808 0.0761493 172.258 0.075156H98.8798Z" fill="#EBEBEB"/>
<path d="M26.7482 39.3327L29.4424 121.531H31.8022L34.4964 39.3327H26.7482Z" fill="#F5F5F5"/>
<path d="M22.363 123.03H38.8816C38.8816 122.759 38.8277 122.492 38.7231 122.242C38.6184 121.992 38.465 121.765 38.2717 121.574C38.0783 121.383 37.8487 121.231 37.5961 121.127C37.3434 121.024 37.0726 120.971 36.7992 120.971H24.4416C24.1683 120.971 23.8977 121.024 23.6453 121.127C23.3928 121.231 23.1635 121.383 22.9704 121.574C22.7774 121.765 22.6243 121.992 22.5201 122.242C22.4159 122.492 22.3625 122.76 22.363 123.03Z" fill="#F0F0F0"/>
<path d="M22.002 68.1399H39.2426L37.259 35.7365H23.9856L22.002 68.1399Z" fill="#E0E0E0"/>
<path d="M25.346 68.1399H35.8986L34.6826 35.7365H26.562L25.346 68.1399Z" fill="#EBEBEB"/>
<path d="M28.3442 68.1399H32.9004L32.376 35.7365H28.8686L28.3442 68.1399Z" fill="#E0E0E0"/>
<path d="M141.485 79.9168H57.1254V123.03H141.485V79.9168Z" fill="#F5F5F5"/>
<path d="M141.485 78.1619H57.1254V79.9168H141.485V78.1619Z" fill="#FAFAFA"/>
<path d="M141.485 123.03H158.376V79.9168H141.485V123.03Z" fill="#EBEBEB"/>
<path d="M141.485 79.9168H158.376V78.1619H141.485V79.9168Z" fill="#F0F0F0"/>
<path d="M130.18 77.1586H119.654L117.758 62.7137H92.929L94.9582 78.1619H105.693H119.787H130.522L130.18 77.1586Z" fill="#F0F0F0"/>
<path d="M72.6636 13.6934H48.0054V48.5957H72.6636V13.6934Z" fill="#EBEBEB"/>
<path d="M71.1436 47.0963V15.2002L49.5254 15.2002V47.0963H71.1436Z" fill="#FAFAFA"/>
<path d="M68.5254 36.4017V35.7365H52.1436V36.4017H68.5254Z" fill="#F5F5F5"/>
<path d="M68.5254 38.5473V37.8822H52.1436V38.5473H68.5254Z" fill="#F5F5F5"/>
<path d="M68.5292 40.6931V40.0279H52.1474V40.6931H68.5292Z" fill="#F5F5F5"/>
<path d="M60.3364 31.9637C59.1668 31.9645 58.0232 31.6222 57.0504 30.9801C56.0775 30.3381 55.3191 29.4252 54.871 28.3568C54.4229 27.2885 54.3052 26.1127 54.533 24.9782C54.7607 23.8437 55.3235 22.8015 56.1503 21.9834C56.977 21.1653 58.0306 20.608 59.1777 20.3821C60.3247 20.1562 61.5138 20.2718 62.5945 20.7142C63.6751 21.1567 64.5988 21.9061 65.2486 22.8677C65.8985 23.8294 66.2454 24.96 66.2454 26.1166C66.2434 27.6661 65.6203 29.1516 64.5127 30.2476C63.4051 31.3436 61.9033 31.9607 60.3364 31.9637ZM60.3364 20.6453C59.242 20.6445 58.1719 20.9648 57.2615 21.5655C56.3511 22.1663 55.6414 23.0205 55.2221 24.0202C54.8027 25.0199 54.6926 26.1201 54.9056 27.1817C55.1187 28.2433 55.6454 29.2185 56.419 29.9841C57.1926 30.7497 58.1784 31.2711 59.2518 31.4825C60.3252 31.694 61.4378 31.5858 62.449 31.1718C63.4602 30.7578 64.3246 30.0565 64.9327 29.1567C65.5408 28.2569 65.8654 27.1989 65.8654 26.1166C65.8644 24.6665 65.2817 23.276 64.2451 22.2502C63.2086 21.2245 61.8028 20.6473 60.3364 20.6453Z" fill="#EBEBEB"/>
<path d="M49.8218 47.0925V15.1965H49.5254V47.0925H49.8218Z" fill="#E0E0E0"/>
<path d="M72.96 48.5994V13.6971H72.6636V48.5994H72.96Z" fill="#E0E0E0"/>
<path d="M89.0492 54.2061L163.301 54.2061V9.14271L89.0492 9.14271V54.2061Z" fill="#E6E6E6"/>
<path d="M83.3758 7.35397H166.733C166.803 7.35394 166.873 7.36793 166.938 7.39512C167.003 7.4223 167.062 7.46213 167.112 7.51223C167.161 7.56234 167.199 7.62171 167.225 7.68683C167.251 7.75194 167.263 7.82148 167.261 7.89133C167.261 7.95975 167.247 8.02749 167.221 8.09066C167.194 8.15382 167.155 8.21115 167.106 8.25936C167.057 8.30756 166.999 8.34568 166.934 8.37152C166.87 8.39736 166.802 8.4104 166.733 8.40991H83.3758C83.306 8.41141 83.2366 8.3991 83.1716 8.37372C83.1067 8.34833 83.0475 8.31037 82.9976 8.26206C82.9477 8.21376 82.908 8.15608 82.881 8.09242C82.8539 8.02876 82.84 7.96039 82.84 7.89133C82.8379 7.82085 82.8503 7.75068 82.8764 7.68506C82.9025 7.61944 82.9418 7.55972 82.9919 7.50951C83.0419 7.4593 83.1018 7.41963 83.1677 7.3929C83.2337 7.36617 83.3045 7.35293 83.3758 7.35397Z" fill="#E6E6E6"/>
<path d="M86.8034 54.2061L162.252 54.2061V9.14271L86.8034 9.14271V54.2061Z" fill="#F0F0F0"/>
<path d="M159.106 51.0946V12.2579L89.9498 12.2579V51.0946L159.106 51.0946Z" fill="#FAFAFA"/>
<path d="M143.515 51.0946L122.919 12.2579H112.317L132.909 51.0946H143.515Z" fill="white"/>
<path d="M130.633 51.0946L110.037 12.2579H105.906L126.498 51.0946H130.633Z" fill="white"/>
<path d="M90.3488 51.0946V12.2579H89.9498V51.0946H90.3488Z" fill="#E6E6E6"/>
<g opacity="0.4">
<path opacity="0.4" d="M159.068 60.1245H164.483V6.42581H159.068V60.1245Z" fill="#F0F0F0"/>
<path opacity="0.4" d="M156.963 60.1245H161.181V6.42581H156.963V60.1245Z" fill="#E6E6E6"/>
<path opacity="0.4" d="M153.657 60.1245H159.072V6.42581H153.657V60.1245Z" fill="#F0F0F0"/>
<path opacity="0.4" d="M151.544 60.1245H155.762V6.42581H151.544V60.1245Z" fill="#E6E6E6"/>
<path opacity="0.4" d="M148.238 60.1245H153.653V6.42581H148.238V60.1245Z" fill="#F0F0F0"/>
</g>
<g opacity="0.4">
<path opacity="0.4" d="M91.9676 60.1245H95.0874V6.42581H91.9676V60.1245Z" fill="#F0F0F0"/>
<path opacity="0.4" d="M90.7478 60.1245H93.1797V6.42581H90.7478V60.1245Z" fill="#E6E6E6"/>
<path opacity="0.4" d="M88.8478 60.1245H91.9676V6.42581H88.8478V60.1245Z" fill="#F0F0F0"/>
<path opacity="0.4" d="M87.628 60.1245H90.06V6.42581H87.628V60.1245Z" fill="#E6E6E6"/>
<path opacity="0.4" d="M85.7242 60.1245H88.844V6.42581H85.7242V60.1245Z" fill="#F0F0F0"/>
</g>
<path d="M96.9 140C137.591 140 170.578 138.096 170.578 135.746C170.578 133.397 137.591 131.492 96.9 131.492C56.2087 131.492 23.2218 133.397 23.2218 135.746C23.2218 138.096 56.2087 140 96.9 140Z" fill="#F5F5F5"/>
<path d="M92.769 118.859C94.5523 109.552 86.4148 100.212 74.5935 97.9971C62.7721 95.7819 51.7433 101.53 49.96 110.837C48.1767 120.143 56.3141 129.483 68.1355 131.698C79.9569 133.914 90.9857 128.165 92.769 118.859Z" fill="#45C2D6"/>
<path d="M67.64 135.656C68.9472 135.81 71.6946 135.799 70.9118 135.115C70.129 134.431 68.6964 135.059 68.742 132.62C68.7876 130.181 69.0156 128.046 69.0156 128.046L68.5596 127.99L68.1036 127.938C68.1036 127.938 67.8148 130.064 67.2828 132.447C66.7508 134.829 65.5044 133.886 64.5848 134.371C63.6652 134.856 66.3328 135.498 67.64 135.656Z" fill="#45C2D6"/>
<path d="M99.731 120.166C99.9818 118.87 99.997 116.093 98.952 116.784C97.907 117.476 98.8418 119.017 95.152 118.573C91.4622 118.13 88.2436 117.559 88.2436 117.559L88.16 117.994L88.0726 118.445C88.0726 118.445 91.2874 119.08 94.8784 120.005C98.4694 120.929 97.033 122.03 97.7512 123.041C98.4694 124.052 99.484 121.463 99.731 120.166Z" fill="#45C2D6"/>
<path d="M43.0046 109.536C42.7994 110.603 42.8754 112.918 43.89 112.373C44.9046 111.828 43.9242 110.531 47.6026 111.012C51.281 111.493 54.5034 112.076 54.5034 112.076L54.5756 111.7L54.6478 111.324C54.6478 111.324 51.433 110.697 47.8306 109.821C44.2282 108.946 45.6266 108.074 44.878 107.213C44.1294 106.353 43.2098 108.468 43.0046 109.536Z" fill="#45C2D6"/>
<path d="M54.0322 94.3204C52.8314 94.7826 50.6122 96.1166 51.8472 96.4736C53.0822 96.8306 53.694 95.4665 55.8106 98.1083C57.9272 100.75 59.6106 103.144 59.6106 103.144L60.04 102.963L60.458 102.802C60.458 102.802 58.8126 100.382 57.1444 97.5709C55.4762 94.7601 57.3192 95.1734 57.6422 94.2114C57.9652 93.2494 55.2292 93.8469 54.0322 94.3204Z" fill="#45C2D6"/>
<path d="M86.1726 134.153C87.3582 133.567 89.5584 131.97 88.3462 131.669C87.134 131.368 86.5146 132.887 84.4702 130.166C82.4258 127.445 80.7804 124.969 80.7804 124.969L80.3662 125.176L79.9558 125.378C79.9558 125.378 81.5404 127.889 83.1478 130.82C84.7552 133.751 82.9464 133.431 82.6158 134.495C82.2852 135.558 84.9908 134.732 86.1726 134.153Z" fill="#45C2D6"/>
<path d="M92.5946 104.132C91.8346 103.256 89.9346 101.607 89.8852 102.467C89.8358 103.328 91.3558 103.831 89.2126 105.184C87.0694 106.537 85.0706 107.608 85.0706 107.608L85.3366 107.912L85.6026 108.217C85.6026 108.217 87.6394 107.187 90.0638 106.161C92.4882 105.135 92.5262 106.417 93.575 106.699C94.6238 106.98 93.3584 105.008 92.5946 104.132Z" fill="#45C2D6"/>
<path d="M48.2942 126.893C49.1606 127.847 51.3342 129.606 51.4976 128.599C51.661 127.592 49.8028 127.133 52.573 125.367C55.3432 123.601 57.9158 122.173 57.9158 122.173L57.6118 121.839L57.3116 121.508C57.3116 121.508 54.701 122.891 51.6116 124.304C48.5222 125.717 48.5716 124.217 47.3176 123.984C46.0636 123.751 47.4316 125.938 48.2942 126.893Z" fill="#45C2D6"/>
<path d="M62.244 93.7605C61.0242 93.8995 58.6074 94.5496 59.584 95.1058C60.5606 95.6619 61.56 94.6511 62.5518 97.2966C63.5436 99.942 64.2542 102.298 64.2542 102.298L64.6798 102.249L65.1054 102.2C65.1054 102.2 64.4518 99.8368 63.9122 97.1387C63.3726 94.4406 64.8698 95.1734 65.474 94.4331C66.0782 93.6928 63.46 93.6214 62.244 93.7605Z" fill="#45C2D6"/>
<path d="M76.7334 135.727C78.2268 135.69 81.244 135.231 80.1534 134.6C79.0628 133.969 77.6986 134.897 76.893 132.173C76.0874 129.448 75.5896 127.036 75.5896 127.036H75.069H74.5484C74.5484 127.036 74.9778 129.452 75.2286 132.188C75.4794 134.923 73.777 134.066 72.9486 134.765C72.1202 135.464 75.24 135.769 76.7334 135.727Z" fill="#45C2D6"/>
<path d="M98.059 111.163C97.679 109.957 96.4858 107.521 95.931 108.408C95.3762 109.295 96.824 110.389 93.6206 111.039C90.4172 111.689 87.5406 112.095 87.5406 112.095L87.6698 112.516L87.799 112.933C87.799 112.933 90.6984 112.583 94.0386 112.384C97.3788 112.185 96.6986 113.553 97.717 114.233C98.7354 114.913 98.42 112.358 98.059 111.163Z" fill="#45C2D6"/>
<path d="M45.1288 118.19C45.4442 119.156 46.5462 121.087 47.1276 120.343C47.709 119.599 46.322 118.769 49.5254 118.115C52.7288 117.461 55.6054 117.021 55.6054 117.021L55.4952 116.687L55.385 116.349C55.385 116.349 52.497 116.743 49.1758 117.04C45.8546 117.337 46.5956 116.191 45.6 115.676C44.6044 115.161 44.8096 117.243 45.1288 118.19Z" fill="#45C2D6"/>
<path d="M48.8832 102.535C48.0928 103.523 46.8616 105.785 48.07 105.541C49.2784 105.297 49.1454 103.752 52.1778 105.165C55.2102 106.578 57.7828 107.935 57.7828 107.935L58.0564 107.589L58.33 107.243C58.33 107.243 55.7954 105.823 53.0594 104.061C50.3234 102.298 52.0638 101.806 51.8814 100.773C51.699 99.7391 49.6698 101.547 48.8832 102.535Z" fill="#45C2D6"/>
<path d="M93.86 127.167C94.6504 126.179 95.8854 123.917 94.6732 124.161C93.461 124.405 93.5978 125.95 90.5654 124.537C87.533 123.124 84.9642 121.767 84.9642 121.767L84.6868 122.113L84.4132 122.455C84.4132 122.455 86.9478 123.875 89.6876 125.641C92.4274 127.408 90.6794 127.896 90.8656 128.93C91.0518 129.963 93.0658 128.14 93.86 127.167Z" fill="#45C2D6"/>
<path d="M85.12 97.9466C83.866 97.1425 81.016 95.7596 81.3732 96.7817C81.7304 97.8038 83.6304 97.9579 81.9736 100.164C80.3168 102.37 78.6752 104.211 78.6752 104.211L79.1122 104.489L79.5492 104.771C79.5492 104.771 81.2478 102.971 83.372 101.062C85.4962 99.1529 86.1574 100.648 87.4304 100.686C88.7034 100.724 86.3778 98.7546 85.12 97.9466Z" fill="#45C2D6"/>
<path d="M56.7872 132.488C57.9272 133.082 60.5264 133.991 60.2338 133.01C59.9412 132.03 58.1742 132.218 59.8082 129.704C61.4422 127.19 63.0458 125.048 63.0458 125.048L62.6658 124.841L62.2858 124.634C62.2858 124.634 60.629 126.746 58.5732 129.042C56.5174 131.338 55.955 129.944 54.7732 130.14C53.5914 130.335 55.651 131.898 56.7872 132.488Z" fill="#45C2D6"/>
<path d="M62.0312 113.136C61.956 113.136 61.8814 113.123 61.8108 113.098C61.7029 113.062 61.6061 112.999 61.5296 112.916C61.4531 112.832 61.3995 112.731 61.3738 112.621C60.7696 109.99 60.5378 107.848 60.6898 106.21C60.693 106.12 60.7148 106.031 60.7539 105.949C60.793 105.867 60.8486 105.794 60.9172 105.734C60.9858 105.675 61.066 105.629 61.153 105.601C61.2399 105.573 61.3318 105.563 61.4229 105.571C61.514 105.579 61.6024 105.606 61.6828 105.649C61.7632 105.692 61.8339 105.751 61.8905 105.822C61.9471 105.893 61.9884 105.975 62.0119 106.062C62.0355 106.149 62.0407 106.241 62.0274 106.33C61.9372 107.996 62.083 109.665 62.4606 111.291C64.4062 109.817 66.12 108.81 67.5678 108.284C67.6519 108.248 67.7427 108.229 67.8344 108.229C67.9261 108.229 68.0169 108.247 68.1012 108.283C68.1855 108.319 68.2614 108.372 68.3244 108.438C68.3874 108.503 68.4361 108.581 68.4676 108.667C68.499 108.752 68.5124 108.843 68.5071 108.933C68.5017 109.024 68.4777 109.112 68.4365 109.193C68.3953 109.274 68.3378 109.346 68.2675 109.404C68.1971 109.463 68.1155 109.506 68.0276 109.532C66.5076 110.077 64.638 111.238 62.453 112.985C62.3339 113.082 62.185 113.135 62.0312 113.136Z" fill="white"/>
<path d="M66.3974 126.93C66.2711 126.93 66.1474 126.895 66.0402 126.829C64.4722 125.79 63.0369 124.567 61.7652 123.188C61.1017 124.089 60.6227 125.111 60.3554 126.194C60.3186 126.363 60.2166 126.511 60.0712 126.607C59.9257 126.703 59.7482 126.739 59.5762 126.708C59.4043 126.677 59.2514 126.58 59.15 126.44C59.0486 126.299 59.0066 126.124 59.033 125.953C59.2572 124.762 59.9678 123.349 61.1458 121.748C61.2042 121.669 61.2799 121.602 61.3673 121.555C61.4547 121.508 61.5517 121.48 61.6512 121.474C61.7502 121.47 61.8491 121.487 61.9409 121.524C62.0327 121.561 62.1154 121.617 62.1832 121.688C63.5233 123.216 65.0558 124.567 66.7432 125.709C66.8669 125.787 66.9613 125.904 67.0119 126.04C67.0625 126.176 67.0666 126.325 67.0235 126.464C66.9804 126.603 66.8926 126.724 66.7733 126.809C66.6541 126.894 66.51 126.938 66.3632 126.934L66.3974 126.93Z" fill="white"/>
<path d="M75.278 118.934C75.5022 115.826 78.5422 110.291 82.2092 112.546C84.7248 114.086 81.5442 116.303 81.0236 119.644C80.6436 122.188 82.7032 124.8 79.61 126.059C76.5168 127.317 74.9892 122.962 75.278 118.934Z" fill="white"/>
<path opacity="0.1" d="M86.1536 112.663C87.6115 109.415 85.4487 105.314 81.3228 103.503C77.1969 101.692 72.6703 102.856 71.2124 106.103C69.7544 109.35 71.9172 113.451 76.0431 115.263C80.169 117.074 84.6956 115.91 86.1536 112.663Z" fill="white"/>
<path opacity="0.1" d="M62.6559 118.029C66.0204 116.736 67.9041 113.541 66.8632 110.893C65.8224 108.244 62.2511 107.146 58.8866 108.439C55.5221 109.732 53.6384 112.927 54.6792 115.576C55.7201 118.224 59.2913 119.322 62.6559 118.029Z" fill="white"/>
<path opacity="0.1" d="M71.82 127.904C70.832 129.407 68.4646 129.655 66.5342 128.422C64.6038 127.19 63.8476 124.965 64.8356 123.447C65.8236 121.929 68.1948 121.696 70.1214 122.925C72.048 124.153 72.808 126.386 71.82 127.904Z" fill="white"/>
<path opacity="0.1" d="M84.856 127.064C86.8622 125.96 87.7678 123.784 86.8788 122.205C85.9898 120.625 83.6428 120.24 81.6367 121.344C79.6305 122.449 78.7249 124.624 79.6139 126.204C80.5029 127.783 82.8499 128.168 84.856 127.064Z" fill="white"/>
<path d="M109.82 13.1522C112.389 11.9009 116.614 13.3777 118.089 17.2858C119.563 21.1939 116.979 23.6402 117.868 26.4586C118.758 29.2769 119.312 30.8927 118.818 35.2781C118.324 39.6634 115.018 41.7603 112.499 38.0438C109.98 34.3274 104.211 34.6919 104.47 31.6255C104.728 28.5592 106.183 22.1409 105.454 19.6006C104.724 17.0603 107.251 13.3702 109.82 13.1522Z" fill="#44255B"/>
<path d="M77.3718 98.8335L73.815 98.127L76.0912 90.1154L79.6442 90.8181L77.3718 98.8335Z" fill="#FFC3BD"/>
<path d="M74.0354 95.6544L78.0482 96.3496C78.1164 96.3598 78.1781 96.3955 78.2205 96.4494C78.2629 96.5032 78.2828 96.571 78.2762 96.6389L78.0026 99.8255C77.9915 99.9071 77.964 99.9856 77.9215 100.056C77.8791 100.127 77.8227 100.189 77.7557 100.238C77.6886 100.286 77.6124 100.321 77.5314 100.34C77.4504 100.359 77.3664 100.362 77.2844 100.348C75.8936 100.081 75.2362 99.8857 73.4844 99.5963C72.4014 99.4084 69.2588 98.9763 67.7578 98.717C66.2568 98.4577 66.5228 96.9922 67.1764 96.9696C70.1138 96.8644 72.276 96.3947 73.4008 95.7822C73.592 95.6708 73.8154 95.6259 74.0354 95.6544Z" fill="#44255B"/>
<g opacity="0.2">
<path opacity="0.2" d="M76.0912 90.1154L74.917 94.249L78.4738 94.9517L79.648 90.8219L76.0912 90.1154Z" fill="black"/>
</g>
<path d="M102.931 54.2699C102.931 54.2699 78.3484 57.9037 77.6758 68.775C76.9766 80.0859 74.4192 91.9304 74.4192 91.9304L80.0318 94.0047C80.0318 94.0047 85.4544 80.5518 86.8186 69.4664C98.572 66.276 114.384 66.9712 113.723 53.9505L102.931 54.2699Z" fill="#45C2D6"/>
<path opacity="0.2" d="M102.931 54.2699C102.931 54.2699 78.3484 57.9037 77.6758 68.775C76.9766 80.0859 74.4192 91.9304 74.4192 91.9304L80.0318 94.0047C80.0318 94.0047 85.4544 80.5518 86.8186 69.4664C98.572 66.276 114.384 66.9712 113.723 53.9505L102.931 54.2699Z" fill="white"/>
<path d="M80.351 94.4745L74.0506 92.6632L74.2026 90.8294L81.3162 92.4039L80.351 94.4745Z" fill="#44255B"/>
<path d="M72.5534 96.0339C72.2448 96.0078 71.9555 95.8747 71.7364 95.6582C71.6914 95.5965 71.6626 95.5247 71.6526 95.4492C71.6427 95.3738 71.6519 95.2971 71.6794 95.226C71.6937 95.1806 71.7188 95.1392 71.7525 95.1053C71.7862 95.0713 71.8275 95.0457 71.8732 95.0306C72.3672 94.8728 73.6212 95.831 73.7732 95.9438C73.7867 95.9541 73.7962 95.9686 73.8004 95.9849C73.8045 96.0013 73.803 96.0186 73.796 96.0339C73.7894 96.0509 73.778 96.0656 73.7632 96.0762C73.7483 96.0869 73.7307 96.0931 73.7124 96.0941C73.325 96.1078 72.9372 96.0877 72.5534 96.0339ZM72.086 95.1997C72.0324 95.1862 71.9762 95.1862 71.9226 95.1997C71.9035 95.2049 71.8861 95.2149 71.8721 95.2287C71.8581 95.2426 71.848 95.2598 71.8428 95.2786C71.8248 95.325 71.8188 95.3751 71.8254 95.4243C71.8321 95.4736 71.8511 95.5204 71.8808 95.5605C72.0518 95.7897 72.6408 95.9362 73.454 95.9362C73.0449 95.6138 72.5819 95.3645 72.086 95.1997Z" fill="#45C2D6"/>
<path d="M73.6896 96.1016C73.6784 96.1048 73.6666 96.1048 73.6554 96.1016C73.2754 95.8386 72.6104 94.9367 72.77 94.5534C72.8042 94.4632 72.903 94.358 73.15 94.3768C73.234 94.381 73.3162 94.403 73.3909 94.4412C73.4656 94.4794 73.5312 94.5331 73.5832 94.5985C73.9442 95.0419 73.8074 96.0001 73.7998 96.0377C73.7977 96.0526 73.7921 96.0667 73.7835 96.0791C73.775 96.0915 73.7636 96.1018 73.7504 96.1091C73.7299 96.114 73.7083 96.1113 73.6896 96.1016ZM73.169 94.5384H73.1196C72.96 94.5384 72.9372 94.5872 72.9296 94.606C72.8346 94.8352 73.2678 95.5304 73.6402 95.8611C73.6999 95.4639 73.6293 95.0583 73.4388 94.7037C73.3733 94.6168 73.2769 94.5577 73.169 94.5384Z" fill="#45C2D6"/>
<path d="M124.898 132.214H121.273L120.361 123.913H123.986L124.898 132.214Z" fill="#FFC3BD"/>
<path d="M120.958 131.797H125.02C125.09 131.795 125.158 131.82 125.211 131.866C125.264 131.912 125.297 131.976 125.305 132.045L125.715 135.228C125.722 135.309 125.712 135.39 125.685 135.468C125.659 135.545 125.616 135.615 125.56 135.675C125.505 135.735 125.437 135.783 125.362 135.816C125.286 135.849 125.205 135.866 125.123 135.866C123.701 135.844 123.021 135.761 121.231 135.761C120.129 135.761 118.267 135.874 116.744 135.874C115.22 135.874 115.167 134.371 115.805 134.251C118.655 133.646 119.369 132.815 120.338 132.018C120.512 131.875 120.731 131.796 120.958 131.797Z" fill="#44255B"/>
<g opacity="0.2">
<path opacity="0.2" d="M120.365 123.917L120.832 128.193H124.458L123.99 123.917H120.365Z" fill="black"/>
</g>
<path d="M117.671 53.834C121.554 59.3843 118.86 79.7627 120.11 90.6603C123.967 100.6 124.754 127.37 124.754 127.37H120.194C120.194 127.37 114.996 102.64 111.72 90.6002C107.73 78.703 106.126 54.176 106.126 54.176C106.126 54.176 112.362 53.9392 117.671 53.834Z" fill="#45C2D6"/>
<path opacity="0.3" d="M117.671 53.834C121.554 59.3843 118.86 79.7627 120.11 90.6603C123.967 100.6 124.754 127.37 124.754 127.37H120.194C120.194 127.37 114.996 102.64 111.72 90.6002C107.73 78.703 106.126 54.176 106.126 54.176C106.126 54.176 112.362 53.9392 117.671 53.834Z" fill="white"/>
<path d="M125.092 127.539H119.343L119.02 125.724L125.472 125.502L125.092 127.539Z" fill="#44255B"/>
<path d="M120.494 131.898C120.174 131.786 119.892 131.587 119.681 131.323C119.637 131.26 119.61 131.186 119.601 131.11C119.593 131.033 119.603 130.955 119.632 130.884C119.646 130.843 119.673 130.808 119.708 130.783C119.743 130.758 119.786 130.745 119.829 130.745C120.331 130.715 121.581 131.988 121.729 132.135C121.743 132.147 121.752 132.163 121.757 132.18C121.762 132.197 121.761 132.216 121.756 132.233C121.748 132.248 121.735 132.26 121.719 132.267C121.703 132.274 121.685 132.275 121.668 132.27C121.268 132.177 120.875 132.053 120.494 131.898ZM120.042 130.955C119.991 130.927 119.933 130.913 119.875 130.914C119.857 130.913 119.839 130.919 119.824 130.93C119.81 130.941 119.799 130.956 119.795 130.974C119.777 131.02 119.77 131.071 119.775 131.12C119.78 131.17 119.798 131.218 119.825 131.259C119.993 131.53 120.585 131.816 121.406 132.037C121.004 131.616 120.545 131.252 120.042 130.955Z" fill="#45C2D6"/>
<path d="M121.642 132.274C121.628 132.27 121.616 132.262 121.608 132.251C121.228 131.876 120.574 130.831 120.741 130.497C120.783 130.414 120.882 130.335 121.121 130.418C121.301 130.474 121.455 130.593 121.554 130.752C121.912 131.282 121.756 132.191 121.748 132.229C121.746 132.242 121.74 132.254 121.73 132.264C121.721 132.273 121.708 132.279 121.695 132.282C121.677 132.285 121.658 132.282 121.642 132.274ZM121.148 130.594L121.098 130.575C120.939 130.523 120.912 130.575 120.905 130.575C120.802 130.778 121.224 131.575 121.596 132C121.66 131.592 121.596 131.175 121.414 130.805C121.35 130.706 121.257 130.629 121.148 130.583V130.594Z" fill="#45C2D6"/>
<path d="M118.666 32.828C120.186 34.5641 121.6 36.3227 122.991 38.1378C124.382 39.9528 125.738 41.7941 127.004 43.7744C127.159 44.0149 127.311 44.278 127.467 44.526C127.623 44.774 127.771 45.037 127.916 45.3076L128.14 45.7059L128.193 45.8074C128.227 45.8675 128.269 45.9615 128.303 46.0404C128.373 46.2023 128.425 46.3711 128.459 46.5439C128.568 47.1032 128.521 47.6815 128.322 48.2161C128.05 48.9131 127.655 49.5568 127.156 50.1176C126.748 50.5955 126.306 51.0438 125.833 51.4591C124.06 53.0048 122.116 54.3474 120.038 55.4611L119.005 53.958C120.681 52.5522 122.268 51.0463 123.758 49.4487C124.092 49.0703 124.405 48.6752 124.697 48.265C124.928 47.9603 125.104 47.6183 125.218 47.2541C125.24 47.1489 125.218 47.1301 125.218 47.2541C125.218 47.2842 125.218 47.3218 125.244 47.3556C125.249 47.3711 125.256 47.3861 125.263 47.4007L125.21 47.318L125.02 46.9723C124.887 46.7544 124.743 46.5326 124.587 46.3109C124.431 46.0892 124.29 45.8675 124.131 45.6458C122.873 43.8721 121.494 42.1172 120.103 40.3849C118.712 38.6526 117.272 36.909 115.854 35.1992L118.666 32.828Z" fill="#FFC3BD"/>
<path d="M102.699 36.0071C102.482 36.0634 102.361 36.0897 102.205 36.1236L101.764 36.21C101.471 36.2588 101.186 36.3039 100.901 36.3377C100.331 36.4167 99.7614 36.4655 99.2066 36.5068C98.0666 36.5782 96.9684 36.567 95.8588 36.5332C94.7492 36.4993 93.6472 36.4016 92.5528 36.2626C92.0056 36.1987 91.4622 36.1123 90.9188 36.0296L89.3038 35.7327H89.2126C88.9588 35.6816 88.7218 35.569 88.5229 35.4051C88.3239 35.2411 88.1692 35.0309 88.0726 34.7933C87.7836 34.0665 87.6856 33.2792 87.7876 32.5048C87.8608 31.9036 87.988 31.31 88.1676 30.7311C88.4948 29.6836 88.9052 28.6634 89.395 27.6798C89.8662 26.7216 90.3792 25.8009 90.915 24.9028C91.4508 24.0047 92.0322 23.1366 92.6706 22.2724C92.8066 22.0937 93.0042 21.9706 93.2258 21.9265C93.4475 21.8823 93.6778 21.92 93.8732 22.0326C94.0686 22.1452 94.2154 22.3248 94.2858 22.5373C94.3562 22.7498 94.3453 22.9804 94.2552 23.1855C93.8448 24.0874 93.423 25.0155 93.0468 25.94C92.6706 26.8644 92.2868 27.7888 91.9676 28.7132C91.6438 29.608 91.381 30.5231 91.181 31.4526C91.0928 31.8619 91.0419 32.2782 91.029 32.6965C91.0059 32.941 91.0437 33.1874 91.1392 33.4142L89.8928 32.4597L91.4128 32.6363C91.922 32.6739 92.4274 32.7415 92.9328 32.7716C93.4382 32.8017 93.9474 32.843 94.4528 32.8543C94.9582 32.8656 95.4674 32.8956 95.9728 32.9031C96.9836 32.9031 97.9868 32.8768 98.9786 32.8092C99.4726 32.7754 99.9628 32.7303 100.445 32.6664C100.689 32.6401 100.92 32.5988 101.156 32.5649L101.498 32.5086L101.775 32.456L101.905 32.4297C102.375 32.3426 102.861 32.439 103.261 32.6986C103.661 32.9583 103.943 33.361 104.05 33.8223C104.156 34.2836 104.077 34.7676 103.83 35.1729C103.583 35.5781 103.187 35.873 102.725 35.9958L102.699 36.0071Z" fill="#FFC3BD"/>
<path d="M94.4566 19.0482L94.2286 19.1685C93.6163 19.4932 93.1447 20.0276 92.9024 20.6716L92.112 22.7722C92.112 22.7722 90.8314 24.745 90.0372 25.474C90.6224 26.2256 92.2868 27.0636 92.9746 26.9095C93.3723 26.0949 93.6855 25.2425 93.9094 24.3655C94.6381 23.9802 95.2928 23.4714 95.8436 22.8624L96.6834 22.0545C96.9365 21.8139 97.092 21.4901 97.1207 21.1442C97.1494 20.7982 97.0493 20.4537 96.8392 20.1756L96.2958 19.424C96.0864 19.1529 95.7851 18.9656 95.4472 18.8965C95.1093 18.8275 94.7576 18.8814 94.4566 19.0482Z" fill="#45C2D6"/>
<path opacity="0.6" d="M94.4566 19.0482L94.2286 19.1685C93.6163 19.4932 93.1447 20.0276 92.9024 20.6716L92.112 22.7722C92.112 22.7722 90.8314 24.745 90.0372 25.474C90.6224 26.2256 92.2868 27.0636 92.9746 26.9095C93.3723 26.0949 93.6855 25.2425 93.9094 24.3655C94.6381 23.9802 95.2928 23.4714 95.8436 22.8624L96.6834 22.0545C96.9365 21.8139 97.092 21.4901 97.1207 21.1442C97.1494 20.7982 97.0493 20.4537 96.8392 20.1756L96.2958 19.424C96.0864 19.1529 95.7851 18.9656 95.4472 18.8965C95.1093 18.8275 94.7576 18.8814 94.4566 19.0482Z" fill="white"/>
<path d="M104.063 31.9036C102.543 32.114 93.8714 32.7153 93.8714 32.7153L95.0114 40.8772C95.0114 40.8772 102.053 40.2384 103.371 38.7465C104.732 37.2021 106.29 31.603 104.063 31.9036Z" fill="#45C2D6"/>
<path opacity="0.2" d="M100.799 34.5115C100.16 35.4209 99.4992 38.2204 99.5258 40.2083C100.176 40.073 100.822 39.9189 101.395 39.7386L100.799 34.5115Z" fill="black"/>
<path d="M117.124 31.7044C117.503 31.7626 117.866 31.8966 118.191 32.0983C118.516 32.2999 118.796 32.565 119.014 32.8773C119.232 33.1896 119.384 33.5426 119.459 33.9146C119.534 34.2867 119.532 34.6701 119.453 35.0413C116.668 46.8746 119.073 51.4102 117.933 54.2699C115.273 55.8933 106.354 56.0549 102.714 54.33C102.091 52.7668 102.95 51.1284 102.566 48.3815C101.867 43.3911 100.221 42.012 100.221 35.4096C100.221 33.7374 100.89 32.5011 102.376 32.208C105.15 31.6631 111.526 30.641 117.124 31.7044Z" fill="#45C2D6"/>
<path opacity="0.2" d="M112.567 48.2237C112.567 48.2237 115.227 49.3848 117.127 49.5727C117.173 49.8658 117.211 50.3468 117.241 50.8804C117.352 52.8382 115.292 54.2887 113.521 53.4132C113.296 53.3213 113.093 53.1825 112.928 53.0061C112.762 52.8296 112.636 52.6198 112.56 52.391C112.07 50.5422 112.567 48.2237 112.567 48.2237Z" fill="white"/>
<path d="M103.865 47.7238C103.865 47.7238 102.931 48.8812 102.266 49.0691C102.266 49.3622 102.235 49.8432 102.224 50.3806C102.186 52.3347 102.908 53.7852 103.531 52.9133C103.731 52.606 103.846 52.2524 103.865 51.8875C103.964 50.5013 103.964 49.11 103.865 47.7238Z" fill="#45C2D6"/>
<path opacity="0.2" d="M103.865 47.7238C103.865 47.7238 102.931 48.8812 102.266 49.0691C102.266 49.3622 102.235 49.8432 102.224 50.3806C102.186 52.3347 102.908 53.7852 103.531 52.9133C103.731 52.606 103.846 52.2524 103.865 51.8875C103.964 50.5013 103.964 49.11 103.865 47.7238Z" fill="white"/>
<path opacity="0.2" d="M114.635 39.111C115.06 40.3098 116.934 44.5072 118.055 46.2508C118.055 44.805 118.13 43.3602 118.279 41.9218L114.635 39.111Z" fill="black"/>
<path d="M118.446 32.2944C119.825 33.4217 123.964 38.6413 123.964 38.6413L118.621 45.2324C118.621 45.2324 114.038 39.9077 114.152 37.9311C114.27 35.868 116.709 30.8852 118.446 32.2944Z" fill="#45C2D6"/>
<path d="M114 41.6851L110.014 41.5874C109.941 41.5863 109.869 41.5701 109.803 41.5399C109.736 41.5097 109.677 41.4661 109.629 41.412C109.581 41.3579 109.544 41.2944 109.522 41.2256C109.5 41.1568 109.493 41.0842 109.501 41.0125L109.676 39.2839C109.693 39.1314 109.766 38.9906 109.882 38.8886C109.998 38.7865 110.147 38.7306 110.303 38.7315L114.289 38.8292C114.362 38.8303 114.434 38.8465 114.5 38.8767C114.566 38.9069 114.625 38.9505 114.674 39.0046C114.722 39.0587 114.758 39.1222 114.78 39.191C114.802 39.2598 114.81 39.3324 114.802 39.4041L114.627 41.1327C114.61 41.2852 114.537 41.426 114.421 41.528C114.305 41.6301 114.155 41.686 114 41.6851Z" fill="white"/>
<path d="M112.48 23.9822C112.119 26.1204 111.819 30.0285 113.365 31.4038C113.365 31.4038 112.446 35.8756 107.924 37.762C105.264 35.6877 106.681 31.5992 106.681 31.5992C109.064 30.9604 108.961 29.2055 108.482 27.5671L112.48 23.9822Z" fill="#FFC3BD"/>
<path opacity="0.6" d="M105.773 33.3654C107.403 34.519 110.333 34.7144 112.567 33.696C112.13 35.0939 109.318 37.9837 107.711 38.4459C105.64 35.8267 105.773 33.3654 105.773 33.3654Z" fill="#45C2D6"/>
<path opacity="0.2" d="M110.831 25.444L108.463 27.5634C108.579 27.9451 108.66 28.3362 108.707 28.732C109.619 28.5742 110.846 27.5408 110.914 26.5901C110.956 26.2062 110.928 25.8179 110.831 25.444Z" fill="black"/>
<path d="M109.82 13.1522C107.635 11.8671 103.998 14.8996 103.74 19.191C103.482 23.4824 104.154 25.0569 103.455 26.5563C102.44 28.7358 101.965 30.4606 102.98 32.7867C103.82 34.7144 101.965 36.7023 104.31 38.8292C105.769 33.2789 106.624 35.5223 107.943 31.4151C108.726 28.9725 106.533 24.9291 107.183 24.0987C107.833 23.2682 115.421 17.3497 109.82 13.1522Z" fill="#44255B"/>
<path d="M115.847 20.9346C114.752 24.3166 114.365 25.7784 112.153 27.1049C108.832 29.104 104.861 27.0335 104.91 23.3884C104.952 20.1079 106.734 15.1213 110.493 14.6028C111.32 14.485 112.165 14.5784 112.946 14.8741C113.727 15.1699 114.418 15.6581 114.955 16.2926C115.491 16.927 115.855 17.6865 116.011 18.4989C116.167 19.3114 116.111 20.1498 115.847 20.9346Z" fill="#FFC3BD"/>
<path d="M110.694 20.6941C110.622 20.9759 110.417 21.1638 110.23 21.1187C110.044 21.0736 109.953 20.8068 110.025 20.525C110.097 20.2432 110.303 20.0553 110.489 20.1041C110.675 20.153 110.766 20.4123 110.694 20.6941Z" fill="#44255B"/>
<path d="M107.232 19.687C107.16 19.9689 106.951 20.1605 106.765 20.1117C106.579 20.0628 106.487 19.7998 106.56 19.5217C106.632 19.2436 106.841 19.052 107.027 19.0971C107.213 19.1422 107.304 19.409 107.232 19.687Z" fill="#44255B"/>
<path d="M107.103 19.1347L106.472 18.7589C106.472 18.7589 106.689 19.3827 107.103 19.1347Z" fill="#44255B"/>
<path d="M108.365 20.2282C107.948 20.8047 107.453 21.3218 106.894 21.7651C107.013 21.9034 107.161 22.0144 107.327 22.0903C107.494 22.1663 107.676 22.2053 107.859 22.2048L108.365 20.2282Z" fill="#ED847E"/>
<path d="M109.44 24.0498C109.297 24.0348 109.154 24.0097 109.014 23.9747C109.003 23.9725 108.993 23.9681 108.983 23.9617C108.974 23.9553 108.966 23.9472 108.96 23.9377C108.954 23.9282 108.95 23.9176 108.948 23.9065C108.946 23.8954 108.947 23.8841 108.95 23.8732C108.957 23.8517 108.971 23.8334 108.991 23.8216C109.01 23.8099 109.034 23.8055 109.056 23.8093C109.407 23.9059 109.775 23.9192 110.132 23.848C110.489 23.7768 110.823 23.6232 111.108 23.3997C111.124 23.3841 111.146 23.3754 111.169 23.3754C111.192 23.3754 111.213 23.3841 111.23 23.3997C111.238 23.4075 111.245 23.4168 111.249 23.4271C111.254 23.4375 111.256 23.4486 111.256 23.4599C111.256 23.4711 111.254 23.4823 111.249 23.4926C111.245 23.5029 111.238 23.5123 111.23 23.52C110.983 23.7228 110.697 23.8743 110.39 23.9653C110.082 24.0564 109.759 24.0851 109.44 24.0498Z" fill="#44255B"/>
<path d="M108.463 14.3435C108.657 16.3238 112.161 17.8495 113.346 17.609C112.86 18.9806 112.985 23.7079 115.056 22.8699C117.207 21.2653 117.526 18.4996 116.196 16.1284C114.866 13.7572 112.45 13.2161 108.463 14.3435Z" fill="#44255B"/>
<path d="M109.695 15.9067C107.631 16.7447 106.472 16.7447 106.472 16.7447C106.472 16.7447 106.366 14.49 108.6 14.3059C110.835 14.1217 109.695 15.9067 109.695 15.9067Z" fill="#44255B"/>
<path d="M113.761 26.2744C113.736 26.2731 113.713 26.2623 113.696 26.2443C113.687 26.2359 113.68 26.2257 113.675 26.2144C113.67 26.2031 113.667 26.1909 113.667 26.1786C113.667 26.1663 113.67 26.1541 113.675 26.1428C113.68 26.1315 113.687 26.1213 113.696 26.1128C115.528 24.3016 116.356 22.93 116.006 22.2536C115.975 22.1894 115.93 22.1323 115.875 22.0858C115.82 22.0393 115.756 22.0043 115.687 21.983C114.996 21.7613 113.59 22.464 112.75 22.8849L112.697 22.9112C112.686 22.9175 112.674 22.9215 112.661 22.9228C112.649 22.9241 112.636 22.9228 112.624 22.9189C112.612 22.9149 112.602 22.9085 112.592 22.9001C112.583 22.8916 112.576 22.8813 112.571 22.8699C112.565 22.8593 112.562 22.8477 112.56 22.8356C112.559 22.8236 112.56 22.8115 112.564 22.7999C112.567 22.7883 112.573 22.7776 112.581 22.7683C112.589 22.759 112.598 22.7514 112.609 22.7459L112.662 22.7196C113.586 22.2573 114.98 21.5546 115.744 21.8064C115.839 21.8357 115.926 21.8842 116.001 21.9489C116.076 22.0136 116.136 22.0931 116.177 22.1822C116.664 23.1479 115.17 24.9329 113.829 26.2556C113.809 26.2704 113.785 26.2771 113.761 26.2744Z" fill="#45C2D6"/>
<path d="M116.204 24.0498C115.724 24.6068 115.041 24.955 114.304 25.0193C113.32 25.0907 113.023 24.1738 113.46 23.3584C113.84 22.6068 114.836 21.6975 115.74 22.0094C116.645 22.3213 116.785 23.3697 116.204 24.0498Z" fill="#FFC3BD"/>
<path d="M112.309 19.8449C112.273 19.8417 112.239 19.8273 112.211 19.8037C112.184 19.78 112.165 19.7484 112.157 19.7133C111.982 18.9618 111.044 18.5522 111.017 18.5484C110.975 18.531 110.942 18.4978 110.925 18.4563C110.908 18.4147 110.908 18.3681 110.926 18.3267C110.943 18.2854 110.977 18.2526 111.019 18.2357C111.061 18.2188 111.108 18.2191 111.15 18.2365C111.196 18.2365 112.263 18.7025 112.476 19.6382C112.482 19.6599 112.483 19.6826 112.479 19.7047C112.476 19.7269 112.468 19.7481 112.456 19.7671C112.444 19.7861 112.428 19.8024 112.409 19.8151C112.39 19.8279 112.369 19.8367 112.347 19.8411C112.335 19.8442 112.322 19.8455 112.309 19.8449Z" fill="#44255B"/>
<path d="M106.461 17.9998C106.424 18.0088 106.385 18.0053 106.35 17.9899C106.316 17.9746 106.287 17.9482 106.269 17.915C106.251 17.8818 106.245 17.8437 106.252 17.8066C106.258 17.7696 106.277 17.7357 106.305 17.7104C106.499 17.5202 106.736 17.3786 106.996 17.2975C107.257 17.2165 107.533 17.1983 107.802 17.2445C107.824 17.2497 107.845 17.2593 107.863 17.2726C107.882 17.2859 107.897 17.3026 107.909 17.3218C107.92 17.3411 107.928 17.3624 107.931 17.3846C107.935 17.4068 107.933 17.4294 107.928 17.4511C107.917 17.4944 107.889 17.5316 107.851 17.5548C107.812 17.5781 107.766 17.5854 107.722 17.5752C107.509 17.5415 107.291 17.558 107.086 17.6233C106.881 17.6886 106.694 17.8008 106.541 17.9509C106.519 17.9743 106.491 17.9912 106.461 17.9998Z" fill="#44255B"/>
<path d="M110.58 20.138L109.949 19.7622C109.949 19.7622 110.151 20.386 110.58 20.138Z" fill="#44255B"/>
<path d="M105.005 20.9684C104.416 20.5025 104.264 23.7229 104.77 25.5229C105.275 27.3228 108.19 28.4953 110.36 28.1984C111.716 27.9766 112.938 27.2557 113.78 26.1805C113.78 26.1805 111.245 24.2377 112.67 22.8285C109.676 22.7496 108.65 21.6073 107.57 21.3555C106.491 21.1037 105.86 21.6448 105.005 20.9684Z" fill="white"/>
<path d="M109.679 28.3375C107.624 28.3375 105.154 27.2327 104.679 25.5454C104.226 23.9408 104.28 21.1864 104.77 20.867C104.815 20.8383 104.869 20.8253 104.923 20.8301C104.976 20.8348 105.027 20.8571 105.066 20.8933C105.256 21.0424 105.476 21.1483 105.712 21.2035C105.948 21.2587 106.193 21.2618 106.43 21.2127C106.811 21.1694 107.196 21.1872 107.57 21.2653C107.942 21.3706 108.301 21.5181 108.638 21.705C109.868 22.3701 111.245 22.7238 112.647 22.7346C112.666 22.7348 112.685 22.7407 112.7 22.7514C112.716 22.7621 112.728 22.7772 112.735 22.7947C112.741 22.812 112.743 22.8308 112.739 22.8489C112.735 22.8669 112.725 22.8834 112.712 22.8962C112.575 23.0231 112.468 23.178 112.399 23.35C112.329 23.522 112.299 23.707 112.309 23.892C112.377 24.993 113.799 26.0941 113.829 26.1053C113.848 26.1202 113.861 26.1417 113.864 26.1655C113.868 26.1892 113.862 26.2134 113.848 26.2331C112.992 27.3239 111.755 28.0585 110.379 28.2924C110.147 28.3232 109.913 28.3382 109.679 28.3375ZM104.88 21.0173C104.873 21.0152 104.865 21.0152 104.857 21.0173C104.511 21.2428 104.378 23.8319 104.857 25.4891C105.363 27.2815 108.277 28.3825 110.344 28.097C111.638 27.8791 112.806 27.1999 113.628 26.188C113.32 25.9362 112.191 24.9442 112.108 23.8958C112.082 23.5374 112.198 23.1833 112.431 22.9075C111.07 22.8675 109.738 22.5109 108.543 21.8665C108.217 21.6873 107.872 21.5449 107.513 21.4419C107.156 21.3655 106.789 21.349 106.427 21.3931C106.164 21.4393 105.895 21.4297 105.637 21.3649C105.379 21.3001 105.138 21.1816 104.929 21.0173C104.913 21.0124 104.896 21.0124 104.88 21.0173Z" fill="#45C2D6"/>
<path opacity="0.1" d="M111.72 25.0194C109.71 25.0194 106.51 24.1814 105.138 23.2908C105.117 23.2776 105.103 23.2569 105.097 23.233C105.091 23.2091 105.095 23.184 105.108 23.163C105.122 23.142 105.144 23.1272 105.168 23.1216C105.193 23.116 105.219 23.1201 105.241 23.1329C106.563 23.9897 109.774 24.8315 111.72 24.8315C111.745 24.8315 111.769 24.8414 111.787 24.859C111.805 24.8766 111.815 24.9005 111.815 24.9254C111.815 24.9503 111.805 24.9742 111.787 24.9918C111.769 25.0095 111.745 25.0194 111.72 25.0194Z" fill="#45C2D6"/>
<path opacity="0.1" d="M110.439 26.3759C108.57 26.3759 106.259 25.94 105.401 25.4026C105.39 25.3965 105.38 25.3882 105.373 25.3783C105.366 25.3685 105.36 25.3572 105.358 25.3452C105.355 25.3333 105.354 25.3209 105.357 25.3087C105.359 25.2966 105.363 25.2851 105.37 25.2749C105.376 25.2642 105.385 25.255 105.395 25.2476C105.405 25.2403 105.416 25.2351 105.428 25.2323C105.44 25.2294 105.453 25.2291 105.465 25.2313C105.477 25.2334 105.489 25.238 105.499 25.2448C106.639 25.9437 110.485 26.4849 112.187 25.9964C112.199 25.9929 112.211 25.9919 112.224 25.9933C112.236 25.9947 112.247 25.9985 112.258 26.0044C112.269 26.0104 112.278 26.0184 112.285 26.028C112.293 26.0376 112.298 26.0485 112.301 26.0602C112.305 26.0721 112.307 26.0846 112.306 26.097C112.305 26.1095 112.301 26.1216 112.295 26.1325C112.289 26.1435 112.281 26.1531 112.271 26.1607C112.261 26.1683 112.249 26.1737 112.237 26.1767C111.649 26.3215 111.045 26.3885 110.439 26.3759Z" fill="#45C2D6"/>
<path d="M122.235 50.6211C121.525 51.43 120.763 52.1931 119.955 52.9058L117.8 53.3605C116.799 53.5712 115.918 54.1553 115.341 54.9914C115.187 55.2164 115.12 55.4891 115.153 55.7591C115.186 56.0291 115.316 56.2783 115.52 56.4607L116.584 57.4152C116.788 57.5981 117.052 57.7019 117.327 57.7074C117.602 57.7129 117.87 57.6198 118.081 57.4452L119.179 56.5434C119.179 56.5434 121.528 56.3743 121.459 54.826C121.459 54.826 122.36 54.3225 123.359 53.6987C123.454 52.9847 122.945 51.4816 122.235 50.6211Z" fill="#45C2D6"/>
<path opacity="0.6" d="M122.235 50.6211C121.525 51.43 120.763 52.1931 119.955 52.9058L117.8 53.3605C116.799 53.5712 115.918 54.1553 115.341 54.9914C115.187 55.2164 115.12 55.4891 115.153 55.7591C115.186 56.0291 115.316 56.2783 115.52 56.4607L116.584 57.4152C116.788 57.5981 117.052 57.7019 117.327 57.7074C117.602 57.7129 117.87 57.6198 118.081 57.4452L119.179 56.5434C119.179 56.5434 121.528 56.3743 121.459 54.826C121.459 54.826 122.36 54.3225 123.359 53.6987C123.454 52.9847 122.945 51.4816 122.235 50.6211Z" fill="white"/>
<path d="M63.6376 87.0799L63.3351 87.2455L65.3639 90.8724L65.6665 90.7068L63.6376 87.0799Z" fill="#45C2D6"/>
<path d="M86.9338 92.3716L83.0813 94.0045L83.2175 94.3188L87.07 92.6859L86.9338 92.3716Z" fill="#45C2D6"/>
<path d="M65.312 81.6413L64.9821 81.7436L68.0389 91.3894L68.3688 91.2872L65.312 81.6413Z" fill="#45C2D6"/>
</svg>
