<svg width="11" height="13" viewBox="0 0 11 13" fill="none" xmlns="http://www.w3.org/2000/svg">
<path d="M5.5 0.350784C2.875 0.350784 0.5 2.36328 0.5 5.47578C0.5 7.46328 2.03125 9.80078 5.0875 12.4945C5.325 12.7008 5.68125 12.7008 5.91875 12.4945C8.96875 9.80078 10.5 7.46328 10.5 5.47578C10.5 2.36328 8.125 0.350784 5.5 0.350784ZM5.5 6.60078C4.8125 6.60078 4.25 6.03828 4.25 5.35078C4.25 4.66328 4.8125 4.10078 5.5 4.10078C6.1875 4.10078 6.75 4.66328 6.75 5.35078C6.75 6.03828 6.1875 6.60078 5.5 6.60078Z" fill="white"/>
</svg>
