<svg width="16" height="16" viewBox="0 0 16 16" fill="none" xmlns="http://www.w3.org/2000/svg">
<g clip-path="url(#clip0_143_320)">
<path d="M12.4027 5.81847V4.90272C12.4027 2.47116 10.4316 0.5 8.00001 0.5C5.56845 0.5 3.59732 2.47116 3.59732 4.90269V5.81844C2.44055 6.40876 1.71186 7.59723 1.71045 8.89592V12.0407C1.71254 13.9503 3.26007 15.4979 5.1697 15.5H10.8303C12.7399 15.4979 14.2875 13.9503 14.2896 12.0407V8.89595C14.2882 7.59726 13.5595 6.40876 12.4027 5.81847ZM8.00001 2.38687C9.38945 2.38687 10.5158 3.51324 10.5158 4.90269V5.43667H5.48419V4.90269C5.48419 3.51324 6.61056 2.38687 8.00001 2.38687ZM12.4027 12.0407C12.4027 12.9091 11.6987 13.6131 10.8303 13.6131H5.16973C4.30133 13.6131 3.59735 12.9091 3.59735 12.0407V8.89595C3.59735 8.02755 4.30133 7.32357 5.16973 7.32357H10.8303C11.6987 7.32357 12.4027 8.02755 12.4027 8.89595V12.0407Z" fill="#829CCC"/>
<path d="M7.68562 9.21042H8.31457C8.83561 9.21042 9.258 9.63281 9.258 10.1539C9.258 10.6749 8.83561 11.0973 8.31457 11.0973H7.68562C7.16458 11.0973 6.74219 10.6749 6.74219 10.1539C6.74219 9.63281 7.16458 9.21042 7.68562 9.21042Z" fill="#829CCC"/>
</g>
<defs>
<clipPath id="clip0_143_320">
<rect width="15" height="15" fill="white" transform="translate(0.5 0.5)"/>
</clipPath>
</defs>
</svg>
