<svg width="342" height="342" viewBox="0 0 342 342" fill="none" xmlns="http://www.w3.org/2000/svg">
<path d="M288.175 70.2182L293.76 78.5002C294.556 79.6805 294.85 81.1287 294.578 82.5261C294.306 83.9235 293.491 85.1557 292.31 85.9516L279.577 94.5377L267.99 77.3548L280.723 68.7693C281.307 68.375 281.964 68.0998 282.654 67.9592C283.345 67.8187 284.057 67.8156 284.749 67.9501C285.441 68.0847 286.1 68.3542 286.688 68.7434C287.275 69.1325 287.781 69.6337 288.175 70.2182Z" fill="#497FCE"/>
<path d="M226.973 204.462L228.531 199.432C228.996 197.937 229.07 196.348 228.747 194.816C228.423 193.284 227.713 191.861 226.683 190.681C223.531 187.053 220.588 183.248 217.869 179.285L221.535 175.974C222.949 174.687 224.73 173.873 226.629 173.647C228.528 173.421 230.45 173.794 232.126 174.714C239.144 178.607 253.451 182.79 275.237 171.872C277.133 170.937 279.309 170.741 281.341 171.321C283.374 171.902 285.118 173.217 286.234 175.012C287.414 176.902 287.812 179.178 287.342 181.356C286.873 183.535 285.573 185.445 283.719 186.681C278.627 189.994 272.934 192.273 266.963 193.39L263.475 204.455L226.973 204.462Z" fill="#FFCAC0"/>
<path d="M64.2024 183.683C64.2024 183.683 49.1212 198.275 39.8419 224.257C39.8419 224.257 25.6137 270.917 26.5411 330.479H185.525L180.576 279.937C188.081 282.501 195.564 291.675 195.564 291.675L207.018 300.646C208.725 301.984 210.693 302.951 212.795 303.487C214.897 304.022 217.087 304.114 219.227 303.757C221.608 303.362 223.865 302.42 225.82 301.004C227.775 299.588 229.375 297.738 230.493 295.599C237.126 282.877 251.214 252.581 263.469 204.466H226.972L212.262 242.478C212.262 242.478 188.711 211.396 159.578 185.11L64.2024 183.683Z" fill="#F7F7F7"/>
<path d="M121.058 306.974C162.299 274.93 168.669 222.782 168.669 222.782L159.578 205.951L166.791 191.749C165.345 190.395 161.058 186.442 159.578 185.111L149.228 184.956L139.013 198.584L146.386 224.685C141.839 250.786 109.352 304.886 109.352 304.886V330.482H115.446L115.735 317.546C115.781 315.499 116.283 313.488 117.203 311.659C118.124 309.831 119.441 308.23 121.058 306.974Z" fill="#A7BAD6"/>
<path d="M89.6358 154.574L126.094 160.583C126.094 160.583 145.93 208.726 126.094 274.587L114.886 276.025C114.886 276.025 84.5169 234.44 89.6358 154.574Z" fill="#A7B7EA"/>
<path d="M113.282 300.41L116.721 288.715L78.2119 183.891L64.202 183.683C62.0556 185.866 60.0493 188.181 58.1949 190.617L66.768 202.959L53.8927 226.171C53.8927 226.171 76.8238 283.442 113.282 300.41Z" fill="#A7BAD6"/>
<path d="M113.994 193.509C114.951 193.523 115.878 193.843 116.641 194.423C117.403 195.002 117.96 195.809 118.231 196.727L134.262 251.081L119.887 281.713L101.835 253.729L109.479 197.399C109.625 196.311 110.165 195.313 110.997 194.596C111.829 193.879 112.896 193.492 113.994 193.509Z" fill="#3C3C4F"/>
<path d="M89.6356 154.574C89.6356 154.574 91.6846 215.915 115.838 265.925C115.838 265.925 115.063 281.848 107.354 288.873C90.5097 268.98 76.9701 246.509 67.2527 222.321L77.4202 203.612L64.2019 183.683C73.2806 174.522 81.7752 164.8 89.6356 154.574Z" fill="#F7F7F7"/>
<path d="M115.841 265.919C115.841 265.919 108.9 277.006 104.078 285.936C108.985 291.71 115.444 297.764 115.444 297.764L122.765 278.854C120.278 274.665 117.974 270.336 115.841 265.919Z" fill="#A7BAD6"/>
<path d="M89.6362 136.196V154.574C89.6362 154.574 95.0197 169.484 112.6 181.059C112.6 181.059 120.675 174.605 126.094 160.586V153.799C112.35 146.194 99.5884 139.662 89.6362 136.196Z" fill="#FFCAC0"/>
<path d="M126.094 157.005V160.583C128.278 176.724 135.213 241.19 109.348 304.886C109.348 304.886 145.75 282.719 157.951 222.932L144.936 204.222L159.578 185.11C159.578 185.11 141.871 165.997 126.094 157.005Z" fill="#F7F7F7"/>
<path d="M226.614 126.774L218.246 114.356L195.562 129.641L203.93 142.06L226.614 126.774Z" fill="#497FCE"/>
<path d="M224.434 133.481L211.207 113.85C210.782 113.219 210.484 112.51 210.333 111.764C210.181 111.017 210.178 110.249 210.324 109.502C210.469 108.754 210.761 108.043 211.181 107.408C211.602 106.774 212.143 106.228 212.774 105.803L220.673 100.481C221.86 100.283 222.991 99.832 223.989 99.1594C224.987 98.4868 225.829 97.6078 226.458 96.5818L234.319 91.2848C236.669 90.7595 238.735 89.3677 240.104 87.387L247.965 82.09C250.326 81.5883 252.4 80.1907 253.751 78.1912L261.648 72.8691C262.279 72.4435 262.988 72.1465 263.734 71.995C264.481 71.8435 265.249 71.8404 265.997 71.9861C266.744 72.1317 267.455 72.4231 268.09 72.8437C268.724 73.2643 269.27 73.8058 269.695 74.4373L282.924 94.0681C283.349 94.6993 283.646 95.4083 283.798 96.1544C283.949 96.9005 283.952 97.6692 283.807 98.4165C283.661 99.1638 283.37 99.875 282.949 100.51C282.528 101.144 281.987 101.69 281.355 102.115L232.482 135.048C231.85 135.473 231.141 135.771 230.395 135.922C229.649 136.074 228.881 136.077 228.133 135.932C227.386 135.786 226.675 135.495 226.04 135.074C225.405 134.654 224.86 134.112 224.434 133.481Z" fill="#BDDEFF"/>
<path d="M193.59 121.978L210.292 146.764C211.084 147.939 211.376 149.381 211.105 150.772C210.834 152.163 210.021 153.39 208.846 154.182L202.262 158.619L179.587 124.969L186.171 120.532C187.347 119.74 188.789 119.448 190.18 119.719C191.571 119.99 192.798 120.802 193.59 121.978Z" fill="#7AAEED"/>
<path d="M254.387 91.6298C254.904 92.3971 255.705 92.9275 256.613 93.1045C257.521 93.2814 258.462 93.0904 259.23 92.5734C259.997 92.0563 260.527 91.2557 260.704 90.3476C260.881 89.4395 260.69 88.4983 260.173 87.731L253.75 78.1973L247.964 82.0961L254.387 91.6298Z" fill="#7AAEED"/>
<path d="M242.82 103.908C243.342 104.663 244.14 105.182 245.042 105.352C245.944 105.522 246.877 105.33 247.638 104.817C248.4 104.304 248.928 103.512 249.109 102.612C249.29 101.712 249.109 100.777 248.606 100.01L240.104 87.3932L234.319 91.291L242.82 103.908Z" fill="#7AAEED"/>
<path d="M232.882 106.121L226.459 96.5869L220.673 100.488L227.097 110.021C227.614 110.789 228.414 111.319 229.322 111.496C230.23 111.673 231.172 111.482 231.939 110.965C232.706 110.448 233.237 109.647 233.413 108.739C233.59 107.831 233.399 106.89 232.882 106.123V106.121Z" fill="#7AAEED"/>
<path d="M89.6362 136.196C89.6362 136.196 104.113 153.18 126.094 153.799V136.994L89.6362 114.6V136.196Z" fill="#E5837C"/>
<path d="M87.6253 88.9562L86.7271 114.288C86.7271 114.288 91.0071 124.146 106.845 135.084C130.714 126.957 150.585 115.031 155.808 95.251C155.789 86.2312 155.796 76.5174 155.862 67.7552L87.6253 47.3116V88.9562Z" fill="#FFCAC0"/>
<path d="M118.323 65.4135C118.323 65.4135 142.118 73.4002 155.869 67.7522C155.869 67.7522 155.921 60.9806 155.99 56.7881L87.6254 47.3116L87.4453 56.613C94.4523 69.0156 109.264 82.2399 118.323 65.4135Z" fill="#E5837C"/>
<path d="M125.429 86.6015C127.521 86.6015 129.217 84.9055 129.217 82.8134C129.217 80.7212 127.521 79.0252 125.429 79.0252C123.337 79.0252 121.641 80.7212 121.641 82.8134C121.641 84.9055 123.337 86.6015 125.429 86.6015Z" fill="#E5837C"/>
<path d="M142.118 86.6015C144.21 86.6015 145.906 84.9055 145.906 82.8134C145.906 80.7212 144.21 79.0252 142.118 79.0252C140.026 79.0252 138.33 80.7212 138.33 82.8134C138.33 84.9055 140.026 86.6015 142.118 86.6015Z" fill="#E5837C"/>
<path d="M97.4422 60.9031C97.4422 60.9031 100.839 87.2573 85.4621 102.036C85.4621 102.036 66.7688 94.046 66.7688 68.8697C66.7688 43.6935 83.05 40.527 83.05 40.527C83.05 40.527 85.1624 19.8732 112.9 18.5173C136.722 17.3514 164.324 13.0432 171.643 11.8503C171.89 11.8092 172.143 11.82 172.386 11.882C172.628 11.9439 172.855 12.0557 173.052 12.2102C173.249 12.3647 173.412 12.5586 173.53 12.7794C173.648 13.0002 173.719 13.2432 173.738 13.4929C174.086 18.0525 173.763 29.5337 162.949 36.3063L173.511 35.0781C173.799 35.044 174.09 35.0794 174.361 35.1813C174.632 35.2832 174.875 35.4486 175.069 35.6637C175.263 35.8789 175.403 36.1374 175.476 36.4175C175.549 36.6977 175.554 36.9914 175.491 37.2739C173.526 46.3178 163.061 75.9572 112.168 54.6345C112.513 56.8591 112.577 59.1183 112.357 61.3588C112.279 62.2528 112.001 63.1179 111.544 63.89C111.086 64.6622 110.461 65.3217 109.715 65.8199C108.968 66.318 108.119 66.6421 107.231 66.7682C106.342 66.8942 105.437 66.819 104.581 66.5481C101.566 65.6502 99.011 63.6296 97.4422 60.9031Z" fill="#5C5C6D"/>
<path d="M117.757 141.686C117.757 141.686 134.078 149.759 146.794 140.189C149.696 137.947 152.033 135.057 153.62 131.752C155.207 128.446 156 124.816 155.936 121.149C155.891 115.114 155.835 105.642 155.811 95.2479C154.58 96.2752 153.274 97.2076 151.902 98.0372C150.62 98.798 149.153 99.1907 147.663 99.1721C146.172 99.1534 144.715 98.7242 143.453 97.9316C141.595 96.7182 139.435 96.0498 137.216 96.0023C134.627 96.3095 132.135 97.1787 129.917 98.5492C125.641 101.312 120.572 102.585 115.498 102.17C108.68 101.516 103.514 100.473 103.514 100.473C111.454 115.293 106.846 135.076 106.846 135.076C110.352 137.489 113.995 139.696 117.757 141.686Z" fill="#BDF2DC"/>
<path d="M92.6889 107.29C92.5699 110.132 91.4012 112.829 89.4089 114.86C87.4165 116.89 84.7421 118.109 81.9028 118.282C79.6187 118.421 77.3685 117.676 75.618 116.203C68.8183 110.476 70.9648 96.8755 70.9648 96.8755C70.9648 96.8755 71.681 86.8539 80.9864 87.0933C84.9748 87.1939 87.758 89.7519 89.637 92.6398C91.9844 96.3421 93.0959 100.694 92.8116 105.068L92.6889 107.29Z" fill="#FFCAC0"/>
<path d="M83.846 96.3635C82.6612 94.7929 80.9072 93.7504 78.9614 93.4605C78.5497 93.424 78.1402 93.5515 77.8219 93.8151C77.5036 94.0788 77.3022 94.4574 77.2615 94.8687C77.22 95.2823 77.3424 95.6957 77.6023 96.0201C77.8622 96.3445 78.2389 96.5541 78.6516 96.6039C78.6516 96.6039 82.2154 96.8563 82.7164 101.676C82.7164 101.676 80.6261 101.105 80.2459 104.215C79.8657 107.326 80.8726 109.412 84.4012 109.671C84.7823 109.671 85.1504 109.533 85.4373 109.282C85.7243 109.031 85.9108 108.685 85.9623 108.307C86.6805 103.045 85.9684 99.026 83.846 96.3635Z" fill="#E5837C"/>
<path d="M93.4866 286.529C93.4866 286.529 100.58 303.064 99.54 330.486H112.177V297.565L93.4866 286.529Z" fill="#A7BAD6"/>
<path d="M178.783 261.612L180.576 279.937L195.564 291.675C193.19 280.633 189.261 269.984 183.896 260.046C183.595 259.493 183.113 259.062 182.53 258.824C181.948 258.587 181.301 258.558 180.7 258.742C180.099 258.926 179.58 259.312 179.23 259.835C178.881 260.358 178.723 260.986 178.783 261.612Z" fill="#A7BAD6"/>
<path d="M26.5367 333.958H26.5921C27.0501 333.951 27.5022 333.854 27.9226 333.672C28.343 333.49 28.7234 333.227 29.0422 332.898C29.361 332.569 29.6119 332.181 29.7806 331.755C29.9492 331.329 30.0323 330.874 30.0251 330.416C29.1339 273.217 42.5232 227.445 43.1519 225.335C47.8228 212.199 54.8007 200.003 63.7574 189.319L73.3475 203.779L64.1829 220.643C63.9394 221.091 63.797 221.587 63.7657 222.095C63.7345 222.604 63.815 223.113 64.0018 223.588C73.2622 246.695 85.981 268.262 101.722 287.548C102.307 288.265 103.152 288.721 104.073 288.815C104.993 288.909 105.913 288.633 106.631 288.049C107.348 287.465 107.804 286.619 107.898 285.699C107.992 284.778 107.716 283.858 107.132 283.141C92.1895 264.832 80.0442 244.409 71.0923 222.538L80.4792 205.266C80.7818 204.709 80.9271 204.081 80.8994 203.448C80.8718 202.814 80.6723 202.201 80.3223 201.672L68.6711 184.105C72.0781 180.607 79.2912 172.999 86.7197 163.906C88.3542 184.125 94.4107 233.432 115.962 273.862C113.32 283.945 110.037 293.849 106.131 303.514V303.52L106.115 303.561C106.041 303.747 105.983 303.938 105.941 304.134C105.93 304.187 105.926 304.242 105.917 304.295C105.89 304.456 105.873 304.618 105.868 304.781C105.868 304.812 105.859 304.842 105.859 304.874V329.761C105.859 330.687 106.226 331.574 106.88 332.228C107.535 332.882 108.422 333.25 109.347 333.25C110.272 333.25 111.159 332.882 111.814 332.228C112.468 331.574 112.835 330.687 112.835 329.761V306.742C120.316 301.524 150.346 277.627 161.368 223.617C161.462 223.154 161.462 222.678 161.367 222.216C161.271 221.753 161.083 221.315 160.814 220.928L149.253 204.31L160.035 190.236C187.295 215.43 209.257 244.27 209.484 244.569C209.859 245.065 210.359 245.451 210.933 245.688C211.508 245.925 212.135 246.005 212.75 245.918C213.366 245.832 213.947 245.583 214.433 245.196C214.92 244.81 215.295 244.301 215.519 243.721L229.366 207.938H258.968C247.254 252.52 234.243 280.85 227.404 293.969C226.577 295.545 225.414 296.919 223.997 297.995C222.58 299.071 220.943 299.822 219.203 300.195C217.464 300.569 215.663 300.555 213.929 300.156C212.195 299.756 210.571 298.98 209.17 297.883L183.905 278.095L180.74 245.761C180.708 245.296 180.583 244.841 180.372 244.425C180.161 244.008 179.869 243.638 179.513 243.337C179.157 243.035 178.743 242.808 178.298 242.669C177.852 242.531 177.384 242.482 176.919 242.528C176.455 242.573 176.004 242.712 175.594 242.934C175.184 243.157 174.823 243.46 174.532 243.825C174.241 244.19 174.026 244.609 173.9 245.059C173.774 245.508 173.74 245.978 173.799 246.441L177.11 280.261L182.059 330.81C182.144 331.671 182.545 332.47 183.186 333.052C183.827 333.634 184.661 333.957 185.526 333.958C185.641 333.958 185.756 333.953 185.87 333.941C186.791 333.851 187.639 333.399 188.226 332.684C188.813 331.969 189.093 331.05 189.003 330.13L184.849 287.693L204.871 303.375C207.078 305.104 209.638 306.326 212.37 306.955C215.102 307.583 217.939 307.604 220.68 307.014C223.421 306.424 225.998 305.239 228.23 303.542C230.462 301.845 232.293 299.678 233.594 297.195C240.788 283.395 254.668 253.128 266.831 205.411L269.685 196.358C275.374 195.07 280.785 192.772 285.664 189.575C288.219 187.884 290.034 185.282 290.738 182.3C291.442 179.318 290.983 176.18 289.454 173.525C287.925 170.869 285.441 168.897 282.508 168.009C279.576 167.122 276.415 167.385 273.67 168.747C253.049 179.079 239.848 175.005 233.813 171.656C231.5 170.382 228.848 169.864 226.226 170.173C223.604 170.482 221.145 171.603 219.191 173.379L215.525 176.69C214.897 177.257 214.497 178.032 214.399 178.872C214.3 179.711 214.51 180.558 214.989 181.255C217.785 185.328 220.811 189.238 224.05 192.968C224.691 193.698 225.132 194.58 225.333 195.53C225.533 196.48 225.486 197.465 225.194 198.391L223.673 203.299L211.217 235.487C203.35 225.655 184.215 202.656 162.029 182.616C160.514 180.991 144.699 164.208 129.575 155.003V148.264C130.408 148.326 131.258 148.365 132.131 148.365C135.737 148.456 139.324 147.813 142.673 146.476C146.023 145.139 149.067 143.135 151.619 140.586C154.17 138.037 156.178 134.996 157.519 131.648C158.86 128.3 159.507 124.714 159.42 121.108C159.376 115.028 159.319 105.601 159.294 95.2249C159.278 87.206 159.283 79.9354 159.313 73.6145C159.315 73.1564 159.227 72.7023 159.054 72.2783C158.88 71.8542 158.625 71.4685 158.303 71.1431C157.98 70.8177 157.597 70.5589 157.175 70.3817C156.752 70.2044 156.299 70.1121 155.841 70.11H155.824C154.902 70.1102 154.017 70.4757 153.363 71.1264C152.71 71.7771 152.341 72.6601 152.336 73.5823C152.308 79.4657 152.302 86.1789 152.314 93.54C151.626 94.05 150.882 94.5529 150.077 95.0488C149.342 95.4762 148.503 95.6921 147.653 95.6727C146.802 95.6534 145.974 95.3995 145.259 94.9392C142.844 93.37 140.03 92.5247 137.15 92.5029C137.082 92.5029 137.014 92.5029 136.948 92.512C133.796 92.8574 130.762 93.9054 128.068 95.5789C124.445 97.9394 120.142 99.0325 115.832 98.6871C109.294 98.0584 104.252 97.0525 104.203 97.0425C104.178 97.0425 104.153 97.0425 104.128 97.0334C104.104 97.0244 104.098 97.0234 104.082 97.0204C101.166 96.4799 98.372 95.417 95.834 93.883C96.043 93.5568 96.1967 93.1982 96.2886 92.8218C99.2992 85.206 100.971 77.1273 101.232 68.9422C101.97 69.2972 102.732 69.6017 103.512 69.8535C104.855 70.2903 106.279 70.4177 107.679 70.2261C109.078 70.0344 110.416 69.5288 111.592 68.747C112.788 67.9628 113.79 66.9182 114.525 65.6915C115.259 64.4648 115.706 63.0877 115.833 61.6636C115.89 61.042 115.926 60.4414 115.947 59.8691C135.914 67.3126 151.839 67.6043 163.333 60.715C177.627 52.1459 179.326 35.8034 179.388 35.1123C179.436 34.5949 179.369 34.0731 179.19 33.5852C179.011 33.0972 178.726 32.6553 178.354 32.2918C177.983 31.9284 177.535 31.6525 177.043 31.4844C176.551 31.3163 176.028 31.2602 175.512 31.3201L172.75 31.641C179.038 22.2561 177.041 11.4419 176.926 10.8575C176.75 9.96391 176.231 9.17467 175.481 8.65794C174.731 8.14122 173.809 7.93789 172.911 8.0913C172.585 8.14762 139.927 13.691 112.725 15.0218C88.144 16.2239 81.6551 31.7859 80.0597 37.8041C74.9519 39.7796 63.2756 46.7192 63.2756 68.8577C63.1343 76.6286 65.1093 84.2916 68.989 91.0263C68.1803 92.7389 67.6746 94.5788 67.4943 96.4641C67.1724 98.6187 65.4986 112.233 73.3676 118.86C75.6379 120.769 78.5173 121.8 81.4831 121.767C81.6661 121.767 81.8502 121.767 82.0353 121.756C83.4357 121.7 84.8202 121.438 86.1443 120.978V153.387C78.5728 163.135 70.4247 172.42 61.7436 181.195C60.8333 182.081 45.908 196.886 36.5553 223.071C36.5372 223.123 36.5191 223.172 36.504 223.227C36.3602 223.699 22.1259 271.098 23.0524 330.523C23.0664 331.438 23.4395 332.311 24.0913 332.954C24.7431 333.596 25.6214 333.957 26.5367 333.958ZM222.501 179.794L223.872 178.556C224.745 177.755 225.847 177.248 227.024 177.105C228.2 176.962 229.392 177.19 230.432 177.757C237.674 181.773 253.316 186.751 276.803 174.984C277.961 174.429 279.287 174.335 280.511 174.72C281.736 175.106 282.769 175.942 283.4 177.06C284.032 178.178 284.215 179.494 283.913 180.742C283.611 181.99 282.846 183.076 281.773 183.782C277.059 186.838 271.791 188.94 266.268 189.969C265.657 190.093 265.091 190.378 264.628 190.795C264.165 191.212 263.822 191.746 263.635 192.34L260.919 200.961H231.702L231.858 200.458C232.507 198.395 232.612 196.201 232.165 194.085C231.718 191.97 230.734 190.005 229.307 188.381C227.62 186.447 225.185 183.51 222.501 179.794ZM94.2366 168.968C98.8795 174.812 104.431 179.872 110.678 183.956C111.293 184.36 112.02 184.56 112.756 184.526C113.491 184.493 114.197 184.227 114.773 183.768C118.577 180.398 121.81 176.433 124.347 172.029C126.894 202.602 124.923 233.384 118.499 263.383C102.313 229.317 96.357 189.775 94.2366 168.968ZM154.986 185.348L142.163 202.089C141.713 202.676 141.462 203.391 141.445 204.13C141.428 204.87 141.646 205.596 142.068 206.203L154.225 223.678C146.225 261.226 128.302 283.37 117.133 294.03C136.426 238.067 132.786 183.561 130.554 163.986C140.761 171.16 150.802 181.059 154.986 185.348ZM122.603 159.911C120.226 166.064 116.711 171.714 112.242 176.566C99.3797 167.294 94.1723 156.347 93.1201 153.885V128.417C96.758 131.917 100.685 135.104 104.86 137.943C104.883 137.959 104.907 137.969 104.93 137.984C108.526 140.453 112.261 142.714 116.116 144.755L116.206 144.802C118.263 145.758 120.404 146.521 122.603 147.08V159.911ZM144.693 137.389C142.801 138.811 140.662 139.868 138.384 140.508C140.119 135.642 141.175 130.56 141.523 125.406C145.305 124.66 148.972 123.422 152.432 121.724C152.409 124.75 151.7 127.731 150.36 130.445C149.019 133.158 147.082 135.532 144.693 137.389ZM152.337 101.72C152.354 106.092 152.375 110.159 152.396 113.751C149.12 115.811 145.527 117.315 141.762 118.204C141.669 112.093 141.029 106.002 139.85 100.005C140.471 100.252 141.069 100.552 141.639 100.9C143.225 101.885 145.026 102.474 146.887 102.617C148.749 102.759 150.618 102.452 152.336 101.72H152.337ZM115.165 105.632C121.003 106.13 126.841 104.675 131.762 101.497C132.14 101.26 132.52 101.058 132.895 100.872C134.319 107.983 137.285 127.508 130.457 141.293C126.617 141.034 122.851 140.109 119.327 138.561C116.31 136.952 113.419 135.242 110.706 133.463C111.229 130.302 111.539 127.11 111.635 123.908C116.286 125.153 121.044 125.955 125.845 126.304C125.928 126.31 126.01 126.313 126.093 126.313C126.995 126.31 127.862 125.958 128.51 125.329C129.158 124.701 129.538 123.847 129.569 122.945C129.6 122.043 129.28 121.164 128.677 120.492C128.074 119.821 127.234 119.41 126.333 119.345C121.288 118.975 116.299 118.053 111.455 116.595C111.162 112.632 110.401 108.717 109.189 104.933C110.937 105.171 112.96 105.416 115.164 105.632H115.165ZM83.7111 43.9399C84.4403 43.7931 85.1042 43.4191 85.6077 42.8715C86.1111 42.324 86.4282 41.631 86.5135 40.8921C86.597 40.1699 88.8361 23.1745 113.069 21.9896C135.234 20.9052 160.894 17.0789 170.348 15.5781C170.373 20.1538 169.157 28.2894 161.094 33.3379C160.423 33.7582 159.914 34.3942 159.653 35.1415C159.391 35.8887 159.391 36.7028 159.654 37.4498C159.916 38.1969 160.424 38.8325 161.096 39.2523C161.767 39.672 162.561 39.8509 163.348 39.7595L171.495 38.8119C170.15 43.3535 166.976 50.3947 159.742 54.7331C149.293 60.9997 133.739 59.8781 113.514 51.4056C112.934 51.1642 112.299 51.0839 111.677 51.173C111.055 51.2622 110.468 51.5176 109.979 51.9122C109.49 52.3068 109.116 52.8261 108.898 53.4154C108.679 54.0046 108.623 54.6419 108.736 55.2601C109.018 57.1707 109.067 59.1085 108.881 61.0309C108.847 61.4117 108.727 61.7799 108.531 62.1079C108.334 62.4359 108.066 62.7152 107.747 62.925C107.444 63.1299 107.099 63.2627 106.737 63.3133C106.375 63.3639 106.006 63.3308 105.659 63.2167C103.475 62.5902 101.618 61.143 100.476 59.1781C100.079 58.4733 99.4489 57.9286 98.6942 57.6371C97.9396 57.3456 97.107 57.3254 96.3391 57.5801C95.5712 57.8348 94.9158 58.3485 94.4849 59.0332C94.054 59.718 93.8745 60.5312 93.9771 61.3337C93.9882 61.4192 95.6368 77.7668 90.8921 88.5438C89.7048 87.0645 88.2139 85.8571 86.5201 85.0032C84.8263 84.1493 82.9691 83.6687 81.0737 83.5938C78.5461 83.4702 76.0384 84.0963 73.8655 85.3934C71.3988 80.235 70.1627 74.5747 70.2544 68.8577C70.2524 47.1085 83.1961 44.0576 83.7111 43.9399ZM81.7637 114.783C80.3483 114.887 78.9483 114.435 77.8609 113.523C73.5466 109.89 73.9047 100.654 74.4067 97.4076C74.4218 97.307 74.4328 97.2115 74.4409 97.1129C74.4892 96.4269 75.0887 90.3805 80.8926 90.5686C81.7074 90.5897 84.1859 90.6531 86.7076 94.5298C86.7177 94.5459 86.7318 94.5579 86.7418 94.573C90.363 100.315 97.6758 102.694 101.145 103.525C105.22 112.246 104.958 122.671 104.282 128.869C99.7067 125.486 95.6708 121.429 92.3124 116.836C92.9948 116.07 93.5983 115.237 94.1139 114.35C94.5784 113.549 94.7059 112.597 94.4684 111.703C94.2309 110.809 93.6478 110.045 92.8475 109.581C92.0472 109.116 91.0951 108.989 90.2008 109.226C89.3064 109.464 88.5431 110.047 88.0786 110.847C87.4455 111.984 86.534 112.942 85.4294 113.631C84.3248 114.319 83.0635 114.716 81.7637 114.783Z" fill="#3C3C4F"/>
<path d="M176.157 124.291C175.981 125.199 176.172 126.139 176.689 126.906L199.366 160.557C199.622 160.937 199.951 161.263 200.332 161.516C200.714 161.769 201.142 161.944 201.592 162.032C202.042 162.119 202.504 162.117 202.953 162.026C203.402 161.935 203.829 161.756 204.209 161.5L210.793 157.063C212.735 155.754 214.078 153.727 214.526 151.428C214.974 149.129 214.491 146.746 213.182 144.803L210.969 141.513L221.066 134.709L221.547 135.422C222.226 136.435 223.099 137.303 224.115 137.977C225.132 138.65 226.272 139.115 227.47 139.345C228.061 139.46 228.662 139.519 229.265 139.519C231.108 139.518 232.909 138.965 234.434 137.931L283.307 104.998C285.055 103.816 286.35 102.074 286.977 100.059C287.604 98.044 287.526 95.8755 286.757 93.9102L294.186 88.9049C296.132 87.5906 297.477 85.5579 297.926 83.2529C298.375 80.9479 297.892 78.5589 296.582 76.61L295.73 75.3617L317.457 60.7251C318.224 60.2081 318.754 59.4075 318.931 58.4993C319.108 57.5912 318.917 56.65 318.4 55.8828C317.883 55.1155 317.083 54.5851 316.175 54.4081C315.266 54.2312 314.325 54.4222 313.558 54.9393L291.831 69.5769L290.989 68.3266C289.675 66.3805 287.642 65.0353 285.337 64.5863C283.032 64.1372 280.644 64.6211 278.695 65.9315L271.267 70.9368C269.736 69.482 267.754 68.5934 265.65 68.4178C263.545 68.2422 261.444 68.7902 259.693 69.9712L210.822 102.902C208.782 104.279 207.371 106.409 206.9 108.825C206.428 111.241 206.935 113.746 208.307 115.789L208.788 116.501L198.691 123.305L196.478 120.015C195.83 119.053 194.999 118.228 194.032 117.587C193.065 116.946 191.982 116.502 190.843 116.28C189.704 116.058 188.533 116.063 187.397 116.293C186.26 116.524 185.18 116.977 184.218 117.625L177.633 122.062C177.253 122.318 176.927 122.647 176.673 123.029C176.42 123.412 176.245 123.841 176.157 124.291ZM282.595 71.7194C283.008 71.4403 283.515 71.3365 284.004 71.4308C284.493 71.5251 284.925 71.8098 285.205 72.2223L290.788 80.5078C291.066 80.9215 291.169 81.4288 291.073 81.9182C290.978 82.4076 290.692 82.8391 290.279 83.1181L283.036 87.9966L275.353 76.5929L282.595 71.7194ZM214.72 108.692L263.595 75.759C264.102 75.4172 264.725 75.291 265.325 75.4081C265.926 75.5252 266.456 75.8762 266.798 76.3837L280.025 96.0135C280.365 96.5214 280.491 97.1434 280.374 97.7435C280.257 98.3436 279.907 98.8731 279.401 99.2162L230.526 132.15C230.275 132.319 229.993 132.437 229.696 132.497C229.399 132.558 229.093 132.559 228.796 132.501C228.499 132.443 228.216 132.327 227.963 132.159C227.711 131.992 227.494 131.776 227.325 131.525L214.097 111.895C213.756 111.387 213.63 110.765 213.747 110.164C213.863 109.563 214.213 109.033 214.72 108.69V108.692ZM212.69 122.292L217.159 128.925L207.062 135.729L202.593 129.096L212.69 122.292ZM188.115 123.416C188.524 123.141 189.025 123.04 189.508 123.134C189.991 123.228 190.416 123.511 190.691 123.919L207.389 148.706C207.525 148.908 207.62 149.135 207.669 149.373C207.717 149.612 207.718 149.858 207.671 150.097C207.624 150.336 207.531 150.564 207.396 150.767C207.262 150.97 207.088 151.145 206.886 151.281L203.195 153.768L184.419 125.905L188.115 123.416Z" fill="#3C3C4F"/>
</svg>
