<svg width="100" height="100" viewBox="0 0 100 100" fill="none" xmlns="http://www.w3.org/2000/svg">
<path d="M84.2617 20.5316L85.8947 22.9533C86.1274 23.2984 86.2135 23.7218 86.134 24.1304C86.0545 24.539 85.816 24.8993 85.4709 25.132L81.7477 27.6426L78.3598 22.6184L82.0827 20.108C82.2536 19.9927 82.4456 19.9122 82.6475 19.8711C82.8495 19.83 83.0577 19.8291 83.26 19.8685C83.4623 19.9078 83.655 19.9866 83.8268 20.1004C83.9987 20.2142 84.1465 20.3607 84.2617 20.5316Z" fill="#497FCE"/>
<path d="M66.3664 59.7841L66.822 58.3135C66.9579 57.8763 66.9796 57.4116 66.885 56.9637C66.7905 56.5158 66.5827 56.0996 66.2817 55.7547C65.36 54.6939 64.4994 53.5814 63.7043 52.4226L64.7764 51.4544C65.1898 51.0779 65.7105 50.84 66.2657 50.774C66.821 50.7079 67.383 50.8169 67.8732 51.0858C69.9252 52.2244 74.1085 53.4473 80.4788 50.255C81.0331 49.9816 81.6692 49.9242 82.2635 50.0939C82.8578 50.2636 83.3677 50.6483 83.694 51.1732C84.0392 51.7258 84.1555 52.3912 84.0182 53.0282C83.881 53.6651 83.5009 54.2236 82.9588 54.585C81.47 55.5537 79.8053 56.2202 78.0593 56.5467L77.0396 59.782L66.3664 59.7841Z" fill="#FFCAC0"/>
<path d="M18.7726 53.7085C18.7726 53.7085 14.3629 57.9753 11.6496 65.5723C11.6496 65.5723 7.48933 79.2156 7.76051 96.6311H54.247L52.7999 81.8529C54.9943 82.6026 57.1823 85.285 57.1823 85.285L60.5314 87.9082C61.0308 88.2993 61.6061 88.5821 62.2207 88.7387C62.8353 88.8954 63.4758 88.9223 64.1014 88.8179C64.7977 88.7024 65.4576 88.4268 66.0292 88.0128C66.6009 87.5989 67.0686 87.0578 67.3955 86.4323C69.3349 82.7126 73.4544 73.8541 77.0376 59.7853H66.3661L62.0649 70.9C62.0649 70.9 55.1785 61.8117 46.6602 54.1259L18.7726 53.7085Z" fill="#F7F7F7"/>
<path d="M35.397 89.7585C47.4558 80.3888 49.3185 65.1409 49.3185 65.1409L46.6603 60.2197L48.7694 56.067C48.3464 55.6712 47.0929 54.5153 46.6603 54.1259L43.6338 54.0806L40.647 58.0656L42.8029 65.6973C41.4735 73.3291 31.9744 89.1479 31.9744 89.1479V96.632H33.7561L33.8405 92.8497C33.8541 92.2512 34.0008 91.6632 34.27 91.1285C34.5392 90.5938 34.9242 90.1258 35.397 89.7585Z" fill="#A7BAD6"/>
<path d="M26.2093 45.197L36.8696 46.9541C36.8696 46.9541 42.6696 61.0308 36.8696 80.2885L33.5925 80.7091C33.5925 80.7091 24.7125 68.5497 26.2093 45.197Z" fill="#A7B7EA"/>
<path d="M33.1234 87.8391L34.1289 84.4197L22.8689 53.7694L18.7725 53.7085C18.1449 54.3466 17.5582 55.0238 17.016 55.7359L19.5228 59.3447L15.7581 66.1317C15.7581 66.1317 22.4631 82.8776 33.1234 87.8391Z" fill="#A7BAD6"/>
<path d="M33.3317 56.5815C33.6115 56.5858 33.8827 56.6794 34.1056 56.8487C34.3285 57.0181 34.4914 57.2542 34.5705 57.5227L39.2581 73.4156L35.0549 82.3721L29.7764 74.1898L32.0117 57.7192C32.0543 57.4008 32.2122 57.1092 32.4555 56.8995C32.6988 56.6899 33.0105 56.5767 33.3317 56.5815Z" fill="#3C3C4F"/>
<path d="M26.2092 45.197C26.2092 45.197 26.8083 63.1329 33.8707 77.7558C33.8707 77.7558 33.6442 82.4117 31.3901 84.4658C26.4648 78.649 22.5058 72.0787 19.6645 65.0061L22.6375 59.5356L18.7725 53.7085C21.427 51.0297 23.9108 48.187 26.2092 45.197Z" fill="#F7F7F7"/>
<path d="M33.8715 77.7541C33.8715 77.7541 31.8421 80.9959 30.4321 83.6071C31.8668 85.2953 33.7557 87.0656 33.7557 87.0656L35.8962 81.5362C35.1689 80.3115 34.4954 79.0456 33.8715 77.7541Z" fill="#A7BAD6"/>
<path d="M26.2095 39.8235V45.197C26.2095 45.197 27.7836 49.5567 32.9239 52.9411C32.9239 52.9411 35.2851 51.0541 36.8698 46.955V44.9705C32.8509 42.7467 29.1195 40.8367 26.2095 39.8235Z" fill="#FFCAC0"/>
<path d="M36.8696 45.9079V46.9541C37.5081 51.6738 39.5361 70.5235 31.9731 89.1479C31.9731 89.1479 42.617 82.6664 46.1846 65.1847L42.379 59.7141L46.6602 54.1258C46.6602 54.1258 41.4829 48.537 36.8696 45.9079Z" fill="#F7F7F7"/>
<path d="M66.2615 37.0684L63.8147 33.4373L57.1818 37.9069L59.6286 41.538L66.2615 37.0684Z" fill="#497FCE"/>
<path d="M65.6243 39.0294L61.7566 33.2894C61.6322 33.1048 61.5453 32.8976 61.501 32.6794C61.4567 32.4613 61.4557 32.2365 61.4983 32.018C61.5408 31.7995 61.626 31.5915 61.749 31.406C61.8719 31.2204 62.0302 31.0608 62.2149 30.9365L64.5243 29.3803C64.8714 29.3224 65.2021 29.1907 65.4939 28.994C65.7858 28.7973 66.032 28.5403 66.216 28.2403L68.5146 26.6915C69.2017 26.5379 69.8056 26.1309 70.206 25.5518L72.5046 24.0029C73.1948 23.8562 73.8012 23.4476 74.1963 22.8629L76.5054 21.3068C76.69 21.1823 76.8973 21.0955 77.1155 21.0512C77.3337 21.0069 77.5584 21.006 77.7769 21.0486C77.9954 21.0911 78.2034 21.1764 78.3889 21.2993C78.5745 21.4223 78.734 21.5806 78.8584 21.7653L82.7263 27.5053C82.8508 27.6899 82.9376 27.8972 82.9819 28.1153C83.0262 28.3335 83.0271 28.5583 82.9845 28.7768C82.9419 28.9953 82.8567 29.2032 82.7338 29.3888C82.6108 29.5744 82.4524 29.7339 82.2678 29.8582L67.9772 39.4876C67.7926 39.6121 67.5854 39.699 67.3672 39.7434C67.1491 39.7877 66.9243 39.7886 66.7058 39.7461C66.4873 39.7035 66.2793 39.6183 66.0937 39.4954C65.9081 39.3724 65.7486 39.2141 65.6243 39.0294Z" fill="#BDDEFF"/>
<path d="M56.6052 35.666L61.4887 42.9133C61.7203 43.257 61.8059 43.6786 61.7266 44.0854C61.6474 44.4922 61.4098 44.8508 61.0661 45.0824L59.1409 46.3797L52.5109 36.5406L54.436 35.2434C54.7797 35.0118 55.2014 34.9262 55.6081 35.0054C56.0149 35.0847 56.3736 35.3223 56.6052 35.666Z" fill="#7AAEED"/>
<path d="M74.3824 26.7923C74.5336 27.0167 74.7677 27.1718 75.0332 27.2235C75.2987 27.2753 75.5739 27.2194 75.7983 27.0682C76.0226 26.917 76.1777 26.6829 76.2294 26.4174C76.2812 26.1519 76.2253 25.8767 76.0741 25.6523L74.1959 22.8647L72.5042 24.0047L74.3824 26.7923Z" fill="#7AAEED"/>
<path d="M71 30.3824C71.1526 30.6032 71.3861 30.7549 71.6498 30.8047C71.9136 30.8545 72.1863 30.7983 72.4089 30.6483C72.6315 30.4984 72.786 30.2667 72.839 30.0036C72.8919 29.7405 72.839 29.4671 72.6918 29.2427L70.2059 25.5536L68.5144 26.6933L71 30.3824Z" fill="#7AAEED"/>
<path d="M68.0942 31.0294L66.2159 28.2418L64.5242 29.3823L66.4024 32.17C66.5536 32.3943 66.7877 32.5494 67.0532 32.6012C67.3187 32.6529 67.5939 32.5971 67.8183 32.4459C68.0426 32.2947 68.1977 32.0606 68.2495 31.7951C68.3012 31.5295 68.2453 31.2543 68.0942 31.03V31.0294Z" fill="#7AAEED"/>
<path d="M26.2095 39.8235C26.2095 39.8235 30.4424 44.7894 36.8698 44.9706V40.0567L26.2095 33.5088V39.8235Z" fill="#E5837C"/>
<path d="M25.6215 26.0106L25.3589 33.4176C25.3589 33.4176 26.6104 36.3 31.2412 39.4982C38.2206 37.122 44.0309 33.6347 45.558 27.8512C45.5524 25.2138 45.5545 22.3735 45.5739 19.8114L25.6215 13.8338V26.0106Z" fill="#FFCAC0"/>
<path d="M34.5974 19.1267C34.5974 19.1267 41.555 21.462 45.5759 19.8106C45.5759 19.8106 45.5909 17.8306 45.6112 16.6047L25.6215 13.8338L25.5688 16.5535C27.6177 20.18 31.9486 24.0467 34.5974 19.1267Z" fill="#E5837C"/>
<path d="M36.6753 25.3221C37.287 25.3221 37.7829 24.8262 37.7829 24.2145C37.7829 23.6027 37.287 23.1068 36.6753 23.1068C36.0635 23.1068 35.5676 23.6027 35.5676 24.2145C35.5676 24.8262 36.0635 25.3221 36.6753 25.3221Z" fill="#E5837C"/>
<path d="M41.5549 25.3221C42.1667 25.3221 42.6626 24.8262 42.6626 24.2145C42.6626 23.6027 42.1667 23.1068 41.5549 23.1068C40.9432 23.1068 40.4473 23.6027 40.4473 24.2145C40.4473 24.8262 40.9432 25.3221 41.5549 25.3221Z" fill="#E5837C"/>
<path d="M28.4918 17.8079C28.4918 17.8079 29.485 25.5138 24.9888 29.835C24.9888 29.835 19.5229 27.4988 19.5229 20.1373C19.5229 12.7759 24.2835 11.85 24.2835 11.85C24.2835 11.85 24.9012 5.81085 33.0115 5.41438C39.9771 5.0735 48.048 3.81379 50.188 3.46497C50.2602 3.45296 50.3341 3.45612 50.4051 3.47424C50.476 3.49236 50.5424 3.52505 50.6 3.57022C50.6577 3.6154 50.7052 3.67207 50.7398 3.73664C50.7743 3.80121 50.795 3.87225 50.8006 3.94526C50.9024 5.2785 50.8077 8.63556 47.6459 10.6159L50.7341 10.2567C50.8182 10.2468 50.9035 10.2571 50.9828 10.2869C51.062 10.3167 51.133 10.3651 51.1897 10.428C51.2464 10.4909 51.2872 10.5665 51.3086 10.6484C51.3301 10.7303 51.3316 10.8162 51.313 10.8988C50.7385 13.5432 47.6785 22.2097 32.7977 15.975C32.8985 16.6254 32.9171 17.286 32.853 17.9411C32.8301 18.2026 32.7488 18.4555 32.615 18.6813C32.4813 18.9071 32.2985 19.0999 32.0802 19.2456C31.8619 19.3912 31.6137 19.486 31.3539 19.5228C31.0941 19.5597 30.8293 19.5377 30.5791 19.4585C29.6976 19.1959 28.9505 18.6051 28.4918 17.8079Z" fill="#5C5C6D"/>
<path d="M34.432 41.4288C34.432 41.4288 39.2041 43.7891 42.9223 40.9909C43.7707 40.3353 44.4542 39.4905 44.9183 38.524C45.3823 37.5574 45.6142 36.4958 45.5953 35.4238C45.5823 33.6591 45.5659 30.8894 45.5588 27.8503C45.199 28.1507 44.8169 28.4233 44.4159 28.6659C44.041 28.8883 43.6121 29.0031 43.1762 28.9977C42.7404 28.9923 42.3145 28.8667 41.9453 28.635C41.4021 28.2802 40.7704 28.0848 40.1217 28.0709C39.3645 28.1607 38.6361 28.4149 37.9873 28.8156C36.7371 29.6235 35.255 29.9957 33.7715 29.8744C31.7779 29.6829 30.2673 29.3782 30.2673 29.3782C32.5888 33.7115 31.2415 39.4959 31.2415 39.4959C32.2667 40.2013 33.332 40.8467 34.432 41.4288Z" fill="#BDF2DC"/>
<path d="M27.1021 31.3715C27.0673 32.2025 26.7256 32.9911 26.143 33.5847C25.5605 34.1783 24.7785 34.5349 23.9483 34.5853C23.2804 34.626 22.6224 34.4083 22.1106 33.9774C20.1224 32.303 20.75 28.3262 20.75 28.3262C20.75 28.3262 20.9594 25.3959 23.6803 25.4659C24.8465 25.4953 25.6603 26.2432 26.2097 27.0877C26.8961 28.1702 27.2211 29.4427 27.138 30.7218L27.1021 31.3715Z" fill="#FFCAC0"/>
<path d="M24.5165 28.1764C24.1701 27.7172 23.6572 27.4124 23.0882 27.3276C22.9679 27.3169 22.8481 27.3542 22.7551 27.4313C22.662 27.5084 22.6031 27.6191 22.5912 27.7394C22.5791 27.8603 22.6148 27.9812 22.6908 28.076C22.7668 28.1709 22.877 28.2322 22.9977 28.2467C22.9977 28.2467 24.0397 28.3205 24.1862 29.7297C24.1862 29.7297 23.575 29.5629 23.4638 30.4723C23.3527 31.3817 23.6471 31.9917 24.6788 32.0676C24.7903 32.0675 24.8979 32.027 24.9818 31.9537C25.0657 31.8804 25.1202 31.7792 25.1353 31.6688C25.3453 30.1299 25.1371 28.9549 24.5165 28.1764Z" fill="#E5837C"/>
<path d="M27.3352 83.7803C27.3352 83.7803 29.4093 88.6153 29.1052 96.6332H32.8002V87.0074L27.3352 83.7803Z" fill="#A7BAD6"/>
<path d="M52.2756 76.4947L52.8 81.8529L57.1824 85.285C56.4882 82.0564 55.3395 78.9427 53.7706 76.0368C53.6826 75.8753 53.5416 75.7491 53.3713 75.6797C53.2011 75.6102 53.012 75.6017 52.8362 75.6555C52.6604 75.7094 52.5086 75.8223 52.4064 75.9752C52.3043 76.1281 52.2581 76.3116 52.2756 76.4947Z" fill="#A7BAD6"/>
<path d="M7.75928 97.6485H7.77545C7.90937 97.6464 8.04156 97.618 8.16449 97.5648C8.28741 97.5117 8.39866 97.4348 8.49188 97.3386C8.5851 97.2425 8.65846 97.1289 8.70777 97.0044C8.75708 96.8798 8.78138 96.7468 8.77928 96.6129C8.51869 79.8879 12.4337 66.5044 12.6175 65.8873C13.9833 62.0465 16.0236 58.4803 18.6425 55.3564L21.4466 59.5844L18.7669 64.5156C18.6957 64.6465 18.6541 64.7914 18.645 64.9401C18.6358 65.0889 18.6594 65.2378 18.714 65.3764C21.4217 72.1332 25.1406 78.4391 29.7434 84.0782C29.9143 84.288 30.1615 84.4212 30.4306 84.4487C30.6997 84.4762 30.9688 84.3957 31.1785 84.2248C31.3883 84.054 31.5216 83.8068 31.5491 83.5376C31.5766 83.2685 31.496 82.9994 31.3252 82.7897C26.956 77.4363 23.4047 71.4647 20.7872 65.0697L23.5319 60.0194C23.6204 59.8566 23.6629 59.6727 23.6548 59.4876C23.6467 59.3024 23.5884 59.123 23.486 58.9685L20.0793 53.8317C21.0755 52.8091 23.1846 50.5844 25.3566 47.9258C25.8346 53.8376 27.6055 68.255 33.9069 80.0764C33.1345 83.0248 32.1744 85.9209 31.0325 88.7467V88.7485L31.0278 88.7606C31.0061 88.8148 30.9891 88.8708 30.9769 88.9279C30.9737 88.9435 30.9725 88.9597 30.9699 88.9753C30.9619 89.0222 30.9571 89.0697 30.9555 89.1173C30.9555 89.1264 30.9528 89.135 30.9528 89.1444V96.4214C30.9528 96.692 31.0603 96.9514 31.2516 97.1427C31.4428 97.334 31.7023 97.4414 31.9728 97.4414C32.2433 97.4414 32.5028 97.334 32.6941 97.1427C32.8853 96.9514 32.9928 96.692 32.9928 96.4214V89.6906C35.1802 88.165 43.9608 81.1773 47.1837 65.385C47.2112 65.2498 47.2111 65.1104 47.1832 64.9753C47.1553 64.8402 47.1004 64.7121 47.0216 64.5988L43.6413 59.7397L46.794 55.6247C54.7646 62.9911 61.1863 71.4241 61.2525 71.5114C61.3622 71.6563 61.5085 71.7692 61.6765 71.8386C61.8444 71.908 62.0278 71.9312 62.2077 71.9059C62.3876 71.8806 62.5575 71.8078 62.6998 71.6948C62.8422 71.5819 62.9517 71.433 63.0172 71.2635L67.066 60.8006H75.7216C72.2966 73.8361 68.4922 82.12 66.4925 85.9559C66.2507 86.4165 65.9105 86.8184 65.4961 87.133C65.0817 87.4476 64.6033 87.6672 64.0946 87.7764C63.5859 87.8856 63.0594 87.8816 62.5524 87.7648C62.0454 87.648 61.5703 87.4211 61.1608 87.1003L53.7734 81.3144L52.8478 71.86C52.8385 71.7238 52.8019 71.591 52.7403 71.4692C52.6787 71.3474 52.5933 71.2393 52.4891 71.1511C52.385 71.063 52.2642 70.9966 52.1339 70.956C52.0036 70.9153 51.8665 70.9013 51.7307 70.9146C51.5949 70.9279 51.4632 70.9683 51.3433 71.0334C51.2234 71.0986 51.1177 71.1871 51.0327 71.2938C50.9476 71.4005 50.8848 71.5232 50.848 71.6546C50.8112 71.786 50.8011 71.9234 50.8184 72.0588L51.7866 81.9476L53.2337 96.7279C53.2584 96.9798 53.3758 97.2135 53.5631 97.3836C53.7505 97.5538 53.9944 97.6482 54.2475 97.6485C54.2811 97.6486 54.3147 97.6469 54.3481 97.6435C54.6173 97.6172 54.8651 97.485 55.0368 97.276C55.2086 97.067 55.2903 96.7983 55.264 96.5291L54.0493 84.1208L59.9037 88.7062C60.5491 89.2116 61.2977 89.5689 62.0965 89.7528C62.8954 89.9367 63.7249 89.9426 64.5263 89.7702C65.3277 89.5977 66.0814 89.2512 66.7339 88.755C67.3864 88.2588 67.9218 87.6252 68.3022 86.8991C70.4058 82.8641 74.4643 74.0141 78.0208 60.0617L78.8552 57.4147C80.5186 57.0379 82.101 56.3661 83.5275 55.4311C84.2747 54.9368 84.8053 54.1761 85.0112 53.3042C85.2171 52.4322 85.0828 51.5146 84.6357 50.7382C84.1886 49.9618 83.4623 49.3851 82.6048 49.1255C81.7473 48.8659 80.8231 48.943 80.0205 49.3411C73.991 52.3623 70.131 51.1711 68.3663 50.1917C67.6902 49.8194 66.9145 49.6678 66.1479 49.7581C65.3813 49.8485 64.6621 50.1762 64.091 50.6956L63.019 51.6638C62.8355 51.8295 62.7185 52.0561 62.6896 52.3017C62.6608 52.5472 62.7221 52.7948 62.8622 52.9985C63.6799 54.1893 64.5645 55.3328 65.5116 56.4235C65.699 56.6367 65.8282 56.8947 65.8868 57.1724C65.9455 57.4502 65.9315 57.7383 65.8463 58.0091L65.4013 59.4441L61.7593 68.8559C59.459 65.9809 53.864 59.2561 47.3769 53.3964C46.934 52.9214 42.3096 48.0141 37.8875 45.3226V43.352C38.131 43.3703 38.3796 43.3814 38.6349 43.3814C39.6892 43.4081 40.7379 43.2202 41.7174 42.8293C42.6969 42.4383 43.5867 41.8524 44.3329 41.1071C45.0791 40.3618 45.666 39.4726 46.0582 38.4936C46.4503 37.5146 46.6394 36.4661 46.614 35.4117C46.601 33.6338 46.5846 30.8773 46.5772 27.8435C46.5725 25.4988 46.574 23.3729 46.5828 21.5247C46.5834 21.3907 46.5577 21.258 46.507 21.134C46.4563 21.01 46.3817 20.8972 46.2874 20.802C46.1931 20.7069 46.081 20.6312 45.9575 20.5794C45.834 20.5276 45.7015 20.5006 45.5675 20.5H45.5625C45.2929 20.5 45.0342 20.6069 44.8431 20.7972C44.652 20.9874 44.5441 21.2456 44.5428 21.5153C44.5346 23.2356 44.5328 25.1985 44.5363 27.3509C44.3352 27.5 44.1175 27.647 43.8822 27.792C43.6672 27.917 43.4219 27.9801 43.1733 27.9745C42.9247 27.9688 42.6825 27.8946 42.4734 27.76C41.7672 27.3011 40.9444 27.054 40.1022 27.0476C40.0825 27.0476 40.0625 27.0476 40.0434 27.0503C39.1217 27.1513 38.2345 27.4577 37.4469 27.947C36.3876 28.6372 35.1293 28.9568 33.869 28.8559C31.9572 28.672 30.4831 28.3779 30.4687 28.375C30.4613 28.375 30.454 28.375 30.4469 28.3723C30.4399 28.3697 30.4381 28.3694 30.4334 28.3685C29.5808 28.2105 28.7637 27.8997 28.0216 27.4511C28.0828 27.3558 28.1277 27.2509 28.1546 27.1409C29.0348 24.914 29.5238 22.5518 29.5999 20.1585C29.8158 20.2623 30.0386 20.3513 30.2666 20.425C30.6593 20.5527 31.0759 20.5899 31.485 20.5339C31.8942 20.4779 32.2854 20.33 32.6293 20.1014C32.9788 19.8721 33.272 19.5667 33.4867 19.208C33.7015 18.8493 33.8323 18.4467 33.8693 18.0303C33.886 17.8485 33.8966 17.6729 33.9025 17.5056C39.741 19.682 44.3975 19.7673 47.7581 17.7529C51.9378 15.2473 52.4346 10.4688 52.4525 10.2667C52.4668 10.1154 52.447 9.96288 52.3948 9.8202C52.3425 9.67751 52.259 9.54831 52.1504 9.44204C52.0417 9.33576 51.9108 9.2551 51.767 9.20594C51.6232 9.15678 51.4702 9.14037 51.3193 9.15791L50.5116 9.25173C52.3502 6.50762 51.7663 3.34556 51.7328 3.17468C51.6812 2.9134 51.5295 2.68263 51.3102 2.53154C51.0909 2.38045 50.8212 2.321 50.5587 2.36585C50.4634 2.38232 40.9143 4.00321 32.9605 4.39232C25.7731 4.74379 23.8757 9.29409 23.4093 11.0538C21.9157 11.6314 18.5016 13.6606 18.5016 20.1338C18.4603 22.406 19.0378 24.6467 20.1722 26.6159C19.9358 27.1166 19.7879 27.6546 19.7352 28.2059C19.641 28.8359 19.1516 32.8167 21.4525 34.7544C22.1163 35.3125 22.9583 35.614 23.8255 35.6044C23.879 35.6044 23.9328 35.6044 23.9869 35.6011C24.3964 35.5847 24.8012 35.5081 25.1884 35.3738V44.85C22.9745 47.7002 20.592 50.4153 18.0537 52.9809C17.7875 53.24 13.4234 57.5691 10.6887 65.2256C10.6834 65.2406 10.6781 65.255 10.6737 65.2711C10.6316 65.4091 6.46957 79.2685 6.74045 96.6441C6.74454 96.9117 6.85365 97.167 7.04424 97.3549C7.23483 97.5428 7.49164 97.6482 7.75928 97.6485ZM65.0587 52.5714L65.4596 52.2094C65.715 51.9753 66.0373 51.8269 66.3812 51.785C66.7252 51.7431 67.0737 51.8099 67.3778 51.9759C69.4955 53.15 74.069 54.6056 80.9366 51.165C81.2752 51.0027 81.6628 50.9751 82.0209 51.0878C82.379 51.2005 82.681 51.445 82.8656 51.7719C83.0503 52.0987 83.1039 52.4836 83.0156 52.8485C82.9272 53.2134 82.7036 53.5311 82.3899 53.7373C81.0114 54.631 79.4711 55.2457 77.856 55.5464C77.6775 55.5827 77.512 55.6662 77.3766 55.7881C77.2413 55.91 77.141 56.0659 77.0863 56.2397L76.2922 58.7606H67.749L67.7949 58.6135C67.9844 58.0103 68.0153 57.3685 67.8846 56.75C67.7539 56.1314 67.466 55.557 67.0487 55.082C66.5555 54.5167 65.8437 53.6579 65.0587 52.5714ZM27.5546 49.4058C28.9121 51.1145 30.5352 52.5941 32.3619 53.7882C32.5418 53.9065 32.7545 53.9649 32.9695 53.9551C33.1846 53.9452 33.391 53.8675 33.5593 53.7332C34.6717 52.7478 35.6171 51.5887 36.3587 50.3008C37.1034 59.2404 36.5272 68.241 34.6487 77.0126C29.916 67.0517 28.1746 55.4897 27.5546 49.4058ZM45.3175 54.1953L41.5681 59.0903C41.4366 59.262 41.363 59.471 41.3581 59.6872C41.3531 59.9034 41.417 60.1156 41.5405 60.2932L45.0952 65.4029C42.7557 76.3817 37.5152 82.8567 34.2493 85.9738C39.8907 69.6103 38.8263 53.6729 38.1737 47.9491C41.1581 50.0467 44.0943 52.9411 45.3175 54.1953ZM35.8487 46.7576C35.1538 48.5568 34.1261 50.2088 32.8193 51.6273C29.0584 48.9164 27.5357 45.7156 27.2281 44.9956V37.5488C28.2918 38.5723 29.4401 39.504 30.6607 40.3341C30.6675 40.3388 30.6746 40.3417 30.6813 40.3461C31.7329 41.068 32.8248 41.7291 33.9519 42.3261L33.9784 42.3397C34.5798 42.6192 35.206 42.8422 35.8487 43.0059V46.7576ZM42.3078 40.1723C41.7547 40.588 41.1292 40.8971 40.4631 41.0841C40.9703 39.6613 41.2792 38.1755 41.381 36.6685C42.4867 36.4504 43.5591 36.0884 44.5707 35.5917C44.5639 36.4766 44.3568 37.3484 43.9649 38.1417C43.5729 38.935 43.0064 39.6293 42.3078 40.1723ZM44.5431 29.7426C44.5478 31.0211 44.554 32.2103 44.5602 33.2606C43.6024 33.8627 42.5518 34.3027 41.4507 34.5626C41.4235 32.7757 41.2365 30.9948 40.8919 29.2411C41.0733 29.3136 41.2482 29.4011 41.4149 29.5029C41.8787 29.791 42.4051 29.9631 42.9496 30.0049C43.494 30.0466 44.0405 29.9566 44.5428 29.7426H44.5431ZM33.674 30.8864C35.3809 31.0321 37.0879 30.6068 38.5269 29.6773C38.6375 29.6082 38.7484 29.5491 38.8581 29.4947C39.2746 31.5741 40.1419 37.2829 38.1455 41.3138C37.0226 41.2379 35.9214 40.9676 34.891 40.515C34.0087 40.0444 33.1634 39.5444 32.3702 39.0244C32.523 38.1001 32.6138 37.1667 32.6419 36.2303C34.0017 36.5945 35.3929 36.829 36.7969 36.9309C36.821 36.9326 36.8452 36.9335 36.8693 36.9335C37.1332 36.9327 37.3865 36.8297 37.576 36.646C37.7655 36.4624 37.8765 36.2124 37.8856 35.9487C37.8947 35.6849 37.8012 35.4279 37.6248 35.2317C37.4484 35.0354 37.2028 34.9151 36.9396 34.8961C35.4644 34.7881 34.0056 34.5184 32.5893 34.092C32.5035 32.9332 32.2811 31.7886 31.9266 30.682C32.4378 30.7517 33.0293 30.8235 33.6737 30.8864H33.674ZM24.4769 12.8479C24.6901 12.805 24.8843 12.6956 25.0315 12.5355C25.1787 12.3754 25.2714 12.1728 25.2963 11.9567C25.3207 11.7456 25.9755 6.77615 33.061 6.42968C39.5422 6.11262 47.0452 4.99379 49.8093 4.55497C49.8166 5.89291 49.461 8.27173 47.1034 9.74791C46.9072 9.87079 46.7586 10.0568 46.6821 10.2753C46.6056 10.4938 46.6057 10.7318 46.6824 10.9502C46.759 11.1687 46.9077 11.3545 47.104 11.4772C47.3003 11.6 47.5326 11.6523 47.7625 11.6256L50.1449 11.3485C49.7513 12.6764 48.8234 14.7353 46.7081 16.0038C43.6528 17.8361 39.1049 17.5082 33.1913 15.0309C33.0217 14.9603 32.8361 14.9368 32.6542 14.9629C32.4722 14.9889 32.3007 15.0636 32.1577 15.179C32.0147 15.2944 31.9054 15.4462 31.8414 15.6185C31.7775 15.7908 31.7612 15.9771 31.7943 16.1579C31.8767 16.7166 31.891 17.2832 31.8366 17.8453C31.8267 17.9566 31.7916 18.0643 31.7342 18.1602C31.6767 18.2561 31.5983 18.3378 31.5049 18.3991C31.4164 18.459 31.3154 18.4979 31.2096 18.5126C31.1038 18.5274 30.996 18.5178 30.8946 18.4844C30.2559 18.3012 29.7128 17.878 29.379 17.3035C29.2628 17.0974 29.0786 16.9382 28.858 16.8529C28.6373 16.7677 28.3939 16.7618 28.1693 16.8363C27.9448 16.9107 27.7531 17.0609 27.6272 17.2612C27.5012 17.4614 27.4487 17.6991 27.4787 17.9338C27.4819 17.9588 27.964 22.7388 26.5766 25.89C26.2295 25.4574 25.7935 25.1044 25.2983 24.8547C24.803 24.605 24.26 24.4645 23.7057 24.4426C22.9667 24.4065 22.2334 24.5895 21.5981 24.9688C20.8768 23.4605 20.5154 21.8054 20.5422 20.1338C20.5416 13.7744 24.3263 12.8823 24.4769 12.8479ZM23.9075 33.5623C23.4937 33.5926 23.0843 33.4604 22.7663 33.1938C21.5049 32.1314 21.6096 29.4309 21.7563 28.4817C21.7607 28.4523 21.764 28.4244 21.7663 28.3956C21.7805 28.195 21.9557 26.427 23.6528 26.482C23.891 26.4882 24.6157 26.5067 25.3531 27.6403C25.356 27.645 25.3602 27.6485 25.3631 27.6529C26.4219 29.3317 28.5602 30.0273 29.5746 30.2706C30.766 32.8206 30.6896 35.8688 30.4919 37.6809C29.154 36.6919 27.9739 35.5056 26.9919 34.1626C27.1914 33.9385 27.3679 33.695 27.5187 33.4356C27.6545 33.2015 27.6918 32.9232 27.6223 32.6617C27.5529 32.4002 27.3824 32.177 27.1484 32.0411C26.9144 31.9053 26.636 31.8681 26.3745 31.9375C26.113 32.0069 25.8898 32.1774 25.754 32.4114C25.5689 32.744 25.3023 33.024 24.9794 33.2253C24.6564 33.4266 24.2876 33.5426 23.9075 33.5623Z" fill="#3C3C4F"/>
<path d="M51.508 36.3423C51.4564 36.6077 51.5123 36.8828 51.6633 37.107L58.2942 46.9464C58.3691 47.0575 58.4651 47.1528 58.5767 47.2268C58.6884 47.3007 58.8135 47.352 58.945 47.3776C59.0765 47.4032 59.2117 47.4027 59.343 47.3761C59.4743 47.3494 59.599 47.2972 59.7101 47.2223L61.6354 45.925C62.2033 45.5421 62.5959 44.9494 62.7269 44.2771C62.8579 43.6048 62.7165 42.908 62.3339 42.34L61.6869 41.3779L64.6392 39.3885L64.7798 39.597C64.9782 39.8933 65.2335 40.1472 65.5307 40.3441C65.828 40.541 66.1614 40.6769 66.5116 40.7441C66.6845 40.7779 66.8603 40.7949 67.0366 40.795C67.5755 40.7948 68.102 40.633 68.548 40.3306L82.8383 30.7011C83.3495 30.3555 83.7279 29.8462 83.9113 29.257C84.0946 28.6678 84.072 28.0337 83.8471 27.4591L86.0192 25.9956C86.5882 25.6112 86.9816 25.0169 87.1129 24.3429C87.2443 23.669 87.1029 22.9704 86.7198 22.4006L86.4707 22.0356L92.8236 17.7558C93.048 17.6047 93.203 17.3706 93.2548 17.105C93.3065 16.8395 93.2507 16.5643 93.0995 16.34C92.9483 16.1156 92.7142 15.9605 92.4487 15.9088C92.1832 15.857 91.908 15.9129 91.6836 16.0641L85.3307 20.3441L85.0845 19.9785C84.7002 19.4095 84.1059 19.0161 83.432 18.8848C82.758 18.7536 82.0595 18.895 81.4898 19.2782L79.3177 20.7417C78.8701 20.3164 78.2907 20.0565 77.6753 20.0052C77.06 19.9538 76.4455 20.1141 75.9336 20.4594L61.6439 30.0882C61.0473 30.4909 60.6348 31.1138 60.497 31.8203C60.3591 32.5267 60.5072 33.259 60.9086 33.8564L61.0492 34.0647L58.0969 36.0541L57.4498 35.092C57.2603 34.8107 57.0173 34.5695 56.7346 34.3821C56.4518 34.1947 56.135 34.0649 55.8021 34C55.4691 33.9351 55.1267 33.9364 54.7943 34.0039C54.4619 34.0714 54.1461 34.2036 53.8648 34.3932L51.9395 35.6906C51.8283 35.7655 51.7329 35.8616 51.6589 35.9735C51.5848 36.0853 51.5336 36.2107 51.508 36.3423ZM82.6301 20.9706C82.7508 20.8889 82.899 20.8586 83.0421 20.8862C83.1852 20.9137 83.3115 20.997 83.3933 21.1176L85.0257 23.5403C85.107 23.6612 85.1371 23.8096 85.1091 23.9527C85.0812 24.0958 84.9977 24.2219 84.8768 24.3035L82.7592 25.73L80.5124 22.3956L82.6301 20.9706ZM62.7836 31.7811L77.0745 22.1517C77.2229 22.0518 77.4049 22.0149 77.5806 22.0491C77.7562 22.0834 77.911 22.186 78.011 22.3344L81.8786 28.0741C81.9781 28.2226 82.0148 28.4045 81.9806 28.5799C81.9465 28.7554 81.8442 28.9102 81.6963 29.0106L67.4054 38.6403C67.3319 38.6897 67.2494 38.7243 67.1626 38.7419C67.0758 38.7595 66.9864 38.7598 66.8995 38.7428C66.8125 38.7259 66.7298 38.692 66.656 38.643C66.5821 38.5941 66.5187 38.5311 66.4692 38.4576L62.6016 32.7179C62.5017 32.5694 62.4649 32.3873 62.499 32.2116C62.5331 32.0359 62.6355 31.8809 62.7836 31.7806V31.7811ZM62.1901 35.7579L63.4969 37.6973L60.5445 39.6867L59.2377 37.7473L62.1901 35.7579ZM55.0045 36.0864C55.1239 36.0061 55.2703 35.9765 55.4116 36.0041C55.5528 36.0317 55.6773 36.1142 55.7577 36.2335L60.6401 43.4811C60.6799 43.5402 60.7077 43.6066 60.7218 43.6764C60.736 43.7462 60.7362 43.8182 60.7225 43.8881C60.7089 43.958 60.6816 44.0245 60.6422 44.0839C60.6028 44.1433 60.5521 44.1943 60.493 44.2341L59.4136 44.9614L53.9236 36.8144L55.0045 36.0864Z" fill="#3C3C4F"/>
</svg>
