<svg width="12" height="12" viewBox="0 0 12 12" fill="none" xmlns="http://www.w3.org/2000/svg">
<path d="M11 6.83333H6.83329V11C6.83329 11.4583 6.45829 11.8333 5.99996 11.8333C5.54163 11.8333 5.16663 11.4583 5.16663 11V6.83333H0.999959C0.541626 6.83333 0.166626 6.45833 0.166626 6C0.166626 5.54166 0.541626 5.16666 0.999959 5.16666H5.16663V0.999997C5.16663 0.541664 5.54163 0.166664 5.99996 0.166664C6.45829 0.166664 6.83329 0.541664 6.83329 0.999997V5.16666H11C11.4583 5.16666 11.8333 5.54166 11.8333 6C11.8333 6.45833 11.4583 6.83333 11 6.83333Z" fill="white"/>
</svg>
