<svg width="16" height="16" viewBox="0 0 16 16" fill="none" xmlns="http://www.w3.org/2000/svg">
<path d="M8 0.875C3.86 0.875 0.5 4.235 0.5 8.375C0.5 12.515 3.86 15.875 8 15.875C12.14 15.875 15.5 12.515 15.5 8.375C15.5 4.235 12.14 0.875 8 0.875ZM8 3.125C9.245 3.125 10.25 4.13 10.25 5.375C10.25 6.62 9.245 7.625 8 7.625C6.755 7.625 5.75 6.62 5.75 5.375C5.75 4.13 6.755 3.125 8 3.125ZM8 13.775C6.125 13.775 4.4675 12.815 3.5 11.36C3.5225 9.8675 6.5 9.05 8 9.05C9.4925 9.05 12.4775 9.8675 12.5 11.36C11.5325 12.815 9.875 13.775 8 13.775Z" fill="white"/>
</svg>
