<svg width="210" height="249" viewBox="0 0 210 249" fill="none" xmlns="http://www.w3.org/2000/svg">
<g clip-path="url(#clip0_852_1801)">
<rect width="210" height="249" fill="white"/>
<path d="M150.331 64.8168C150.207 64.9798 149.213 64.892 148.017 64.7183C145.653 64.3749 145.331 64.783 143.564 66.3823C141.004 68.6989 142.46 82.8289 141.202 85.8904L140.795 86.1884C141.602 86.0352 142.393 85.8148 143.162 85.5295C143.596 84.166 144.032 82.7982 144.47 81.4359C144.884 82.4958 145.144 83.609 145.243 84.7419C145.851 84.5032 146.456 83.9196 148.999 83.1368C150.279 82.2727 159.541 81.4038 160.732 81.0236C163.754 70.7933 158.884 66.6562 150.331 64.8168Z" fill="#2F2E41"/>
<path d="M81.3349 204.37C77.1563 200.082 71.101 197.623 64.7216 197.623L64.4755 197.624C60.2735 197.625 56.1465 196.516 52.5166 194.41L52.1389 194.191L52.4431 193.879C54.0902 192.184 55.4654 190.247 56.5208 188.135C55.7713 188.831 54.8773 189.354 53.9022 189.667C52.9271 189.98 51.8946 190.077 50.8779 189.949C49.8045 189.822 48.7741 189.454 47.8638 188.874C46.9536 188.294 46.1871 187.517 45.622 186.6C43.3924 183 40.7346 177.893 40.7346 174.002C40.738 170.713 41.4301 167.461 42.7667 164.453C44.1033 161.446 46.0551 158.748 48.4976 156.532C50.044 155.145 51.2791 153.449 52.1225 151.555C52.9659 149.661 53.3986 147.611 53.3924 145.539L53.3912 145.244C53.3908 142.517 53.7258 139.8 54.3887 137.153L54.456 136.886L54.7324 136.896C56.5145 136.956 58.2975 136.807 60.0447 136.453C58.4058 136.253 56.8026 135.829 55.2804 135.192L54.9831 135.072L55.084 134.769C62.0391 130.485 77.7386 132.704 86.851 111.96C94.24 95.1396 120.311 126.891 120.311 145.245C120.311 147.117 118.448 149.592 119.842 150.83C134.917 164.21 124.516 172.802 121.236 181.448C120.458 183.499 122.145 185.751 122.145 187.971C122.145 188.347 122.136 188.736 122.117 189.126L122.088 189.726L121.585 189.393C120.591 188.745 119.669 187.993 118.836 187.149C119.7 189.129 120.108 191.276 120.028 193.432C119.948 195.589 119.384 197.7 118.376 199.611C116.796 202.578 115.268 204.702 113.833 205.923C109.238 209.835 103.315 211.854 97.2741 211.565C91.2334 211.276 85.5317 208.702 81.3349 204.37H81.3349Z" fill="#7BD9E8"/>
<path d="M106.572 249C106.675 249 106.774 248.963 106.852 248.896C106.929 248.829 106.98 248.736 106.994 248.635C107.012 248.508 108.789 235.759 107.193 218.814C105.72 203.165 100.987 180.625 86.8106 162.114C86.7766 162.069 86.7342 162.032 86.6857 162.004C86.6372 161.976 86.5837 161.957 86.5281 161.95C86.4725 161.942 86.4159 161.946 86.3617 161.96C86.3074 161.974 86.2565 161.999 86.2119 162.033C86.1672 162.067 86.1298 162.109 86.1016 162.157C86.0734 162.206 86.055 162.259 86.0475 162.314C86.04 162.37 86.0436 162.426 86.058 162.48C86.0724 162.534 86.0973 162.584 86.1314 162.629C100.186 180.981 104.88 203.355 106.343 218.893C107.93 235.739 106.167 248.389 106.149 248.515C106.14 248.576 106.145 248.637 106.162 248.695C106.18 248.754 106.209 248.808 106.249 248.854C106.29 248.9 106.339 248.936 106.395 248.962C106.45 248.987 106.511 249 106.572 249V249Z" fill="#3F3D56"/>
<path d="M95.003 188.225C95.0932 188.225 95.1811 188.197 95.2541 188.144C95.3271 188.092 95.3814 188.017 95.4094 187.932C95.4373 187.847 95.4373 187.755 95.4095 187.669C95.3816 187.584 95.3273 187.51 95.2544 187.457C91.2149 184.736 86.851 182.526 82.2633 180.877C75.0959 178.266 64.1968 175.899 52.9764 179.452C52.9228 179.469 52.8731 179.496 52.8302 179.532C52.7872 179.568 52.7518 179.612 52.7259 179.662C52.7001 179.711 52.6843 179.766 52.6795 179.821C52.6748 179.877 52.681 179.933 52.6981 179.986C52.7151 180.039 52.7425 180.089 52.7787 180.132C52.815 180.174 52.8593 180.209 52.9092 180.235C52.9591 180.261 53.0136 180.276 53.0696 180.281C53.1255 180.285 53.1818 180.279 53.2353 180.262C64.2258 176.782 74.9274 179.11 81.9697 181.675C86.4837 183.296 90.7775 185.469 94.7524 188.144C94.8252 188.197 94.9129 188.225 95.003 188.225Z" fill="#3F3D56"/>
<path d="M114.544 139.801C114.551 139.711 114.529 139.622 114.481 139.546C114.434 139.47 114.363 139.41 114.279 139.376C114.196 139.343 114.104 139.336 114.016 139.357C113.929 139.379 113.85 139.427 113.792 139.496C110.774 143.309 108.244 147.48 106.26 151.914C103.127 158.839 99.9695 169.485 102.723 180.875C102.736 180.93 102.76 180.981 102.793 181.026C102.826 181.071 102.867 181.11 102.915 181.139C102.963 181.168 103.016 181.187 103.072 181.196C103.127 181.205 103.184 181.203 103.238 181.19C103.293 181.177 103.344 181.153 103.39 181.12C103.435 181.087 103.473 181.046 103.503 180.998C103.532 180.951 103.551 180.898 103.56 180.842C103.569 180.787 103.567 180.731 103.553 180.677C100.856 169.519 103.96 159.067 107.039 152.263C108.989 147.9 111.477 143.796 114.445 140.044C114.503 139.975 114.538 139.89 114.544 139.801Z" fill="#3F3D56"/>
<path d="M196.898 248.55H162.909L162.763 248.287C162.329 247.502 161.909 246.671 161.517 245.818C158.016 238.36 156.536 229.831 155.23 222.306L154.247 216.633C154.128 215.946 154.218 215.24 154.505 214.604C154.792 213.968 155.263 213.432 155.858 213.064C156.453 212.696 157.145 212.513 157.845 212.538C158.545 212.564 159.222 212.797 159.788 213.207C164.954 216.947 170.121 220.683 175.29 224.415C177.248 225.832 179.483 227.472 181.624 229.245C181.83 228.247 182.046 227.245 182.262 226.258C182.411 225.577 182.761 224.955 183.268 224.472C183.774 223.99 184.413 223.669 185.104 223.55C185.795 223.431 186.506 223.52 187.145 223.805C187.785 224.091 188.325 224.559 188.695 225.152L192.672 231.509C195.572 236.151 198.132 240.726 197.611 245.659C197.613 245.719 197.609 245.78 197.597 245.839C197.493 246.649 197.299 247.446 197.02 248.214L196.898 248.55Z" fill="#F0F0F0"/>
<path d="M181.063 115.601L174.503 91.444C174.222 90.4214 173.549 89.5497 172.627 89.017C171.706 88.4843 170.611 88.3334 169.579 88.5967C169.045 88.7329 168.545 88.9759 168.108 89.3109C167.672 89.6458 167.309 90.0657 167.041 90.5449C166.772 91.0242 166.605 91.5527 166.549 92.0983C166.493 92.6439 166.549 93.1951 166.714 93.7184L174.301 118.603L178.271 133.918C177.693 134.357 177.265 134.963 177.044 135.652C176.824 136.342 176.823 137.083 177.04 137.773C177.258 138.464 177.684 139.071 178.261 139.512C178.837 139.954 179.536 140.208 180.263 140.24C180.989 140.272 181.708 140.081 182.322 139.693C182.936 139.304 183.415 138.737 183.693 138.069C183.972 137.4 184.037 136.662 183.879 135.956C183.722 135.249 183.349 134.608 182.813 134.119L181.063 115.601Z" fill="#FFCBA5"/>
<path d="M125.865 110.398L145.796 95.1368C146.638 94.4878 147.191 93.5352 147.333 92.4846C147.476 91.434 147.198 90.3697 146.559 89.5213C146.229 89.0824 145.812 88.7151 145.334 88.4418C144.856 88.1685 144.327 87.9948 143.78 87.9315C143.232 87.8681 142.677 87.9164 142.149 88.0733C141.621 88.2302 141.13 88.4925 140.708 88.8442L120.493 105.328L107.786 114.83C107.157 114.466 106.431 114.303 105.706 114.365C104.981 114.426 104.293 114.707 103.734 115.171C103.176 115.635 102.775 116.259 102.585 116.958C102.396 117.656 102.427 118.396 102.674 119.077C102.922 119.757 103.374 120.345 103.97 120.761C104.565 121.177 105.275 121.4 106.002 121.401C106.729 121.402 107.439 121.18 108.035 120.765C108.631 120.35 109.085 119.763 109.334 119.083L125.865 110.398Z" fill="#FFCBA5"/>
<path d="M142.11 113.906L141.231 133.428L168.816 127.463C166.468 119.619 164.871 118.281 166.636 112.822L142.11 113.906Z" fill="#FFCBA5"/>
<path d="M159.071 78.1174H149.879L145.932 84.8377L144.051 84.7344C143.132 84.6839 142.211 84.8205 141.346 85.136C140.481 85.4515 139.69 85.9391 139.021 86.5692C138.351 87.1992 137.818 87.9584 137.454 88.8004C137.09 89.6423 136.902 90.5494 136.902 91.466L139.219 95.0397C139.219 95.0397 135.075 102.226 141.045 105.761C141.045 105.761 140.795 109.608 140.795 112.279C140.795 112.586 140.795 113.182 140.795 113.182C140.795 117.352 140.199 125.691 140.199 126.287L140.157 128.074L152.131 132.84L168.835 126.287C168.835 126.287 167.726 121.522 167.181 119.734C167.045 117.947 165.904 116.542 166.449 114.373C166.994 112.204 167.181 111.99 167.726 109.839C168.835 106.629 173.023 98.9485 170.51 95.0397L174.538 91.1308C174.538 87.3813 168.486 84.3417 164.717 84.3417H164.234L159.071 78.1174Z" fill="#4E7EA7"/>
<path d="M136.925 241.024H133.205L131.435 226.747L136.926 226.748L136.925 241.024Z" fill="#A0616A"/>
<path d="M125.697 246.486C125.699 246.9 125.865 247.297 126.159 247.591C126.454 247.884 126.853 248.05 127.269 248.053H134.272L134.489 247.606L135.48 245.572L135.864 247.606L135.948 248.053H138.59L138.552 247.603L137.848 239.199L136.926 239.142L132.945 238.908L131.967 238.848V241.357C131.225 242.143 125.401 245.112 125.697 246.486Z" fill="#2F2E41"/>
<path d="M192.213 231.329L189.085 233.332L179.833 222.277L184.451 219.322L192.213 231.329Z" fill="#A0616A"/>
<path d="M185.74 241.966C185.967 242.314 186.323 242.559 186.73 242.647C187.137 242.735 187.563 242.66 187.915 242.438L193.804 238.669L193.744 238.175L193.471 235.932L194.899 237.436L195.214 237.766L197.435 236.344L197.159 235.986L191.996 229.297L191.191 229.746L187.715 231.692L186.86 232.168L188.225 234.278C188.028 235.338 184.745 240.97 185.74 241.966Z" fill="#2F2E41"/>
<path d="M209.567 248.811L94.3739 248.923C94.2589 248.922 94.1489 248.876 94.0678 248.795C93.9867 248.714 93.9412 248.604 93.9412 248.49C93.9412 248.376 93.9867 248.266 94.0678 248.185C94.1489 248.104 94.2589 248.058 94.3739 248.057L209.567 247.946C209.682 247.946 209.792 247.992 209.873 248.073C209.955 248.154 210 248.264 210 248.378C210 248.493 209.955 248.602 209.873 248.684C209.792 248.765 209.682 248.81 209.567 248.811Z" fill="#CACACA"/>
<path d="M168.383 125.258C168.383 125.258 150.751 134.538 141.425 128.206C141.425 128.206 139.385 138.037 138.567 138.851C137.75 139.664 136.447 140.019 137.371 140.926C138.295 141.833 138.809 143.059 137.053 144.615C135.297 146.171 133.546 145.678 135.239 147.28C136.932 148.883 130.119 188.198 130.119 188.198C130.119 188.198 131.209 224.759 130.119 225.864C129.029 226.97 127.572 227.218 128.982 228.585C130.392 229.952 130.392 228.892 130.392 230.778V232.664L131.037 234.538H139.885C139.885 234.538 142.02 232.07 139.885 229.927C137.75 227.783 140.535 227.197 141.186 225.185C141.837 223.174 142.927 225.343 141.837 223.174C140.747 221.005 140.224 221.418 140.213 219.991C140.202 218.565 156.28 162.711 156.28 162.711L158.227 193.625L181.651 227.482L188.546 222.337C188.546 222.337 183.526 215.306 184.7 214.339C185.874 213.373 181.24 212.161 182.701 211.07C184.162 209.98 180.645 208.881 181.971 207.436C183.296 205.991 180.144 202.348 178.318 202.348C176.491 202.348 173.928 196.275 173.928 196.275L177.755 148.304L168.383 125.258Z" fill="#829CCC"/>
<path d="M153.459 80.5922C158.347 80.5922 162.31 76.6493 162.31 71.7856C162.31 66.9219 158.347 62.9791 153.459 62.9791C148.57 62.9791 144.608 66.9219 144.608 71.7856C144.608 76.6493 148.57 80.5922 153.459 80.5922Z" fill="#FFCBA5"/>
<path d="M159.031 64.0407C158.532 63.9674 158.052 63.8 157.617 63.5472C157.401 63.4175 157.226 63.2299 157.112 63.006C156.998 62.7821 156.95 62.5308 156.973 62.2808C157.082 61.6551 157.793 61.2815 158.43 61.3196C159.064 61.4105 159.667 61.6532 160.186 62.0268C160.129 61.4221 159.87 60.854 159.449 60.4138C159.028 59.9736 158.471 59.6868 157.867 59.5994C158.705 59.5545 159.576 59.5149 160.351 59.8355C161.126 60.1562 161.772 60.9502 161.632 61.7736C162.935 61.6066 164.219 62.5097 164.757 63.702C165.295 64.8942 165.189 66.2944 164.759 67.5294C164.716 67.7185 164.634 67.8963 164.516 68.0509C164.399 68.2054 164.249 68.333 164.078 68.425C163.639 68.5905 163.168 68.3129 162.788 68.0393C160.803 66.6097 158.997 64.9501 157.407 63.0954" fill="#2F2E41"/>
<path d="M162.89 81.1483C162.515 81.3241 162.711 81.978 162.419 82.2708C162.292 82.3948 162.14 82.4893 161.972 82.5474C161.928 82.0016 161.8 81.4658 161.593 80.9586C161.555 80.8664 161.492 80.7633 161.394 80.7715C161.28 80.785 161.25 80.9341 161.247 81.0453C161.224 81.5968 161.101 82.1396 160.885 82.6477C160.882 82.6532 160.879 82.6613 160.877 82.6667C160.792 82.664 160.705 82.6613 160.623 82.6586C159.991 82.6342 158.59 81.0182 158.28 81.5659C159.375 79.6327 160.71 76.7261 160.915 74.5164C160.986 74.0537 160.951 73.5812 160.814 73.1336C160.742 72.9109 160.608 72.7133 160.427 72.5643C160.246 72.4153 160.025 72.3212 159.792 72.293C159.677 72.2878 159.562 72.308 159.456 72.3521C159.349 72.3961 159.254 72.4631 159.177 72.548C159.099 72.633 159.042 72.7339 159.008 72.8436C158.975 72.9533 158.966 73.0689 158.983 73.1824L158.825 73.1607C157.358 71.9731 158.623 69.9097 156.917 69.0937C156.339 68.8171 152.802 69.7417 152.178 69.579C152.165 68.9249 152.031 68.2788 151.783 67.6729C151.745 67.5807 151.682 67.4777 151.584 67.4858C151.47 67.4994 151.44 67.6485 151.437 67.7596C151.414 68.3111 151.291 68.8539 151.074 69.3621C150.21 69.2401 149.33 69.2861 148.483 69.4976C147.736 69.6928 147.028 70.0291 146.278 70.208C145.908 70.321 145.518 70.3576 145.133 70.3156C144.748 70.2737 144.375 70.154 144.038 69.964C143.087 69.3295 142.921 67.925 143.395 66.8893C143.738 66.2247 144.202 65.629 144.763 65.1323C145.191 64.7202 145.635 64.3243 146.079 63.9285C146.477 63.5733 146.875 63.2181 147.273 62.8629C147.774 62.3939 148.307 61.9608 148.87 61.5669C149.768 60.9813 150.776 60.5844 151.834 60.4007C152.892 60.217 153.976 60.2503 155.02 60.4986C156.274 60.7968 157.95 60.3766 159.097 60.9595C159.697 61.2659 161.024 62.44 161.55 62.8575C162.896 63.9231 161.985 63.0548 163.457 63.6709C166.968 65.1399 165.416 79.9655 162.89 81.1483Z" fill="#2F2E41"/>
<path d="M64.2513 138.994C94.567 138.994 119.143 114.542 119.143 84.3795C119.143 54.2166 94.567 29.7647 64.2513 29.7647C33.9357 29.7647 9.35999 54.2166 9.35999 84.3795C9.35999 114.542 33.9357 138.994 64.2513 138.994Z" fill="#F7F7F7"/>
<path d="M64.2513 139.539C33.682 139.539 8.81201 114.795 8.81201 84.3794C8.81201 53.9642 33.682 29.2195 64.2513 29.2195C94.8205 29.2195 119.691 53.9642 119.691 84.3794C119.691 114.795 94.8205 139.539 64.2513 139.539ZM64.2513 30.3098C34.2863 30.3098 9.90785 54.5654 9.90785 84.3794C9.90785 114.193 34.2863 138.449 64.2513 138.449C94.2163 138.449 118.595 114.193 118.595 84.3794C118.595 54.5654 94.2162 30.3098 64.2513 30.3098Z" fill="#F4F4F5"/>
<path d="M120.805 33.177C120.958 32.1329 119.859 31.1094 118.35 30.891C116.842 30.6726 115.495 31.342 115.342 32.3862C115.19 33.4303 116.289 34.4538 117.797 34.6722C119.306 34.8906 120.653 34.2212 120.805 33.177Z" fill="#829CCC"/>
<path d="M138.767 31.4333C138.919 30.3892 137.82 29.3657 136.312 29.1473C134.803 28.9289 133.456 29.5983 133.304 30.6425C133.151 31.6866 134.25 32.7101 135.759 32.9285C137.267 33.1469 138.614 32.4775 138.767 31.4333Z" fill="#4E7EA7"/>
<path d="M115.887 18.7093C116.04 17.6651 114.94 16.6417 113.432 16.4233C111.923 16.2049 110.577 16.8743 110.424 17.9185C110.271 18.9626 111.37 19.9861 112.879 20.2045C114.388 20.4229 115.734 19.7535 115.887 18.7093Z" fill="#45C2D6"/>
<path d="M108.082 12.783C108.09 11.8244 107.552 11.0433 106.882 11.0382C106.212 11.0332 105.663 11.8062 105.655 12.7648C105.648 13.7233 106.186 14.5045 106.856 14.5096C107.526 14.5146 108.075 13.7416 108.082 12.783Z" fill="#829CCC"/>
<path d="M105.436 1.74481C105.443 0.786235 104.906 0.00506227 104.235 1.97891e-05C103.565 -0.00502269 103.016 0.767975 103.009 1.72655C103.001 2.68513 103.539 3.46631 104.209 3.47135C104.879 3.47639 105.428 2.70339 105.436 1.74481Z" fill="#4E7EA7"/>
<path d="M126.017 21.1713C126.025 20.2127 125.487 19.4315 124.817 19.4265C124.147 19.4214 123.598 20.1944 123.59 21.153C123.583 22.1116 124.121 22.8928 124.791 22.8978C125.461 22.9028 126.01 22.1298 126.017 21.1713Z" fill="#829CCC"/>
<path d="M117.338 25.4831C117.345 24.5245 116.808 23.7434 116.137 23.7383C115.467 23.7333 114.918 24.5063 114.911 25.4649C114.903 26.4234 115.441 27.2046 116.111 27.2096C116.781 27.2147 117.33 26.4417 117.338 25.4831Z" fill="#45C2D6"/>
<path d="M129.42 33.4525C129.427 32.4939 128.89 31.7127 128.22 31.7077C127.55 31.7026 127 32.4756 126.993 33.4342C126.986 34.3928 127.523 35.1739 128.193 35.179C128.864 35.184 129.413 34.4111 129.42 33.4525Z" fill="#4E7EA7"/>
<path d="M17.7968 162.561C17.9495 161.517 16.8503 160.493 15.3417 160.275C13.8331 160.057 12.4864 160.726 12.3337 161.77C12.181 162.814 13.2802 163.838 14.7888 164.056C16.2974 164.275 17.6441 163.605 17.7968 162.561Z" fill="#45C2D6"/>
<path d="M35.7581 160.817C35.9108 159.773 34.8117 158.75 33.3031 158.531C31.7945 158.313 30.4478 158.982 30.2951 160.026C30.1424 161.071 31.2416 162.094 32.7501 162.312C34.2587 162.531 35.6054 161.861 35.7581 160.817Z" fill="#4E7EA7"/>
<path d="M12.8786 148.093C13.0313 147.049 11.9321 146.026 10.4235 145.807C8.91493 145.589 7.5682 146.258 7.41551 147.302C7.26282 148.346 8.36199 149.37 9.87057 149.588C11.3792 149.807 12.7259 149.137 12.8786 148.093Z" fill="#829CCC"/>
<path d="M5.07381 142.167C5.08109 141.208 4.54368 140.427 3.87347 140.422C3.20325 140.417 2.65402 141.19 2.64674 142.149C2.63945 143.107 3.17687 143.888 3.84709 143.894C4.5173 143.899 5.06652 143.126 5.07381 142.167Z" fill="#45C2D6"/>
<path d="M2.42719 131.129C2.43447 130.17 1.89706 129.389 1.22685 129.384C0.556636 129.379 0.00741495 130.152 0.000129666 131.111C-0.00715562 132.069 0.530253 132.85 1.20047 132.855C1.87068 132.86 2.4199 132.087 2.42719 131.129Z" fill="#4E7EA7"/>
<path d="M23.0089 150.555C23.0161 149.597 22.4787 148.816 21.8085 148.81C21.1383 148.805 20.5891 149.578 20.5818 150.537C20.5745 151.496 21.1119 152.277 21.7821 152.282C22.4523 152.287 23.0016 151.514 23.0089 150.555Z" fill="#45C2D6"/>
<path d="M14.3292 154.867C14.3365 153.909 13.7991 153.127 13.1288 153.122C12.4586 153.117 11.9094 153.89 11.9021 154.849C11.8948 155.807 12.4322 156.589 13.1025 156.594C13.7727 156.599 14.3219 155.826 14.3292 154.867Z" fill="#829CCC"/>
<path d="M26.4116 162.836C26.4188 161.878 25.8814 161.097 25.2112 161.092C24.541 161.087 23.9918 161.86 23.9845 162.818C23.9772 163.777 24.5146 164.558 25.1848 164.563C25.855 164.568 26.4043 163.795 26.4116 162.836Z" fill="#4E7EA7"/>
<g clip-path="url(#clip1_852_1801)">
<path d="M59.9297 106.672C61.9043 94.4426 73.2637 86.1279 85.3342 88.0768C88.7027 88.6207 91.7253 89.9194 94.3442 91.7365L97.7525 70.6274C98.3137 67.1514 95.9659 63.8541 92.535 63.3002L42.6311 55.2427C39.2002 54.6887 35.9339 57.0795 35.3726 60.5555L29.25 98.476C28.6887 101.952 31.0366 105.249 34.4675 105.803L59.669 109.872C59.6814 108.804 59.7562 107.746 59.9297 106.672ZM41.6106 61.5627L64.0115 81.3917L91.5145 69.6202L90.4941 75.9403L62.991 87.7117L40.5902 67.8828L41.6106 61.5627ZM75.0545 118.841L65.8194 105.872L70.9366 102.126L76.4672 109.893L91.8551 98.63L95.5958 103.806L75.0545 118.841Z" fill="#7BD9E8"/>
</g>
</g>
<defs>
<clipPath id="clip0_852_1801">
<rect width="210" height="249" fill="white"/>
</clipPath>
<clipPath id="clip1_852_1801">
<rect width="75.8253" height="76.823" fill="white" transform="translate(33.2452 44) rotate(9.17185)"/>
</clipPath>
</defs>
</svg>
