<svg width="12" height="15" viewBox="0 0 12 15" fill="none" xmlns="http://www.w3.org/2000/svg">
<path d="M0.666748 10.1667V12.8334C0.666748 13.5667 1.26675 14.1667 2.00008 14.1667H10.0001C10.7334 14.1667 11.3334 13.5667 11.3334 12.8334V10.1667C11.3334 9.43337 10.7334 8.83337 10.0001 8.83337H2.00008C1.26675 8.83337 0.666748 9.43337 0.666748 10.1667ZM9.33341 11.5H2.66675C2.30008 11.5 2.00008 11.2 2.00008 10.8334C2.00008 10.4667 2.30008 10.1667 2.66675 10.1667H9.33341C9.70008 10.1667 10.0001 10.4667 10.0001 10.8334C10.0001 11.2 9.70008 11.5 9.33341 11.5ZM6.00008 0.833374C4.36008 0.833374 2.98675 2.02671 2.71341 3.58671C2.66008 3.93337 2.75341 4.28671 2.95341 4.56671L5.46008 8.07337C5.72675 8.44671 6.28008 8.44671 6.54675 8.07337L9.05341 4.56671C9.25341 4.28671 9.34675 3.93337 9.28675 3.58671C9.01341 2.02671 7.64008 0.833374 6.00008 0.833374Z" fill="#7BD9E8"/>
</svg>
