<svg width="10" height="13" viewBox="0 0 10 13" fill="none" xmlns="http://www.w3.org/2000/svg">
<path d="M8.33325 0.5H1.66659C1.29992 0.5 0.999919 0.8 0.999919 1.16667C0.999919 1.53333 1.29992 1.83333 1.66659 1.83333H8.33325C8.69992 1.83333 8.99992 1.53333 8.99992 1.16667C8.99992 0.8 8.69992 0.5 8.33325 0.5Z" fill="#7BD9E8"/>
<path d="M8.33325 2.5H1.66659C0.933252 2.5 0.333252 3.1 0.333252 3.83333V11.1667C0.333252 11.9 0.933252 12.5 1.66659 12.5H8.33325C9.06659 12.5 9.66659 11.9 9.66659 11.1667V3.83333C9.66659 3.1 9.06659 2.5 8.33325 2.5ZM6.66659 8.5H5.99992V9.16667C5.99992 9.72 5.55325 10.1667 4.99992 10.1667C4.44659 10.1667 3.99992 9.72 3.99992 9.16667V8.5H3.33325C2.77992 8.5 2.33325 8.05333 2.33325 7.5C2.33325 6.94667 2.77992 6.5 3.33325 6.5H3.99992V5.83333C3.99992 5.28 4.44659 4.83333 4.99992 4.83333C5.55325 4.83333 5.99992 5.28 5.99992 5.83333V6.5H6.66659C7.21992 6.5 7.66659 6.94667 7.66659 7.5C7.66659 8.05333 7.21992 8.5 6.66659 8.5Z" fill="#7BD9E8"/>
</svg>
