<svg width="14" height="15" viewBox="0 0 14 15" fill="none" xmlns="http://www.w3.org/2000/svg">
<path d="M7.73536 13.3433C7.73536 13.77 8.12869 14.0966 8.54202 14.0033C9.28869 13.83 9.99536 13.5366 10.622 13.1366C10.9754 12.91 11.0287 12.4033 10.7287 12.1033C10.5154 11.89 10.1754 11.8366 9.92202 11.9966C9.40869 12.3233 8.84202 12.5633 8.23536 12.6966C7.93536 12.7633 7.73536 13.0366 7.73536 13.3433Z" fill="#7BD9E8"/>
<path d="M1.74202 7.49663C1.74202 4.96996 3.50869 2.84996 5.87536 2.30329C6.16869 2.23663 6.37536 1.96329 6.37536 1.66329C6.37536 1.23663 5.97536 0.90996 5.56202 1.00996C2.60869 1.68996 0.408691 4.33663 0.408691 7.49663C0.408691 10.6566 2.60869 13.3033 5.56202 13.99C5.97536 14.09 6.37536 13.7633 6.37536 13.3366C6.37536 13.03 6.16869 12.7633 5.87536 12.6966C3.50869 12.1433 1.74202 10.0233 1.74202 7.49663Z" fill="#7BD9E8"/>
<path d="M12.9154 6.82996C13.342 6.82996 13.6687 6.43663 13.5754 6.02329C13.402 5.27663 13.1087 4.57663 12.7087 3.94329C12.482 3.58329 11.9754 3.53663 11.6754 3.83663C11.462 4.04996 11.4087 4.38996 11.5754 4.64329C11.902 5.14996 12.142 5.71663 12.2754 6.32996C12.3354 6.62996 12.6087 6.82996 12.9154 6.82996Z" fill="#7BD9E8"/>
<path d="M10.622 1.86329C9.98869 1.46329 9.28869 1.16996 8.54202 0.996626C8.12869 0.903293 7.73536 1.22996 7.73536 1.64996C7.73536 1.94996 7.93536 2.22996 8.22869 2.28996C8.83536 2.42329 9.40869 2.66996 9.91536 2.98996C10.1754 3.14996 10.5087 3.10329 10.722 2.88329C11.0287 2.58996 10.982 2.08996 10.622 1.86329Z" fill="#7BD9E8"/>
<path d="M11.6687 11.1566C11.9687 11.4566 12.4754 11.41 12.702 11.05C13.102 10.4233 13.3954 9.71663 13.5687 8.96996C13.662 8.55663 13.3354 8.16329 12.9154 8.16329C12.6154 8.16329 12.3354 8.36329 12.2754 8.65663C12.142 9.26329 11.8954 9.83663 11.5754 10.3433C11.402 10.6033 11.4554 10.9433 11.6687 11.1566Z" fill="#7BD9E8"/>
<path d="M9.72202 6.89663C9.72202 5.23663 8.45536 4.16329 7.05536 4.16329C5.65536 4.16329 4.38869 5.23663 4.38869 6.89663C4.38869 7.90329 5.12202 9.08329 6.59536 10.43C6.85536 10.67 7.24869 10.67 7.51536 10.43C8.98869 9.07663 9.72202 7.90329 9.72202 6.89663ZM7.05536 7.49663C6.66202 7.49663 6.34202 7.17663 6.34202 6.78329C6.34202 6.38996 6.66202 6.06996 7.05536 6.06996C7.44869 6.06996 7.76869 6.38996 7.76869 6.78329C7.76869 7.17663 7.44869 7.49663 7.05536 7.49663Z" fill="#7BD9E8"/>
</svg>
