<svg width="71" height="71" viewBox="0 0 71 71" fill="none" xmlns="http://www.w3.org/2000/svg">
<path d="M35.5 0.083252C15.95 0.083252 0.0833282 15.9499 0.0833282 35.4999C0.0833282 55.0499 15.95 70.9166 35.5 70.9166C55.05 70.9166 70.9167 55.0499 70.9167 35.4999C70.9167 15.9499 55.05 0.083252 35.5 0.083252ZM25.9021 50.6937L13.1875 37.9791C11.8062 36.5978 11.8062 34.3666 13.1875 32.9853C14.5687 31.6041 16.8 31.6041 18.1812 32.9853L28.4167 43.1853L52.7833 18.8187C54.1646 17.4374 56.3958 17.4374 57.7771 18.8187C59.1583 20.1999 59.1583 22.4312 57.7771 23.8124L30.8958 50.6937C29.55 52.0749 27.2833 52.0749 25.9021 50.6937Z" fill="#45C2D6"/>
</svg>
