<svg width="12" height="13" viewBox="0 0 12 13" fill="none" xmlns="http://www.w3.org/2000/svg">
<path d="M10.8144 8.67875L9.12108 8.48542C8.71441 8.43875 8.31441 8.57875 8.02775 8.86542L6.80108 10.0921C4.91441 9.13208 3.36775 7.59208 2.40775 5.69875L3.64108 4.46542C3.92775 4.17875 4.06775 3.77875 4.02108 3.37209L3.82775 1.69209C3.74775 1.01875 3.18108 0.512085 2.50108 0.512085H1.34775C0.594412 0.512085 -0.0322548 1.13875 0.0144119 1.89208C0.367745 7.58542 4.92108 12.1321 10.6077 12.4854C11.3611 12.5321 11.9877 11.9054 11.9877 11.1521V9.99875C11.9944 9.32542 11.4877 8.75875 10.8144 8.67875Z" fill="#7BD9E8"/>
</svg>
