<svg width="16" height="18" viewBox="0 0 16 18" fill="none" xmlns="http://www.w3.org/2000/svg">
<path d="M4.25004 17.5417C4.70837 17.5417 5.08337 17.1667 5.08337 16.7084V12.9584H5.91671C6.83337 12.9584 7.58337 12.2084 7.58337 11.2917V5.04171C8.04171 5.04171 8.41671 4.66671 8.41671 4.20837C8.41671 3.75004 8.04171 3.37504 7.58337 3.37504H5.08337V2.12504H5.50004C5.95837 2.12504 6.33337 1.75004 6.33337 1.29171C6.33337 0.833374 5.95837 0.458374 5.50004 0.458374H3.00004C2.54171 0.458374 2.16671 0.833374 2.16671 1.29171C2.16671 1.75004 2.54171 2.12504 3.00004 2.12504H3.41671V3.37504H0.916707C0.458374 3.37504 0.083374 3.75004 0.083374 4.20837C0.083374 4.66671 0.458374 5.04171 0.916707 5.04171V11.2917C0.916707 12.2084 1.66671 12.9584 2.58337 12.9584H3.41671V16.7084C3.41671 17.1667 3.79171 17.5417 4.25004 17.5417ZM5.91671 6.29171H4.45837C4.11671 6.29171 3.83337 6.57504 3.83337 6.91671C3.83337 7.25837 4.11671 7.54171 4.45837 7.54171H5.91671V8.79171H4.45837C4.11671 8.79171 3.83337 9.07504 3.83337 9.41671C3.83337 9.75837 4.11671 10.0417 4.45837 10.0417H5.91671V11.2917H2.58337V5.04171H5.91671V6.29171ZM14.6667 7.54171V7.12504C15.125 7.12504 15.5 6.75004 15.5 6.29171C15.5 5.83337 15.125 5.45837 14.6667 5.45837H10.5C10.0417 5.45837 9.66671 5.83337 9.66671 6.29171C9.66671 6.75004 10.0417 7.12504 10.5 7.12504V7.54171C10.5 7.95837 9.25004 8.50837 9.25004 10.0417V15.4584C9.25004 16.375 10 17.125 10.9167 17.125H14.25C15.1667 17.125 15.9167 16.375 15.9167 15.4584V10.0417C15.9167 8.50837 14.6667 7.95837 14.6667 7.54171ZM12.1667 7.54171V7.12504H13V7.54171C13 8.87504 14.25 9.20837 14.25 10.0417V10.4584H10.9167C10.9167 10.2834 10.9167 10.1334 10.9167 10.0417C10.9167 9.20837 12.1667 8.87504 12.1667 7.54171ZM10.9167 15.4584C10.9167 15.4584 10.9167 14.9334 10.9167 14.2084H14.25V15.4584H10.9167Z" fill="#7BD9E8"/>
</svg>
