<svg width="10" height="6" viewBox="0 0 10 6" fill="none" xmlns="http://www.w3.org/2000/svg">
<rect width="10" height="6" fill="#1E1E1E"/>
<rect width="375" height="812" transform="translate(-322 -165)" fill="white"/>
<rect x="-303.5" y="-16.5" width="338" height="253" rx="4.5" fill="white"/>
<mask id="path-2-inside-1_47_2" fill="white">
<path d="M-304 -12C-304 -14.7614 -301.761 -17 -299 -17H30C32.7614 -17 35 -14.7614 35 -12V23H-304V-12Z"/>
</mask>
<path d="M-304 -12C-304 -14.7614 -301.761 -17 -299 -17H30C32.7614 -17 35 -14.7614 35 -12V23H-304V-12Z" fill="#7BD9E8"/>
<path d="M8.22917 5.4999L4.99583 2.26657L1.7625 5.4999C1.4375 5.8249 0.9125 5.8249 0.5875 5.4999C0.2625 5.1749 0.2625 4.6499 0.5875 4.3249L4.4125 0.499902C4.7375 0.174902 5.2625 0.174902 5.5875 0.499902L9.4125 4.3249C9.7375 4.6499 9.7375 5.1749 9.4125 5.4999C9.0875 5.81657 8.55417 5.8249 8.22917 5.4999Z" fill="white"/>
<path d="M-305 -12C-305 -15.3137 -302.314 -18 -299 -18H30C33.3137 -18 36 -15.3137 36 -12H34C34 -14.2091 32.2091 -16 30 -16H-299C-301.209 -16 -303 -14.2091 -303 -12H-305ZM36 24H-305L-303 22H34L36 24ZM-305 24V-12C-305 -15.3137 -302.314 -18 -299 -18V-16C-301.209 -16 -303 -14.2091 -303 -12V22L-305 24ZM30 -18C33.3137 -18 36 -15.3137 36 -12V24L34 22V-12C34 -14.2091 32.2091 -16 30 -16V-18Z" fill="#7BD9E8" mask="url(#path-2-inside-1_47_2)"/>
<rect x="-303.5" y="-16.5" width="338" height="253" rx="4.5" stroke="#45C2D6"/>
</svg>
