<svg width="16" height="16" viewBox="0 0 16 16" fill="none" xmlns="http://www.w3.org/2000/svg">
<g clip-path="url(#clip0_143_314)">
<path d="M7.65771 9.26174C4.99413 9.5025 2.96485 11.7532 3.00021 14.4274V14.563C3.00021 15.0807 3.41995 15.5005 3.93771 15.5005C4.45547 15.5005 4.87521 15.0807 4.87521 14.563V14.3899C4.84703 12.7479 6.05875 11.3477 7.68771 11.1399C9.40723 10.9694 10.9394 12.2251 11.1099 13.9446C11.12 14.0463 11.1251 14.1483 11.1252 14.2505V14.563C11.1252 15.0807 11.5449 15.5005 12.0627 15.5005C12.5805 15.5005 13.0002 15.0807 13.0002 14.563V14.2505C12.9972 11.4859 10.7536 9.24732 7.98906 9.25037C7.87852 9.25052 7.76801 9.2543 7.65771 9.26174Z" fill="#829CCC"/>
<path d="M8.00024 8C10.0713 8 11.7502 6.32105 11.7502 4.25C11.7502 2.17895 10.0713 0.5 8.00024 0.5C5.92919 0.5 4.25024 2.17895 4.25024 4.25C4.25229 6.32021 5.93004 7.99792 8.00024 8ZM8.00024 2.375C9.03577 2.375 9.87524 3.21447 9.87524 4.25C9.87524 5.28553 9.03577 6.125 8.00024 6.125C6.96472 6.125 6.12524 5.28553 6.12524 4.25C6.12524 3.21447 6.96472 2.375 8.00024 2.375Z" fill="#829CCC"/>
</g>
<defs>
<clipPath id="clip0_143_314">
<rect width="15" height="15" fill="white" transform="translate(0.5 0.5)"/>
</clipPath>
</defs>
</svg>
