<svg width="23" height="21" viewBox="0 0 23 17" fill="none" xmlns="http://www.w3.org/2000/svg">
<path d="M11.5 0.6875C6.29167 0.6875 1.84376 3.92708 0.0416718 8.5C1.84376 13.0729 6.29167 16.3125 11.5 16.3125C16.7083 16.3125 21.1563 13.0729 22.9583 8.5C21.1563 3.92708 16.7083 0.6875 11.5 0.6875ZM11.5 13.7083C8.62501 13.7083 6.29167 11.375 6.29167 8.5C6.29167 5.625 8.62501 3.29167 11.5 3.29167C14.375 3.29167 16.7083 5.625 16.7083 8.5C16.7083 11.375 14.375 13.7083 11.5 13.7083ZM11.5 5.375C9.77084 5.375 8.37501 6.77083 8.37501 8.5C8.37501 10.2292 9.77084 11.625 11.5 11.625C13.2292 11.625 14.625 10.2292 14.625 8.5C14.625 6.77083 13.2292 5.375 11.5 5.375Z" fill="#C2C2C2"/>
</svg>
