<svg width="23" height="21" viewBox="0 0 23 21" fill="none" xmlns="http://www.w3.org/2000/svg">
<path d="M11.5 4.73958C14.375 4.73958 16.7083 7.07292 16.7083 9.94792C16.7083 10.4792 16.6042 10.9896 16.4583 11.4688L19.6458 14.6563C21.0938 13.375 22.2396 11.7708 22.9583 9.9375C21.1563 5.375 16.7083 2.13542 11.5 2.13542C10.1771 2.13542 8.90626 2.34375 7.70834 2.72917L9.96876 4.98958C10.4583 4.84375 10.9688 4.73958 11.5 4.73958ZM1.82292 1.26042C1.41667 1.66667 1.41667 2.32292 1.82292 2.72917L3.87501 4.78125C2.18751 6.125 0.843755 7.89583 0.0416718 9.94792C1.84376 14.5208 6.29167 17.7604 11.5 17.7604C13.0833 17.7604 14.5938 17.4479 15.9896 16.9063L18.8229 19.7396C19.2292 20.1458 19.8854 20.1458 20.2917 19.7396C20.6979 19.3333 20.6979 18.6771 20.2917 18.2708L3.30209 1.26042C2.89584 0.854167 2.22917 0.854167 1.82292 1.26042ZM11.5 15.1562C8.62501 15.1562 6.29167 12.8229 6.29167 9.94792C6.29167 9.14583 6.47917 8.38542 6.80209 7.71875L8.43751 9.35417C8.40626 9.54167 8.37501 9.73958 8.37501 9.94792C8.37501 11.6771 9.77084 13.0729 11.5 13.0729C11.7083 13.0729 11.8958 13.0417 12.0938 13L13.7292 14.6354C13.0521 14.9687 12.3021 15.1562 11.5 15.1562ZM14.5938 9.60417C14.4375 8.14583 13.2917 7.01042 11.8438 6.85417L14.5938 9.60417Z" fill="#C2C2C2"/>
</svg>
