<svg width="15" height="14" viewBox="0 0 15 14" fill="none" xmlns="http://www.w3.org/2000/svg">
<path d="M14.0625 0.447917C13.6562 0.0416669 13 0.0416669 12.5938 0.447917L7.5 5.53125L2.40625 0.4375C2 0.03125 1.34375 0.03125 0.9375 0.4375C0.53125 0.84375 0.53125 1.5 0.9375 1.90625L6.03125 7L0.9375 12.0938C0.53125 12.5 0.53125 13.1562 0.9375 13.5625C1.34375 13.9688 2 13.9688 2.40625 13.5625L7.5 8.46875L12.5938 13.5625C13 13.9688 13.6562 13.9688 14.0625 13.5625C14.4688 13.1562 14.4688 12.5 14.0625 12.0938L8.96875 7L14.0625 1.90625C14.4583 1.51042 14.4583 0.84375 14.0625 0.447917Z" fill="#7BD9E8"/>
</svg>
