<svg width="158" height="131" viewBox="0 0 158 131" fill="none" xmlns="http://www.w3.org/2000/svg">
<ellipse cx="121.802" cy="35.8558" rx="35.2198" ry="35.4375" fill="#7BD9E8"/>
<path d="M158 115.227H0V115.311H158V115.227Z" fill="#EBEBEB"/>
<path d="M142.168 120.669H131.702V120.753H142.168V120.669Z" fill="#EBEBEB"/>
<path d="M104.665 121.588H101.919V121.673H104.665V121.588Z" fill="#EBEBEB"/>
<path d="M131.387 117.53H125.323V117.614H131.387V117.53Z" fill="#EBEBEB"/>
<path d="M30.2254 118.098H16.5774V118.183H30.2254V118.098Z" fill="#EBEBEB"/>
<path d="M35.0413 118.098H33.041V118.183H35.0413V118.098Z" fill="#EBEBEB"/>
<path d="M71.1473 119.525H41.5444V119.61H71.1473V119.525Z" fill="#EBEBEB"/>
<path d="M74.8921 100.143H13.8757C13.3977 100.142 12.9395 99.9384 12.6018 99.5763C12.2641 99.2143 12.0745 98.7236 12.0745 98.212V6.41422C12.0786 5.90557 12.2701 5.41922 12.6074 5.06081C12.9446 4.7024 13.4004 4.50087 13.8757 4.5H74.8921C75.3706 4.5 75.8296 4.70346 76.168 5.06561C76.5064 5.42777 76.6965 5.91896 76.6965 6.43113V98.212C76.6965 98.7242 76.5064 99.2154 76.168 99.5775C75.8296 99.9397 75.3706 100.143 74.8921 100.143ZM13.8757 4.56764C13.4186 4.56854 12.9806 4.76348 12.6577 5.10968C12.3348 5.45589 12.1535 5.92506 12.1535 6.41422V98.212C12.1535 98.7012 12.3348 99.1703 12.6577 99.5165C12.9806 99.8627 13.4186 100.058 13.8757 100.059H74.8921C75.3494 100.058 75.7878 99.8628 76.1112 99.5167C76.4346 99.1706 76.6166 98.7015 76.6175 98.212V6.41422C76.6166 5.92475 76.4346 5.45558 76.1112 5.10948C75.7878 4.76337 75.3494 4.56853 74.8921 4.56764H13.8757Z" fill="#EBEBEB"/>
<path d="M143.246 100.143H82.2262C81.7479 100.142 81.2895 99.9385 80.9513 99.5765C80.6131 99.2146 80.4227 98.7239 80.4219 98.212V6.41422C80.4269 5.90526 80.6191 5.41892 80.9568 5.0606C81.2946 4.70228 81.7507 4.50086 82.2262 4.5H143.246C143.721 4.50176 144.176 4.70368 144.512 5.062C144.849 5.42031 145.04 5.90615 145.044 6.41422V98.212C145.044 98.723 144.855 99.2132 144.518 99.5751C144.181 99.9371 143.723 100.141 143.246 100.143ZM82.2262 4.56764C81.7689 4.56853 81.3305 4.76337 81.0071 5.10948C80.6838 5.45558 80.5017 5.92475 80.5009 6.41422V98.212C80.5017 98.7015 80.6838 99.1706 81.0071 99.5167C81.3305 99.8628 81.7689 100.058 82.2262 100.059H143.246C143.703 100.058 144.142 99.8628 144.465 99.5167C144.788 99.1706 144.97 98.7015 144.971 98.212V6.41422C144.97 5.92475 144.788 5.45558 144.465 5.10948C144.142 4.76337 143.703 4.56853 143.246 4.56764H82.2262Z" fill="#EBEBEB"/>
<path d="M27.056 102.937C27.056 102.801 26.6294 89.5169 24.6101 87.4166C22.6478 85.3874 20.3947 87.3388 20.2999 87.4166L20.0977 87.1596C20.1229 87.1359 22.6667 84.9139 24.8377 87.1596C26.9485 89.3545 27.3657 102.358 27.3657 102.913L27.056 102.937Z" fill="#E0E0E0"/>
<path d="M27.2296 105.548C27.2296 105.389 25.8487 89.598 31.2365 82.9794L31.4735 83.2026C26.1774 89.7096 27.5298 105.355 27.5425 105.524L27.2296 105.548Z" fill="#E0E0E0"/>
<path d="M27.0274 103.877L26.7114 103.853C26.7114 103.674 27.7637 85.9049 23.8137 82.0122L24.0254 81.7653C28.0924 85.7628 27.0748 103.14 27.0274 103.877Z" fill="#E0E0E0"/>
<path d="M27.5426 103.867H27.2266C27.2266 103.376 27.3593 91.864 30.415 90.0005C30.7045 89.7987 31.0351 89.6746 31.3789 89.6387C31.7227 89.6028 32.0695 89.6561 32.39 89.7942C34.2386 90.6092 35.155 94.1299 35.1929 94.2787L34.8769 94.37C34.8769 94.3328 33.9668 90.8595 32.2604 90.1053C31.9837 89.9893 31.685 89.9456 31.3894 89.978C31.0937 90.0104 30.8095 90.1178 30.5604 90.2913C27.6721 92.0567 27.5457 103.748 27.5426 103.867Z" fill="#E0E0E0"/>
<path d="M26.3544 103.873L26.0384 103.857C26.0384 103.765 26.4998 94.7556 24.2278 91.5833C23.6779 90.8122 23.0807 90.4469 22.4487 90.4943C20.9603 90.6059 19.7121 92.9361 19.6995 92.9597L19.4246 92.794C19.4783 92.6926 20.7676 90.2812 22.4266 90.1561C23.1692 90.102 23.858 90.5112 24.4774 91.377C26.8221 94.6508 26.3734 103.498 26.3544 103.873Z" fill="#E0E0E0"/>
<path d="M26.8599 105.101C26.7999 104.225 25.3747 83.6558 27.8806 80.0337L28.1334 80.2333C25.7002 83.7573 27.1601 104.861 27.1854 105.074L26.8599 105.101Z" fill="#E0E0E0"/>
<path d="M33.0726 91.864C33.0726 91.864 31.5685 92.4558 32.0172 93.856C32.4659 95.2561 37.2122 97.5559 37.2122 97.5559C37.2122 97.5559 39.203 95.6045 37.3765 92.4321C35.5501 89.2598 33.1137 90.8629 33.0726 91.864Z" fill="#EBEBEB"/>
<path d="M26.5439 89.199C26.5439 89.199 28.146 89.1279 28.2345 90.6025C28.323 92.077 24.7585 96.1625 24.7585 96.1625C24.7585 96.1625 22.2305 95.1783 22.7645 91.4987C23.2986 87.8191 26.1457 88.2926 26.5439 89.199Z" fill="#EBEBEB"/>
<path d="M25.1883 82.1373C25.1883 82.1373 26.2532 82.0156 26.1679 81.3189C26.0826 80.6222 22.022 78.8365 19.6267 81.7281C19.6267 81.7281 21.1625 84.5487 23.3776 84.5859C25.5928 84.6231 25.1883 82.1373 25.1883 82.1373Z" fill="#EBEBEB"/>
<path d="M27.176 80.4497C27.176 80.4497 26.209 80.9502 25.9372 80.311C25.6655 79.6718 28.2282 75.8535 31.6916 76.9561C31.6916 76.9561 31.7832 80.2163 29.9188 81.5015C28.0544 82.7867 27.176 80.4497 27.176 80.4497Z" fill="#EBEBEB"/>
<path d="M22.1201 91.3026C22.1201 91.3026 22.8564 90.6667 22.0601 90.3556C21.2637 90.0444 17.3706 90.1324 17.3201 94.2652C17.3201 94.2652 21.8578 95.0701 22.4203 93.4975C22.9828 91.9248 22.1201 91.3026 22.1201 91.3026Z" fill="#EBEBEB"/>
<path d="M31.382 82.0325C31.382 82.0325 30.6457 81.3967 31.4389 81.0889C32.232 80.7811 36.1315 80.8657 36.1789 84.9985C36.1789 84.9985 31.6411 85.8034 31.0786 84.2308C30.5161 82.6581 31.382 82.0325 31.382 82.0325Z" fill="#EBEBEB"/>
<path d="M28.9834 85.3638C28.9834 85.3638 28.9171 84.5893 29.5017 84.8937C30.0863 85.198 32.115 87.5418 30.0104 89.7671C30.0104 89.7671 27.1664 87.5215 27.6847 86.3513C28.2029 85.1811 28.9834 85.3638 28.9834 85.3638Z" fill="#EBEBEB"/>
<path d="M21.4692 86.4629C21.4692 86.4629 21.9084 85.8474 21.2638 85.7696C20.6191 85.6918 17.7309 86.5204 18.404 89.6048C18.404 89.6048 21.921 89.3207 22.0727 88.0389C22.2244 86.7571 21.4692 86.4629 21.4692 86.4629Z" fill="#EBEBEB"/>
<path d="M33.3538 115.318H21.2826L19.9807 101.175H34.6558L33.3538 115.318Z" fill="#F0F0F0"/>
<path d="M35.3003 99.6155H19.3359V102.737H35.3003V99.6155Z" fill="#E6E6E6"/>
<path d="M100.981 115.318H132.177V25.323H100.981L100.981 115.318Z" fill="#EBEBEB"/>
<path d="M122.241 68.7987H129.421V35.2188H122.241V68.7987Z" fill="#FAFAFA"/>
<path d="M126.994 75.583C126.994 75.886 127.078 76.1822 127.235 76.4341C127.393 76.6861 127.616 76.8825 127.878 76.9984C128.139 77.1144 128.427 77.1447 128.705 77.0856C128.983 77.0265 129.238 76.8806 129.438 76.6663C129.638 76.452 129.774 76.1791 129.83 75.8819C129.885 75.5847 129.856 75.2766 129.748 74.9967C129.64 74.7167 129.456 74.4775 129.221 74.3091C128.986 74.1408 128.709 74.0509 128.426 74.0509C128.046 74.0509 127.682 74.2123 127.413 74.4997C127.145 74.787 126.994 75.1767 126.994 75.583Z" fill="#E0E0E0"/>
<path d="M110.594 22.1777H122.567V19.1542H110.594V22.1777Z" fill="#F5F5F5"/>
<path d="M76.3108 56.5288V26.3241H54.0991V56.5288H76.3108Z" fill="#E6E6E6"/>
<path d="M54.6047 55.9843H75.8052V26.8652L54.6047 26.8652V55.9843Z" fill="#F0F0F0"/>
<path d="M60.0653 40.5184C60.8869 41.4924 61.0923 39.5613 61.0923 39.5613L63.4433 35.2763L63.9521 39.6729L62.1888 53.2618C62.1888 53.2618 60.5677 53.7758 60.4666 54.0667C60.3655 54.3575 63.2379 54.4353 63.5476 54.0667C63.8573 53.698 63.2316 53.2618 63.2316 53.2618L65.4436 42.0267L65.4815 42.206L67.6682 53.2618C67.6682 53.2618 67.0552 53.698 67.3522 54.0667C67.6493 54.4353 70.5344 54.3575 70.4301 54.0667C70.3258 53.7758 68.711 53.2618 68.711 53.2618L66.9699 39.6729L67.4786 35.2763L69.836 39.5613C69.836 39.5613 70.0414 41.4924 70.863 40.5184C71.6846 39.5444 70.231 38.6718 70.231 38.6718L67.6777 33.937L66.2684 33.4162L65.9524 32.9968C65.9524 32.9968 67.7599 29.5235 65.4847 29.4558H65.4152C63.14 29.5235 64.9443 32.9968 64.9443 32.9968L64.6283 33.4162L63.2379 33.9235L60.672 38.6583C60.672 38.6583 59.2468 39.5511 60.0653 40.5184Z" fill="#FAFAFA"/>
<path d="M65.4973 29.4457V42.2094L67.684 53.2651C67.684 53.2651 67.071 53.7014 67.368 54.0701C67.6651 54.4387 70.5501 54.3609 70.4459 54.0701C70.3416 53.7792 68.7268 53.2651 68.7268 53.2651L66.9699 39.6729L67.4786 35.2762L69.836 39.5612C69.836 39.5612 70.0414 41.4924 70.863 40.5184C71.6846 39.5443 70.231 38.6718 70.231 38.6718L67.6777 33.937L66.2684 33.4161L65.9524 32.9968C65.9524 32.9968 67.7725 29.5268 65.4973 29.4457Z" fill="#E6E6E6"/>
<path d="M57.8754 31.4816H60.811V30.2574H57.8754V31.4816Z" fill="#E6E6E6"/>
<path d="M56.88 36.9842H59.8157V35.7599H56.88V36.9842Z" fill="#E6E6E6"/>
<path d="M70.8124 42.7674H73.748V41.5431H70.8124V42.7674Z" fill="#E6E6E6"/>
<path d="M69.64 31.4377H72.5757V30.2134H69.64V31.4377Z" fill="#E6E6E6"/>
<path d="M57.8754 44.7966H60.811V43.5723H57.8754V44.7966Z" fill="#E6E6E6"/>
<path d="M70.0097 49.4773H72.9453V48.253H70.0097V49.4773Z" fill="#E6E6E6"/>
<path d="M56.4059 50.7016H59.3416V49.4773H56.4059V50.7016Z" fill="#E6E6E6"/>
<path d="M29.1699 26.1854V56.6742H50.6232V26.1854H29.1699Z" fill="#E6E6E6"/>
<path d="M50.1176 26.7232H29.6787V56.1297H50.1176V26.7232Z" fill="#F5F5F5"/>
<path d="M50.1176 26.7232H29.6787V34.0317H50.1176V26.7232Z" fill="#FAFAFA"/>
<path d="M50.1176 40.7957H29.6787V48.8313H50.1176V40.7957Z" fill="#FAFAFA"/>
<path d="M31.6001 30.0544C31.6001 30.4927 31.7216 30.9211 31.9491 31.2855C32.1767 31.6499 32.5002 31.9338 32.8786 32.1013C33.2569 32.2689 33.6733 32.3126 34.0749 32.2268C34.4765 32.1411 34.8452 31.9298 35.1346 31.6196C35.4239 31.3095 35.6208 30.9145 35.7003 30.4845C35.7798 30.0546 35.7384 29.6091 35.5812 29.2044C35.4241 28.7996 35.1583 28.4539 34.8175 28.2109C34.4767 27.9679 34.0762 27.8386 33.6667 27.8392C33.3951 27.8392 33.1261 27.8965 32.8751 28.0079C32.6242 28.1193 32.3962 28.2825 32.2043 28.4882C32.0123 28.694 31.8602 28.9382 31.7565 29.207C31.6528 29.4757 31.5997 29.7637 31.6001 30.0544Z" fill="#F5F5F5"/>
<path d="M46.967 39.5815C48.1101 39.5815 49.0368 38.5898 49.0368 37.3663C49.0368 36.1429 48.1101 35.1511 46.967 35.1511C45.8239 35.1511 44.8972 36.1429 44.8972 37.3663C44.8972 38.5898 45.8239 39.5815 46.967 39.5815Z" fill="#FAFAFA"/>
<path d="M33.4201 47.3906C34.5633 47.3906 35.4899 46.3988 35.4899 45.1754C35.4899 43.9519 34.5633 42.9602 33.4201 42.9602C32.277 42.9602 31.3503 43.9519 31.3503 45.1754C31.3503 46.3988 32.277 47.3906 33.4201 47.3906Z" fill="#F5F5F5"/>
<path d="M46.7239 54.7025C47.867 54.7025 48.7937 53.7107 48.7937 52.4873C48.7937 51.2638 47.867 50.2721 46.7239 50.2721C45.5807 50.2721 44.6541 51.2638 44.6541 52.4873C44.6541 53.7107 45.5807 54.7025 46.7239 54.7025Z" fill="#FAFAFA"/>
<path d="M79 130.5C112.838 130.5 140.269 128.786 140.269 126.672C140.269 124.557 112.838 122.843 79 122.843C45.1619 122.843 17.7307 124.557 17.7307 126.672C17.7307 128.786 45.1619 130.5 79 130.5Z" fill="#F5F5F5"/>
<path d="M129.073 122.268C129.073 122.268 130.739 113.854 127.708 109.295C124.678 104.736 130.445 109.241 131.108 113.509C131.108 113.509 132.104 105.879 129.165 100.508C126.226 95.1377 131.724 99.5479 132.192 105.081C132.192 105.081 133.093 98.2728 131.743 94.4478C130.394 90.6227 132.742 93.095 133.639 95.4793C134.537 97.8636 133.355 103.816 133.355 103.816C133.355 103.816 135.712 92.8346 137.946 93.7105C140.181 94.5865 134.61 101.777 133.838 105.52C133.838 105.52 136.471 100.485 138.468 101.533C140.465 102.582 135.374 103.102 133.045 110.61L132.227 114.131C132.227 114.131 134.647 109.163 136.231 110.729C137.814 112.295 131.541 115.004 130.081 122.532L129.073 122.268Z" fill="#45C2D6"/>
<path d="M129.399 122.752C129.399 122.752 129.75 112.142 134.648 107.651C139.546 103.16 131.383 106.714 129.399 111.615C129.399 111.615 130.347 102.145 135.349 96.6664C140.351 91.1875 132.549 94.6981 130.448 101.175C130.448 101.175 131.266 92.7196 133.949 88.5834C136.632 84.4472 133.131 86.6286 131.383 89.2125C129.636 91.7963 129.399 99.2874 129.399 99.2874C129.399 99.2874 129.633 85.384 126.716 85.7188C123.799 86.0537 128.467 96.4466 128.35 101.175C128.35 101.175 126.599 94.3024 123.926 94.9247C121.252 95.547 127.193 97.7892 127.892 107.526V112.004C127.892 112.004 126.368 105.284 124.033 106.637C121.698 107.989 128.457 113.252 128.116 122.738L129.399 122.752Z" fill="#45C2D6"/>
<path opacity="0.2" d="M129.399 122.752C129.399 122.752 129.75 112.142 134.648 107.651C139.546 103.16 131.383 106.714 129.399 111.615C129.399 111.615 130.347 102.145 135.349 96.6664C140.351 91.1875 132.549 94.6981 130.448 101.175C130.448 101.175 131.266 92.7196 133.949 88.5834C136.632 84.4472 133.131 86.6286 131.383 89.2125C129.636 91.7963 129.399 99.2874 129.399 99.2874C129.399 99.2874 129.633 85.384 126.716 85.7188C123.799 86.0537 128.467 96.4466 128.35 101.175C128.35 101.175 126.599 94.3024 123.926 94.9247C121.252 95.547 127.193 97.7892 127.892 107.526V112.004C127.892 112.004 126.368 105.284 124.033 106.637C121.698 107.989 128.457 113.252 128.116 122.738L129.399 122.752Z" fill="white"/>
<path d="M132.562 127.517H125.107C124.186 127.517 123.301 127.125 122.649 126.427C121.998 125.73 121.631 124.784 121.631 123.797V122.133H136.038V123.797C136.038 124.784 135.672 125.73 135.02 126.427C134.368 127.125 133.484 127.517 132.562 127.517Z" fill="#263238"/>
<path d="M137.937 121.247V122.42C137.937 122.798 137.797 123.16 137.547 123.427C137.298 123.694 136.96 123.844 136.607 123.844H121.091C120.916 123.845 120.743 123.808 120.582 123.737C120.42 123.665 120.273 123.56 120.149 123.428C120.026 123.296 119.928 123.139 119.861 122.966C119.794 122.793 119.76 122.607 119.761 122.42V121.247H137.937Z" fill="#263238"/>
<path opacity="0.2" d="M137.937 121.247V122.42C137.937 122.798 137.797 123.16 137.547 123.427C137.298 123.694 136.96 123.844 136.607 123.844H121.091C120.916 123.845 120.743 123.808 120.582 123.737C120.42 123.665 120.273 123.56 120.149 123.428C120.026 123.296 119.928 123.139 119.861 122.966C119.794 122.793 119.76 122.607 119.761 122.42V121.247H137.937Z" fill="white"/>
<path d="M92.8597 35.1241C90.8203 35.1234 88.8202 35.7238 87.0786 36.8595C85.337 37.9952 83.9213 39.6223 82.9867 41.5623C82.0521 43.5024 81.6348 45.6804 81.7805 47.8575C81.9262 50.0346 82.6293 52.1267 83.8127 53.9043L80.5579 57.9627L85.0293 55.4398C86.3238 56.8168 87.9154 57.8313 89.6634 58.3934C91.4114 58.9555 93.2619 59.0479 95.0512 58.6625C96.8405 58.277 98.5135 57.4256 99.9222 56.1835C101.331 54.9414 102.432 53.347 103.128 51.5411C103.824 49.7353 104.093 47.7737 103.912 45.8299C103.731 43.8861 103.106 42.02 102.09 40.3966C101.075 38.7732 99.702 37.4425 98.092 36.5223C96.482 35.6021 94.6849 35.1207 92.8597 35.1207V35.1241Z" fill="#45C2D6"/>
<path opacity="0.7" d="M92.8597 35.1241C90.8203 35.1234 88.8202 35.7238 87.0786 36.8595C85.337 37.9952 83.9213 39.6223 82.9867 41.5623C82.0521 43.5024 81.6348 45.6804 81.7805 47.8575C81.9262 50.0346 82.6293 52.1267 83.8127 53.9043L80.5579 57.9627L85.0293 55.4398C86.3238 56.8168 87.9154 57.8313 89.6634 58.3934C91.4114 58.9555 93.2619 59.0479 95.0512 58.6625C96.8405 58.277 98.5135 57.4256 99.9222 56.1835C101.331 54.9414 102.432 53.347 103.128 51.5411C103.824 49.7353 104.093 47.7737 103.912 45.8299C103.731 43.8861 103.106 42.02 102.09 40.3966C101.075 38.7732 99.702 37.4425 98.092 36.5223C96.482 35.6021 94.6849 35.1207 92.8597 35.1207V35.1241Z" fill="white"/>
<path d="M90.6921 42.3784L91.5168 43.924C91.486 43.998 91.434 44.0596 91.3683 44.0999C91.298 44.1348 91.2182 44.1408 91.144 44.1168L90.512 42.4731L90.6921 42.3784Z" fill="#45C2D6"/>
<path opacity="0.1" d="M90.6921 42.3784L91.5168 43.924C91.486 43.998 91.434 44.0596 91.3683 44.0999C91.298 44.1348 91.2182 44.1408 91.144 44.1168L90.512 42.4731L90.6921 42.3784Z" fill="white"/>
<path d="M90.3538 42.493C90.3886 42.5673 90.5182 42.5707 90.6446 42.493C90.771 42.4153 90.8468 42.314 90.812 42.2397C90.7773 42.1654 90.6509 42.162 90.5245 42.2397C90.3981 42.3174 90.3222 42.4187 90.3538 42.493Z" fill="#45C2D6"/>
<path opacity="0.1" d="M90.3538 42.493C90.3886 42.5673 90.5182 42.5707 90.6446 42.493C90.771 42.4153 90.8468 42.314 90.812 42.2397C90.7773 42.1654 90.6509 42.162 90.5245 42.2397C90.3981 42.3174 90.3222 42.4187 90.3538 42.493Z" fill="white"/>
<path d="M88.341 44.9048L89.921 45.4899C89.9454 45.5678 89.9454 45.6521 89.921 45.73C89.8894 45.8051 89.8332 45.8652 89.763 45.8991L88.2778 45.101L88.341 44.9048Z" fill="#45C2D6"/>
<path opacity="0.1" d="M88.341 44.9048L89.921 45.4899C89.9454 45.5678 89.9454 45.6521 89.921 45.73C89.8894 45.8051 89.8332 45.8652 89.763 45.8991L88.2778 45.101L88.341 44.9048Z" fill="white"/>
<path d="M88.1639 45.2396C88.2334 45.2735 88.3377 45.1855 88.3914 45.0469C88.4452 44.9082 88.4325 44.7695 88.363 44.7357C88.2935 44.7019 88.1924 44.7932 88.1355 44.9319C88.0786 45.0705 88.0976 45.2092 88.1639 45.2396Z" fill="#45C2D6"/>
<path opacity="0.1" d="M88.1639 45.2396C88.2334 45.2735 88.3377 45.1855 88.3914 45.0469C88.4452 44.9082 88.4325 44.7695 88.363 44.7357C88.2935 44.7019 88.1924 44.7932 88.1355 44.9319C88.0786 45.0705 88.0976 45.2092 88.1639 45.2396Z" fill="white"/>
<path d="M88.7959 50.1266L90.1421 49.085C90.2151 49.1098 90.2784 49.1597 90.3222 49.227C90.3635 49.2962 90.3782 49.3798 90.3633 49.4604L88.9002 50.3059L88.7959 50.1266Z" fill="#45C2D6"/>
<path opacity="0.1" d="M88.7959 50.1266L90.1421 49.085C90.2151 49.1098 90.2784 49.1597 90.3222 49.227C90.3635 49.2962 90.3782 49.3798 90.3633 49.4604L88.9002 50.3059L88.7959 50.1266Z" fill="white"/>
<path d="M88.9477 50.4682C89.0141 50.4242 89.0046 50.2856 88.9319 50.1604C88.8593 50.0353 88.7423 49.9643 88.6791 50.0049C88.6159 50.0455 88.6223 50.1875 88.6949 50.316C88.7676 50.4445 88.8845 50.5122 88.9477 50.4682Z" fill="#45C2D6"/>
<path opacity="0.1" d="M88.9477 50.4682C89.0141 50.4242 89.0046 50.2856 88.9319 50.1604C88.8593 50.0353 88.7423 49.9643 88.6791 50.0049C88.6159 50.0455 88.6223 50.1875 88.6949 50.316C88.7676 50.4445 88.8845 50.5122 88.9477 50.4682Z" fill="white"/>
<path d="M91.03 51.8683L91.4787 50.157C91.5505 50.131 91.6282 50.131 91.6999 50.157C91.7727 50.1848 91.8334 50.2402 91.8706 50.3126L91.2196 51.9495L91.03 51.8683Z" fill="#45C2D6"/>
<path opacity="0.1" d="M91.03 51.8683L91.4787 50.157C91.5505 50.131 91.6282 50.131 91.6999 50.157C91.7727 50.1848 91.8334 50.2402 91.8706 50.3126L91.2196 51.9495L91.03 51.8683Z" fill="white"/>
<path d="M91.3523 52.0304C91.3776 51.9561 91.2923 51.8514 91.1596 51.8007C91.0268 51.75 90.8973 51.7737 90.872 51.8514C90.8467 51.929 90.9352 52.0304 91.0679 52.081C91.2006 52.1317 91.3239 52.108 91.3523 52.0304Z" fill="#45C2D6"/>
<path opacity="0.1" d="M91.3523 52.0304C91.3776 51.9561 91.2923 51.8514 91.1596 51.8007C91.0268 51.75 90.8973 51.7737 90.872 51.8514C90.8467 51.929 90.9352 52.0304 91.0679 52.081C91.2006 52.1317 91.3239 52.108 91.3523 52.0304Z" fill="white"/>
<path d="M94.2565 51.476L93.4634 49.9136C93.4962 49.8397 93.5506 49.7792 93.6182 49.7411C93.6896 49.7126 93.7681 49.7126 93.8394 49.7411L94.4398 51.4016L94.2565 51.476Z" fill="#45C2D6"/>
<path opacity="0.1" d="M94.2565 51.476L93.4634 49.9136C93.4962 49.8397 93.5506 49.7792 93.6182 49.7411C93.6896 49.7126 93.7681 49.7126 93.8394 49.7411L94.4398 51.4016L94.2565 51.476Z" fill="white"/>
<path d="M94.5945 51.3508C94.5629 51.2765 94.4334 51.2698 94.307 51.3339C94.1806 51.3981 94.1016 51.5062 94.1332 51.5805C94.1648 51.6548 94.2943 51.6649 94.4207 51.6008C94.5471 51.5366 94.6261 51.4251 94.5945 51.3508Z" fill="#45C2D6"/>
<path opacity="0.1" d="M94.5945 51.3508C94.5629 51.2765 94.4334 51.2698 94.307 51.3339C94.1806 51.3981 94.1016 51.5062 94.1332 51.5805C94.1648 51.6548 94.2943 51.6649 94.4207 51.6008C94.5471 51.5366 94.6261 51.4251 94.5945 51.3508Z" fill="white"/>
<path d="M97.8999 46.4098L96.2819 46.819C96.2232 46.7656 96.1822 46.6932 96.165 46.6127C96.1538 46.5314 96.1706 46.4484 96.2124 46.3794L97.8683 46.2001L97.8999 46.4098Z" fill="#45C2D6"/>
<path opacity="0.1" d="M97.8999 46.4098L96.2819 46.819C96.2232 46.7656 96.1822 46.6932 96.165 46.6127C96.1538 46.5314 96.1706 46.4484 96.2124 46.3794L97.8683 46.2001L97.8999 46.4098Z" fill="white"/>
<path d="M97.8779 46.0276C97.802 46.0276 97.7609 46.1731 97.7831 46.3219C97.8052 46.4707 97.8874 46.5823 97.9632 46.5688C98.039 46.5552 98.0801 46.4233 98.0548 46.2745C98.0295 46.1257 97.96 46.0141 97.8779 46.0276Z" fill="#45C2D6"/>
<path opacity="0.1" d="M97.8779 46.0276C97.802 46.0276 97.7609 46.1731 97.7831 46.3219C97.8052 46.4707 97.8874 46.5823 97.9632 46.5688C98.039 46.5552 98.0801 46.4233 98.0548 46.2745C98.0295 46.1257 97.96 46.0141 97.8779 46.0276Z" fill="white"/>
<path d="M94.6957 42.6761L94.0321 44.3096C93.9568 44.3264 93.8785 44.3182 93.8077 44.2859C93.74 44.2461 93.6883 44.1811 93.6624 44.1033L94.5187 42.578L94.6957 42.6761Z" fill="#45C2D6"/>
<path opacity="0.1" d="M94.6957 42.6761L94.0321 44.3096C93.9568 44.3264 93.8785 44.3182 93.8077 44.2859C93.74 44.2461 93.6883 44.1811 93.6624 44.1033L94.5187 42.578L94.6957 42.6761Z" fill="white"/>
<path d="M94.3954 42.4697C94.3606 42.5406 94.4333 42.6554 94.5597 42.7264C94.6861 42.7973 94.8157 42.7905 94.8504 42.7264C94.8852 42.6622 94.8125 42.5372 94.6861 42.4697C94.5597 42.4021 94.4302 42.3954 94.3954 42.4697Z" fill="#45C2D6"/>
<path opacity="0.1" d="M94.3954 42.4697C94.3606 42.5406 94.4333 42.6554 94.5597 42.7264C94.6861 42.7973 94.8157 42.7905 94.8504 42.7264C94.8852 42.6622 94.8125 42.5372 94.6861 42.4697C94.5597 42.4021 94.4302 42.3954 94.3954 42.4697Z" fill="white"/>
<path d="M96.5128 49.5956L94.9992 48.8618C94.9836 48.782 94.9925 48.699 95.0245 48.625C95.0617 48.5526 95.1224 48.4972 95.1951 48.4694L96.6076 49.4063L96.5128 49.5956Z" fill="#45C2D6"/>
<path opacity="0.1" d="M96.5128 49.5956L94.9992 48.8618C94.9836 48.782 94.9925 48.699 95.0245 48.625C95.0617 48.5526 95.1224 48.4972 95.1951 48.4694L96.6076 49.4063L96.5128 49.5956Z" fill="white"/>
<path d="M96.7118 49.2777C96.6454 49.2405 96.538 49.3149 96.4716 49.4502C96.4053 49.5855 96.4053 49.7208 96.4716 49.758C96.538 49.7952 96.6486 49.7208 96.715 49.5889C96.7813 49.457 96.7813 49.3149 96.7118 49.2777Z" fill="#45C2D6"/>
<path opacity="0.1" d="M96.7118 49.2777C96.6454 49.2405 96.538 49.3149 96.4716 49.4502C96.4053 49.5855 96.4053 49.7208 96.4716 49.758C96.538 49.7952 96.6486 49.7208 96.715 49.5889C96.7813 49.457 96.7813 49.3149 96.7118 49.2777Z" fill="white"/>
<path d="M92.6703 51.2325C94.8151 51.2325 96.5539 49.3716 96.5539 47.0761C96.5539 44.7805 94.8151 42.9196 92.6703 42.9196C90.5254 42.9196 88.7866 44.7805 88.7866 47.0761C88.7866 49.3716 90.5254 51.2325 92.6703 51.2325Z" fill="#45C2D6"/>
<path opacity="0.2" d="M92.6703 51.2325C94.8151 51.2325 96.5539 49.3716 96.5539 47.0761C96.5539 44.7805 94.8151 42.9196 92.6703 42.9196C90.5254 42.9196 88.7866 44.7805 88.7866 47.0761C88.7866 49.3716 90.5254 51.2325 92.6703 51.2325Z" fill="white"/>
<path d="M92.7682 41.489L92.8788 43.2645C92.8198 43.3168 92.7467 43.3476 92.6702 43.3525C92.593 43.3514 92.5188 43.3201 92.4617 43.2645L92.5691 41.489H92.7682Z" fill="#45C2D6"/>
<path opacity="0.4" d="M92.7682 41.489L92.8788 43.2645C92.8198 43.3168 92.7467 43.3476 92.6702 43.3525C92.593 43.3514 92.5188 43.3201 92.4617 43.2645L92.5691 41.489H92.7682Z" fill="white"/>
<path d="M92.4141 41.4516C92.4141 41.5326 92.5278 41.5968 92.67 41.5968C92.8122 41.5968 92.926 41.5326 92.926 41.4516C92.926 41.3705 92.8091 41.303 92.67 41.303C92.531 41.303 92.4141 41.3638 92.4141 41.4516Z" fill="#45C2D6"/>
<path opacity="0.2" d="M92.4141 41.4516C92.4141 41.5326 92.5278 41.5968 92.67 41.5968C92.8122 41.5968 92.926 41.5326 92.926 41.4516C92.926 41.3705 92.8091 41.303 92.67 41.303C92.531 41.303 92.4141 41.3638 92.4141 41.4516Z" fill="white"/>
<path d="M89.7218 43.4844L91.0269 44.5869C91.0253 44.6682 90.9987 44.7467 90.9511 44.8101C90.8984 44.8716 90.8264 44.9102 90.7488 44.9183L89.5891 43.6433L89.7218 43.4844Z" fill="#45C2D6"/>
<path opacity="0.4" d="M89.7218 43.4844L91.0269 44.5869C91.0253 44.6682 90.9987 44.7467 90.9511 44.8101C90.8984 44.8716 90.8264 44.9102 90.7488 44.9183L89.5891 43.6433L89.7218 43.4844Z" fill="white"/>
<path d="M89.4596 43.7312C89.5165 43.7854 89.6366 43.7312 89.7314 43.6264C89.8262 43.5216 89.8578 43.3795 89.8009 43.3254C89.744 43.2713 89.6208 43.3254 89.526 43.4302C89.4312 43.5351 89.4027 43.6873 89.4596 43.7312Z" fill="#45C2D6"/>
<path opacity="0.2" d="M89.4596 43.7312C89.5165 43.7854 89.6366 43.7312 89.7314 43.6264C89.8262 43.5216 89.8578 43.3795 89.8009 43.3254C89.744 43.2713 89.6208 43.3254 89.526 43.4302C89.4312 43.5351 89.4027 43.6873 89.4596 43.7312Z" fill="white"/>
<path d="M96.4654 43.251L95.2962 44.5159C95.2213 44.5038 95.1518 44.4672 95.0971 44.411C95.0468 44.348 95.0198 44.2674 95.0213 44.1844L96.3327 43.0921L96.4654 43.251Z" fill="#45C2D6"/>
<path opacity="0.4" d="M96.4654 43.251L95.2962 44.5159C95.2213 44.5038 95.1518 44.4672 95.0971 44.411C95.0468 44.348 95.0198 44.2674 95.0213 44.1844L96.3327 43.0921L96.4654 43.251Z" fill="white"/>
<path d="M96.2567 42.9432C96.1998 42.9974 96.2283 43.1326 96.3231 43.2442C96.4179 43.3558 96.538 43.4066 96.5948 43.3525C96.6517 43.2984 96.6233 43.1597 96.5285 43.0481C96.4337 42.9365 96.3136 42.8891 96.2567 42.9432Z" fill="#45C2D6"/>
<path opacity="0.2" d="M96.2567 42.9432C96.1998 42.9974 96.2283 43.1326 96.3231 43.2442C96.4179 43.3558 96.538 43.4066 96.5948 43.3525C96.6517 43.2984 96.6233 43.1597 96.5285 43.0481C96.4337 42.9365 96.3136 42.8891 96.2567 42.9432Z" fill="white"/>
<path d="M96.7813 45.3479L95.5805 46.0243C95.5182 45.9801 95.4689 45.918 95.4383 45.845C95.4151 45.7692 95.4151 45.6875 95.4383 45.6117L96.6959 45.1517L96.7813 45.3479Z" fill="#45C2D6"/>
<path opacity="0.4" d="M96.7813 45.3479L95.5805 46.0243C95.5182 45.9801 95.4689 45.918 95.4383 45.845C95.4151 45.7692 95.4151 45.6875 95.4383 45.6117L96.6959 45.1517L96.7813 45.3479Z" fill="white"/>
<path d="M96.6296 45.0063C96.5475 45.0435 96.5254 45.1855 96.5791 45.3242C96.6328 45.4629 96.7434 45.5474 96.8256 45.5102C96.9077 45.473 96.9298 45.331 96.873 45.1923C96.8161 45.0536 96.696 44.9691 96.6296 45.0063Z" fill="#45C2D6"/>
<path opacity="0.2" d="M96.6296 45.0063C96.5475 45.0435 96.5254 45.1855 96.5791 45.3242C96.6328 45.4629 96.7434 45.5474 96.8256 45.5102C96.9077 45.473 96.9298 45.331 96.873 45.1923C96.8161 45.0536 96.696 44.9691 96.6296 45.0063Z" fill="white"/>
<path d="M94.1396 44.2893L94.0164 44.9048C94.0164 44.9048 93.8742 45.0096 93.7699 44.9623C93.7318 44.9383 93.6996 44.9049 93.676 44.8649C93.6524 44.8249 93.638 44.7795 93.634 44.7323L93.95 44.2081L94.1396 44.2893Z" fill="#45C2D6"/>
<path opacity="0.5" d="M94.1396 44.2893L94.0164 44.9048C94.0164 44.9048 93.8742 45.0096 93.7699 44.9623C93.7318 44.9383 93.6996 44.9049 93.676 44.8649C93.6524 44.8249 93.638 44.7795 93.634 44.7323L93.95 44.2081L94.1396 44.2893Z" fill="white"/>
<path d="M93.7603 44.2757C93.7409 44.3411 93.7451 44.4118 93.7721 44.4739C93.7991 44.5361 93.8468 44.5852 93.9059 44.6115C93.965 44.6378 94.0312 44.6395 94.0914 44.6161C94.1516 44.5928 94.2015 44.5462 94.2311 44.4854C94.2505 44.4201 94.2462 44.3494 94.2193 44.2872C94.1923 44.2251 94.1446 44.176 94.0855 44.1497C94.0263 44.1234 93.9602 44.1217 93.9 44.145C93.8398 44.1684 93.7899 44.215 93.7603 44.2757Z" fill="#45C2D6"/>
<path opacity="0.3" d="M93.7603 44.2757C93.7409 44.3411 93.7451 44.4118 93.7721 44.4739C93.7991 44.5361 93.8468 44.5852 93.9059 44.6115C93.965 44.6378 94.0312 44.6395 94.0914 44.6161C94.1516 44.5928 94.2015 44.5462 94.2311 44.4854C94.2505 44.4201 94.2462 44.3494 94.2193 44.2872C94.1923 44.2251 94.1446 44.176 94.0855 44.1497C94.0263 44.1234 93.9602 44.1217 93.9 44.145C93.8398 44.1684 93.7899 44.215 93.7603 44.2757Z" fill="white"/>
<path d="M91.956 44.0322L92.2498 44.5767C92.2498 44.5767 92.2088 44.7526 92.1013 44.7932C92.0584 44.803 92.0139 44.8017 91.9716 44.7893C91.9293 44.777 91.8903 44.7539 91.858 44.7222L91.7695 44.1033L91.956 44.0322Z" fill="#45C2D6"/>
<path opacity="0.5" d="M91.956 44.0322L92.2498 44.5767C92.2498 44.5767 92.2088 44.7526 92.1013 44.7932C92.0584 44.803 92.0139 44.8017 91.9716 44.7893C91.9293 44.777 91.8903 44.7539 91.858 44.7222L91.7695 44.1033L91.956 44.0322Z" fill="white"/>
<path d="M91.6779 44.2927C91.7069 44.3515 91.7548 44.3973 91.8127 44.4215C91.8706 44.4458 91.9347 44.4469 91.9933 44.4248C92.052 44.4026 92.1012 44.3586 92.132 44.3009C92.1629 44.2431 92.1733 44.1754 92.1614 44.11C92.1324 44.0512 92.0845 44.0055 92.0266 43.9812C91.9687 43.957 91.9046 43.9558 91.846 43.978C91.7873 44.0001 91.7381 44.0441 91.7072 44.1019C91.6764 44.1596 91.666 44.2274 91.6779 44.2927Z" fill="#45C2D6"/>
<path opacity="0.3" d="M91.6779 44.2927C91.7069 44.3515 91.7548 44.3973 91.8127 44.4215C91.8706 44.4458 91.9347 44.4469 91.9933 44.4248C92.052 44.4026 92.1012 44.3586 92.132 44.3009C92.1629 44.2431 92.1733 44.1754 92.1614 44.11C92.1324 44.0512 92.0845 44.0055 92.0266 43.9812C91.9687 43.957 91.9046 43.9558 91.846 43.978C91.7873 44.0001 91.7381 44.0441 91.7072 44.1019C91.6764 44.1596 91.666 44.2274 91.6779 44.2927Z" fill="white"/>
<path d="M90.2748 45.7334L90.8468 45.8687C90.8468 45.8687 90.9447 46.0243 90.8973 46.1359C90.8499 46.2475 90.6856 46.2813 90.6856 46.2813L90.1958 45.9431L90.2748 45.7334Z" fill="#45C2D6"/>
<path opacity="0.5" d="M90.2748 45.7334L90.8468 45.8687C90.8468 45.8687 90.9447 46.0243 90.8973 46.1359C90.8499 46.2475 90.6856 46.2813 90.6856 46.2813L90.1958 45.9431L90.2748 45.7334Z" fill="white"/>
<path d="M90.2591 46.1392C90.3041 46.1677 90.3562 46.1806 90.4083 46.1765C90.4604 46.1723 90.5101 46.1511 90.5506 46.1158C90.5912 46.0805 90.6206 46.0328 90.6351 45.979C90.6495 45.9253 90.6483 45.8681 90.6314 45.8151C90.6146 45.7621 90.5831 45.716 90.541 45.6828C90.4989 45.6496 90.4484 45.631 90.3961 45.6294C90.3439 45.6279 90.2924 45.6435 90.2487 45.6742C90.205 45.7049 90.1711 45.7491 90.1516 45.801C90.1243 45.8612 90.1202 45.9305 90.1403 45.9938C90.1604 46.0572 90.2031 46.1094 90.2591 46.1392Z" fill="#45C2D6"/>
<path opacity="0.3" d="M90.2591 46.1392C90.3041 46.1677 90.3562 46.1806 90.4083 46.1765C90.4604 46.1723 90.5101 46.1511 90.5506 46.1158C90.5912 46.0805 90.6206 46.0328 90.6351 45.979C90.6495 45.9253 90.6483 45.8681 90.6314 45.8151C90.6146 45.7621 90.5831 45.716 90.541 45.6828C90.4989 45.6496 90.4484 45.631 90.3961 45.6294C90.3439 45.6279 90.2924 45.6435 90.2487 45.6742C90.205 45.7049 90.1711 45.7491 90.1516 45.801C90.1243 45.8612 90.1202 45.9305 90.1403 45.9938C90.1604 46.0572 90.2031 46.1094 90.2591 46.1392Z" fill="white"/>
<path d="M90.73 48.8719L91.046 48.3409C91.046 48.3409 91.2135 48.297 91.2956 48.3815C91.3236 48.4177 91.3431 48.4605 91.3524 48.5064C91.3618 48.5523 91.3607 48.5999 91.3493 48.6453L90.8753 49.0173L90.73 48.8719Z" fill="#45C2D6"/>
<path opacity="0.5" d="M90.73 48.8719L91.046 48.3409C91.046 48.3409 91.2135 48.297 91.2956 48.3815C91.3236 48.4177 91.3431 48.4605 91.3524 48.5064C91.3618 48.5523 91.3607 48.5999 91.3493 48.6453L90.8753 49.0173L90.73 48.8719Z" fill="white"/>
<path d="M91.0806 49.0275C91.1203 48.9903 91.1485 48.9411 91.1613 48.8864C91.1742 48.8316 91.1711 48.774 91.1526 48.7212C91.134 48.6684 91.1009 48.6229 91.0575 48.5908C91.0142 48.5587 90.9627 48.5414 90.91 48.5414C90.8573 48.5414 90.8058 48.5587 90.7625 48.5908C90.7191 48.6229 90.686 48.6684 90.6674 48.7212C90.6489 48.774 90.6458 48.8316 90.6587 48.8864C90.6715 48.9411 90.6997 48.9903 90.7394 49.0275C90.7849 49.0754 90.8462 49.1022 90.91 49.1022C90.9738 49.1022 91.0351 49.0754 91.0806 49.0275Z" fill="#45C2D6"/>
<path opacity="0.3" d="M91.0806 49.0275C91.1203 48.9903 91.1485 48.9411 91.1613 48.8864C91.1742 48.8316 91.1711 48.774 91.1526 48.7212C91.134 48.6684 91.1009 48.6229 91.0575 48.5908C91.0142 48.5587 90.9627 48.5414 90.91 48.5414C90.8573 48.5414 90.8058 48.5587 90.7625 48.5908C90.7191 48.6229 90.686 48.6684 90.6674 48.7212C90.6489 48.774 90.6458 48.8316 90.6587 48.8864C90.6715 48.9411 90.6997 48.9903 90.7394 49.0275C90.7849 49.0754 90.8462 49.1022 90.91 49.1022C90.9738 49.1022 91.0351 49.0754 91.0806 49.0275Z" fill="white"/>
<path d="M93.0304 49.4807L92.7839 48.9091C92.7839 48.9091 92.8408 48.7333 92.9514 48.7062C92.9948 48.7009 93.0388 48.7064 93.0799 48.7222C93.121 48.7381 93.1581 48.7638 93.1884 48.7975L93.2263 49.4266L93.0304 49.4807Z" fill="#45C2D6"/>
<path opacity="0.5" d="M93.0304 49.4807L92.7839 48.9091C92.7839 48.9091 92.8408 48.7333 92.9514 48.7062C92.9948 48.7009 93.0388 48.7064 93.0799 48.7222C93.121 48.7381 93.1581 48.7638 93.1884 48.7975L93.2263 49.4266L93.0304 49.4807Z" fill="white"/>
<path d="M93.3433 49.2608C93.3337 49.227 93.3178 49.1956 93.2964 49.1685C93.2751 49.1415 93.2489 49.1194 93.2193 49.1035C93.1897 49.0877 93.1575 49.0785 93.1244 49.0765C93.0914 49.0744 93.0584 49.0796 93.0273 49.0917C92.9651 49.1057 92.9104 49.1447 92.8745 49.2008C92.8386 49.2569 92.8243 49.3256 92.8346 49.3927C92.8537 49.4598 92.8962 49.5165 92.9532 49.551C93.0102 49.5856 93.0775 49.5954 93.1411 49.5785C93.2046 49.5616 93.2598 49.5192 93.295 49.4601C93.3303 49.401 93.3431 49.3297 93.3307 49.2608H93.3433Z" fill="#45C2D6"/>
<path opacity="0.3" d="M93.3433 49.2608C93.3337 49.227 93.3178 49.1956 93.2964 49.1685C93.2751 49.1415 93.2489 49.1194 93.2193 49.1035C93.1897 49.0877 93.1575 49.0785 93.1244 49.0765C93.0914 49.0744 93.0584 49.0796 93.0273 49.0917C92.9651 49.1057 92.9104 49.1447 92.8745 49.2008C92.8386 49.2569 92.8243 49.3256 92.8346 49.3927C92.8537 49.4598 92.8962 49.5165 92.9532 49.551C93.0102 49.5856 93.0775 49.5954 93.1411 49.5785C93.2046 49.5616 93.2598 49.5192 93.295 49.4601C93.3303 49.401 93.3431 49.3297 93.3307 49.2608H93.3433Z" fill="white"/>
<path d="M94.6356 48.6487L94.0889 48.4119C94.0715 48.3693 94.0625 48.3232 94.0625 48.2767C94.0625 48.2301 94.0715 48.184 94.0889 48.1414C94.1176 48.1057 94.1537 48.0777 94.1943 48.0595C94.2349 48.0413 94.2788 48.0335 94.3227 48.0365L94.7525 48.4694L94.6356 48.6487Z" fill="#45C2D6"/>
<path opacity="0.5" d="M94.6356 48.6487L94.0889 48.4119C94.0715 48.3693 94.0625 48.3232 94.0625 48.2767C94.0625 48.2301 94.0715 48.184 94.0889 48.1414C94.1176 48.1057 94.1537 48.0777 94.1943 48.0595C94.2349 48.0413 94.2788 48.0335 94.3227 48.0365L94.7525 48.4694L94.6356 48.6487Z" fill="white"/>
<path d="M94.7115 48.2496C94.6712 48.2147 94.6221 48.1938 94.5705 48.1894C94.5188 48.1851 94.4672 48.1976 94.4224 48.2253C94.3775 48.253 94.3416 48.2946 94.3193 48.3447C94.2971 48.3947 94.2895 48.4508 94.2976 48.5055C94.3057 48.5602 94.3292 48.611 94.3648 48.6512C94.4005 48.6914 94.4467 48.719 94.4974 48.7305C94.548 48.742 94.6007 48.7368 94.6485 48.7155C94.6964 48.6943 94.737 48.658 94.7652 48.6115C94.7841 48.5841 94.7978 48.5529 94.8053 48.5197C94.8128 48.4866 94.8142 48.4522 94.8092 48.4185C94.8042 48.3848 94.7929 48.3526 94.7762 48.3236C94.7594 48.2946 94.7374 48.2694 94.7115 48.2496Z" fill="#45C2D6"/>
<path opacity="0.3" d="M94.7115 48.2496C94.6712 48.2147 94.6221 48.1938 94.5705 48.1894C94.5188 48.1851 94.4672 48.1976 94.4224 48.2253C94.3775 48.253 94.3416 48.2946 94.3193 48.3447C94.2971 48.3947 94.2895 48.4508 94.2976 48.5055C94.3057 48.5602 94.3292 48.611 94.3648 48.6512C94.4005 48.6914 94.4467 48.719 94.4974 48.7305C94.548 48.742 94.6007 48.7368 94.6485 48.7155C94.6964 48.6943 94.737 48.658 94.7652 48.6115C94.7841 48.5841 94.7978 48.5529 94.8053 48.5197C94.8128 48.4866 94.8142 48.4522 94.8092 48.4185C94.8042 48.3848 94.7929 48.3526 94.7762 48.3236C94.7594 48.2946 94.7374 48.2694 94.7115 48.2496Z" fill="white"/>
<path d="M95.0845 46.8562L94.5125 46.9949C94.5125 46.9949 94.364 46.9002 94.3608 46.7784C94.3645 46.7317 94.3788 46.6866 94.4025 46.6471C94.4261 46.6076 94.4585 46.5749 94.4967 46.5518L95.0782 46.6398L95.0845 46.8562Z" fill="#45C2D6"/>
<path opacity="0.5" d="M95.0845 46.8562L94.5125 46.9949C94.5125 46.9949 94.364 46.9002 94.3608 46.7784C94.3645 46.7317 94.3788 46.6866 94.4025 46.6471C94.4261 46.6076 94.4585 46.5749 94.4967 46.5518L95.0782 46.6398L95.0845 46.8562Z" fill="white"/>
<path d="M94.9358 46.4808C94.8723 46.4885 94.8141 46.5226 94.7739 46.5757C94.7337 46.6289 94.7147 46.6969 94.7209 46.7649C94.7282 46.8111 94.7478 46.854 94.7774 46.8886C94.807 46.9231 94.8452 46.9478 94.8875 46.9597C94.9299 46.9716 94.9745 46.9701 95.0161 46.9555C95.0577 46.9409 95.0945 46.9137 95.122 46.8773C95.1496 46.8409 95.1667 46.7968 95.1714 46.7502C95.1761 46.7036 95.1681 46.6566 95.1485 46.6147C95.1288 46.5729 95.0983 46.538 95.0605 46.5142C95.0228 46.4905 94.9795 46.4789 94.9358 46.4808Z" fill="#45C2D6"/>
<path opacity="0.3" d="M94.9358 46.4808C94.8723 46.4885 94.8141 46.5226 94.7739 46.5757C94.7337 46.6289 94.7147 46.6969 94.7209 46.7649C94.7282 46.8111 94.7478 46.854 94.7774 46.8886C94.807 46.9231 94.8452 46.9478 94.8875 46.9597C94.9299 46.9716 94.9745 46.9701 95.0161 46.9555C95.0577 46.9409 95.0945 46.9137 95.122 46.8773C95.1496 46.8409 95.1667 46.7968 95.1714 46.7502C95.1761 46.7036 95.1681 46.6566 95.1485 46.6147C95.1288 46.5729 95.0983 46.538 95.0605 46.5142C95.0228 46.4905 94.9795 46.4789 94.9358 46.4808Z" fill="white"/>
<path d="M87.848 46.3219L89.5039 46.4605C89.545 46.53 89.5638 46.6119 89.5576 46.6939C89.5453 46.7747 89.506 46.848 89.447 46.9002L87.8196 46.5349L87.848 46.3219Z" fill="#45C2D6"/>
<path opacity="0.4" d="M87.848 46.3219L89.5039 46.4605C89.545 46.53 89.5638 46.6119 89.5576 46.6939C89.5453 46.7747 89.506 46.848 89.447 46.9002L87.8196 46.5349L87.848 46.3219Z" fill="white"/>
<path d="M87.7627 46.6939C87.8354 46.6939 87.9144 46.5924 87.9334 46.4436C87.9523 46.2948 87.9081 46.1629 87.8322 46.1528C87.7564 46.1426 87.6806 46.2508 87.6616 46.403C87.6426 46.5552 87.6869 46.6804 87.7627 46.6939Z" fill="#45C2D6"/>
<path opacity="0.2" d="M87.7627 46.6939C87.8354 46.6939 87.9144 46.5924 87.9334 46.4436C87.9523 46.2948 87.9081 46.1629 87.8322 46.1528C87.7564 46.1426 87.6806 46.2508 87.6616 46.403C87.6426 46.5552 87.6869 46.6804 87.7627 46.6939Z" fill="white"/>
<path d="M88.4485 48.5709L89.9779 47.8776C90.044 47.9179 90.0953 47.9812 90.1233 48.0568C90.1526 48.1338 90.1526 48.22 90.1233 48.297L88.5212 48.7704L88.4485 48.5709Z" fill="#45C2D6"/>
<path opacity="0.4" d="M88.4485 48.5709L89.9779 47.8776C90.044 47.9179 90.0953 47.9812 90.1233 48.0568C90.1526 48.1338 90.1526 48.22 90.1233 48.297L88.5212 48.7704L88.4485 48.5709Z" fill="white"/>
<path d="M88.5307 48.9395C88.6033 48.9159 88.6223 48.7772 88.5781 48.6352C88.5338 48.4931 88.4327 48.3984 88.3632 48.4255C88.2937 48.4525 88.2684 48.5912 88.3158 48.7332C88.3632 48.8753 88.458 48.9666 88.5307 48.9395Z" fill="#45C2D6"/>
<path opacity="0.2" d="M88.5307 48.9395C88.6033 48.9159 88.6223 48.7772 88.5781 48.6352C88.5338 48.4931 88.4327 48.3984 88.3632 48.4255C88.2937 48.4525 88.2684 48.5912 88.3158 48.7332C88.3632 48.8753 88.458 48.9666 88.5307 48.9395Z" fill="white"/>
<path d="M92.8408 52.5414L92.5564 50.7895C92.6086 50.7304 92.6774 50.6912 92.7523 50.6779C92.8289 50.6706 92.9053 50.6935 92.9672 50.7422L93.0367 52.5211L92.8408 52.5414Z" fill="#45C2D6"/>
<path opacity="0.4" d="M92.8408 52.5414L92.5564 50.7895C92.6086 50.7304 92.6774 50.6912 92.7523 50.6779C92.8289 50.6706 92.9053 50.6935 92.9672 50.7422L93.0367 52.5211L92.8408 52.5414Z" fill="white"/>
<path d="M93.1978 52.5412C93.1978 52.4602 93.0682 52.4061 92.9292 52.423C92.7902 52.4399 92.6796 52.5176 92.689 52.5986C92.6985 52.6797 92.8186 52.7337 92.9576 52.7168C93.0967 52.7 93.2199 52.6223 93.1978 52.5412Z" fill="#45C2D6"/>
<path opacity="0.2" d="M93.1978 52.5412C93.1978 52.4602 93.0682 52.4061 92.9292 52.423C92.7902 52.4399 92.6796 52.5176 92.689 52.5986C92.6985 52.6797 92.8186 52.7337 92.9576 52.7168C93.0967 52.7 93.2199 52.6223 93.1978 52.5412Z" fill="white"/>
<path d="M97.4322 48.4187L95.8016 48.0805C95.7685 48.0057 95.7585 47.9216 95.7732 47.8404C95.794 47.7609 95.8412 47.6924 95.9059 47.6476L97.4859 48.209L97.4322 48.4187Z" fill="#45C2D6"/>
<path opacity="0.4" d="M97.4322 48.4187L95.8016 48.0805C95.7685 48.0057 95.7585 47.9216 95.7732 47.8404C95.794 47.7609 95.8412 47.6924 95.9059 47.6476L97.4859 48.209L97.4322 48.4187Z" fill="white"/>
<path d="M97.5587 48.0602C97.4828 48.0399 97.3943 48.1414 97.3596 48.2868C97.3248 48.4322 97.3596 48.5675 97.4291 48.5878C97.4986 48.6081 97.5903 48.5067 97.6282 48.3612C97.6661 48.2158 97.644 48.0805 97.5587 48.0602Z" fill="#45C2D6"/>
<path opacity="0.2" d="M97.5587 48.0602C97.4828 48.0399 97.3943 48.1414 97.3596 48.2868C97.3248 48.4322 97.3596 48.5675 97.4291 48.5878C97.4986 48.6081 97.5903 48.5067 97.6282 48.3612C97.6661 48.2158 97.644 48.0805 97.5587 48.0602Z" fill="white"/>
<path d="M89.6208 51.6046L90.4867 50.086C90.5632 50.0799 90.6396 50.1 90.7047 50.1435C90.7673 50.191 90.8104 50.2625 90.8248 50.3431L89.782 51.7263L89.6208 51.6046Z" fill="#45C2D6"/>
<path opacity="0.4" d="M89.6208 51.6046L90.4867 50.086C90.5632 50.0799 90.6396 50.1 90.7047 50.1435C90.7673 50.191 90.8104 50.2625 90.8248 50.3431L89.782 51.7263L89.6208 51.6046Z" fill="white"/>
<path d="M89.8893 51.8481C89.9336 51.7804 89.8893 51.6587 89.7598 51.5707C89.6302 51.4828 89.5164 51.4659 89.4722 51.5335C89.428 51.6012 89.4722 51.7263 89.6018 51.8109C89.7313 51.8954 89.8451 51.9225 89.8893 51.8481Z" fill="#45C2D6"/>
<path opacity="0.2" d="M89.8893 51.8481C89.9336 51.7804 89.8893 51.6587 89.7598 51.5707C89.6302 51.4828 89.5164 51.4659 89.4722 51.5335C89.428 51.6012 89.4722 51.7263 89.6018 51.8109C89.7313 51.8954 89.8451 51.9225 89.8893 51.8481Z" fill="white"/>
<path d="M96.3548 51.2461L95.0908 50.0894C95.0964 50.0072 95.1263 49.9291 95.1761 49.8662C95.231 49.8077 95.3041 49.7728 95.3815 49.7681L96.4939 51.0939L96.3548 51.2461Z" fill="#45C2D6"/>
<path opacity="0.4" d="M96.3548 51.2461L95.0908 50.0894C95.0964 50.0072 95.1263 49.9291 95.1761 49.8662C95.231 49.8077 95.3041 49.7728 95.3815 49.7681L96.4939 51.0939L96.3548 51.2461Z" fill="white"/>
<path d="M96.6264 50.9992C96.5727 50.9451 96.4494 50.9992 96.3515 51.0939C96.2535 51.1886 96.2156 51.334 96.2725 51.3915C96.3293 51.449 96.4494 51.3915 96.5474 51.3002C96.6453 51.2089 96.6959 51.0567 96.6264 50.9992Z" fill="#45C2D6"/>
<path opacity="0.2" d="M96.6264 50.9992C96.5727 50.9451 96.4494 50.9992 96.3515 51.0939C96.2535 51.1886 96.2156 51.334 96.2725 51.3915C96.3293 51.449 96.4494 51.3915 96.5474 51.3002C96.6453 51.2089 96.6959 51.0567 96.6264 50.9992Z" fill="white"/>
<path opacity="0.2" d="M93.3591 46.0175C93.3591 46.0919 93.3868 46.1633 93.436 46.216C93.4851 46.2686 93.5518 46.2982 93.6214 46.2982C93.6913 46.2982 93.7583 46.2687 93.808 46.2162C93.8577 46.1636 93.886 46.0922 93.8868 46.0175C93.886 45.9424 93.8578 45.8707 93.8082 45.8176C93.7586 45.7645 93.6916 45.7343 93.6214 45.7334C93.5516 45.7343 93.4849 45.7646 93.4358 45.8178C93.3867 45.871 93.3591 45.9427 93.3591 46.0175Z" fill="white"/>
<path opacity="0.2" d="M93.0051 47.651C93.0051 47.7258 93.0326 47.7975 93.0817 47.8507C93.1308 47.9039 93.1976 47.9342 93.2674 47.9351C93.3375 47.9342 93.4046 47.904 93.4542 47.8509C93.5038 47.7978 93.532 47.7261 93.5328 47.651C93.532 47.5762 93.5037 47.5049 93.454 47.4523C93.4043 47.3998 93.3373 47.3703 93.2674 47.3703C93.1978 47.3703 93.1311 47.3999 93.0819 47.4525C93.0328 47.5052 93.0051 47.5766 93.0051 47.651Z" fill="white"/>
<path opacity="0.2" d="M95.0559 48.7704C95.0559 48.8452 95.0834 48.917 95.1325 48.9701C95.1816 49.0233 95.2483 49.0536 95.3182 49.0545C95.3883 49.0536 95.4554 49.0234 95.505 48.9703C95.5546 48.9173 95.5828 48.8455 95.5836 48.7704C95.5828 48.6957 95.5545 48.6243 95.5048 48.5717C95.4551 48.5192 95.388 48.4897 95.3182 48.4897C95.2486 48.4897 95.1819 48.5193 95.1327 48.5719C95.0835 48.6246 95.0559 48.696 95.0559 48.7704Z" fill="white"/>
<path opacity="0.2" d="M94.0543 50.0387C94.1991 50.0387 94.3166 49.913 94.3166 49.758C94.3166 49.603 94.1991 49.4773 94.0543 49.4773C93.9094 49.4773 93.792 49.603 93.792 49.758C93.792 49.913 93.9094 50.0387 94.0543 50.0387Z" fill="white"/>
<path opacity="0.2" d="M91.384 45.7605C91.384 45.816 91.3994 45.8702 91.4282 45.9164C91.4571 45.9626 91.498 45.9985 91.5459 46.0198C91.5939 46.041 91.6466 46.0466 91.6975 46.0358C91.7484 46.0249 91.7951 45.9982 91.8318 45.9589C91.8685 45.9197 91.8934 45.8697 91.9036 45.8152C91.9137 45.7608 91.9085 45.7043 91.8886 45.653C91.8688 45.6017 91.8352 45.5579 91.792 45.5271C91.7489 45.4962 91.6982 45.4798 91.6463 45.4798C91.6119 45.4798 91.5778 45.487 91.5459 45.5011C91.5141 45.5152 91.4852 45.5359 91.4609 45.562C91.4365 45.588 91.4172 45.619 91.404 45.653C91.3908 45.6871 91.384 45.7236 91.384 45.7605Z" fill="white"/>
<path opacity="0.2" d="M90.2463 47.1944C90.2472 47.2695 90.2754 47.3413 90.325 47.3943C90.3746 47.4474 90.4416 47.4776 90.5118 47.4785C90.5816 47.4776 90.6483 47.4473 90.6974 47.3941C90.7465 47.3409 90.7741 47.2692 90.7741 47.1944C90.7741 47.12 90.7464 47.0486 90.6972 46.9959C90.6481 46.9433 90.5813 46.9137 90.5118 46.9137C90.4419 46.9137 90.3749 46.9432 90.3252 46.9957C90.2755 47.0483 90.2472 47.1197 90.2463 47.1944Z" fill="white"/>
<path opacity="0.2" d="M89.8767 49.1932C89.8775 49.2683 89.9058 49.34 89.9554 49.3931C90.005 49.4462 90.072 49.4764 90.1421 49.4773C90.212 49.4764 90.2787 49.4461 90.3278 49.3929C90.3769 49.3397 90.4044 49.268 90.4044 49.1932C90.4044 49.1187 90.3768 49.0473 90.3276 48.9947C90.2784 48.9421 90.2117 48.9125 90.1421 48.9125C90.0723 48.9125 90.0052 48.9419 89.9556 48.9945C89.9059 49.047 89.8775 49.1184 89.8767 49.1932Z" fill="white"/>
<path opacity="0.2" d="M92.408 46.5519C92.408 46.6263 92.4356 46.6977 92.4848 46.7503C92.534 46.803 92.6007 46.8326 92.6702 46.8326C92.7398 46.8326 92.8065 46.803 92.8557 46.7503C92.9049 46.6977 92.9325 46.6263 92.9325 46.5519C92.9325 46.4774 92.9049 46.406 92.8557 46.3534C92.8065 46.3007 92.7398 46.2711 92.6702 46.2711C92.6007 46.2711 92.534 46.3007 92.4848 46.3534C92.4356 46.406 92.408 46.4774 92.408 46.5519Z" fill="white"/>
<path opacity="0.2" d="M91.6052 49.4299C91.6061 49.5047 91.6344 49.5761 91.6841 49.6286C91.7338 49.6812 91.8008 49.7106 91.8707 49.7106C91.9051 49.7106 91.9392 49.7034 91.971 49.6893C92.0029 49.6752 92.0318 49.6545 92.0561 49.6284C92.0805 49.6024 92.0998 49.5714 92.113 49.5374C92.1262 49.5033 92.1329 49.4668 92.1329 49.4299C92.1329 49.3552 92.1054 49.2834 92.0563 49.2302C92.0072 49.1771 91.9405 49.1467 91.8707 49.1458C91.8005 49.1467 91.7335 49.1769 91.6839 49.23C91.6343 49.2831 91.606 49.3549 91.6052 49.4299Z" fill="white"/>
<path opacity="0.2" d="M92.8787 44.0322C92.8787 44.1067 92.9063 44.1781 92.9555 44.2307C93.0047 44.2834 93.0714 44.313 93.1409 44.313C93.2105 44.313 93.2772 44.2834 93.3264 44.2307C93.3756 44.1781 93.4032 44.1067 93.4032 44.0322C93.4032 43.9578 93.3756 43.8864 93.3264 43.8338C93.2772 43.7811 93.2105 43.7515 93.1409 43.7515C93.0714 43.7515 93.0047 43.7811 92.9555 43.8338C92.9063 43.8864 92.8787 43.9578 92.8787 44.0322Z" fill="white"/>
<path opacity="0.2" d="M89.8924 45.6116C90.0373 45.6116 90.1547 45.486 90.1547 45.3309C90.1547 45.1759 90.0373 45.0502 89.8924 45.0502C89.7475 45.0502 89.6301 45.1759 89.6301 45.3309C89.6301 45.486 89.7475 45.6116 89.8924 45.6116Z" fill="white"/>
<path opacity="0.2" d="M94.8221 45.5372C94.967 45.5372 95.0844 45.4116 95.0844 45.2565C95.0844 45.1015 94.967 44.9758 94.8221 44.9758C94.6772 44.9758 94.5598 45.1015 94.5598 45.2565C94.5598 45.4116 94.6772 45.5372 94.8221 45.5372Z" fill="white"/>
<path opacity="0.2" d="M92.5217 45.4728C92.5217 45.4913 92.5252 45.5096 92.5319 45.5266C92.5386 45.5436 92.5484 45.559 92.5608 45.5719C92.5732 45.5848 92.5878 45.595 92.6039 45.6017C92.62 45.6085 92.6372 45.6117 92.6544 45.6113C92.6888 45.6113 92.7218 45.5967 92.7461 45.5707C92.7704 45.5447 92.784 45.5095 92.784 45.4728C92.7844 45.4543 92.7814 45.436 92.7751 45.4188C92.7687 45.4016 92.7593 45.3859 92.7472 45.3727C92.7351 45.3595 92.7207 45.349 92.7048 45.3418C92.6888 45.3346 92.6717 45.3309 92.6544 45.3309C92.6192 45.3309 92.5855 45.3459 92.5606 45.3725C92.5357 45.3991 92.5217 45.4352 92.5217 45.4728Z" fill="white"/>
<path opacity="0.2" d="M91.1597 43.8461C91.1597 43.8837 91.1737 43.9198 91.1985 43.9464C91.2234 43.973 91.2572 43.9879 91.2924 43.9879C91.3276 43.9879 91.3613 43.973 91.3862 43.9464C91.4111 43.9198 91.4251 43.8837 91.4251 43.8461C91.4251 43.8084 91.4111 43.7724 91.3862 43.7458C91.3613 43.7192 91.3276 43.7042 91.2924 43.7042C91.2572 43.7042 91.2234 43.7192 91.1985 43.7458C91.1737 43.7724 91.1597 43.8084 91.1597 43.8461Z" fill="white"/>
<path opacity="0.2" d="M94.1363 43.89C94.1358 43.9085 94.1389 43.9269 94.1452 43.9441C94.1515 43.9612 94.161 43.9769 94.1731 43.9901C94.1852 44.0033 94.1996 44.0138 94.2155 44.021C94.2314 44.0282 94.2485 44.0319 94.2658 44.0319C94.301 44.0319 94.3348 44.0169 94.3597 43.9903C94.3846 43.9637 94.3986 43.9276 94.3986 43.89C94.3986 43.8524 94.3846 43.8163 94.3597 43.7897C94.3348 43.7631 94.301 43.7482 94.2658 43.7482C94.2485 43.7482 94.2314 43.7519 94.2155 43.759C94.1996 43.7662 94.1852 43.7767 94.1731 43.7899C94.161 43.8031 94.1515 43.8188 94.1452 43.836C94.1389 43.8532 94.1358 43.8716 94.1363 43.89Z" fill="white"/>
<path opacity="0.2" d="M95.748 46.7749C95.748 46.8125 95.762 46.8486 95.7869 46.8752C95.8118 46.9018 95.8456 46.9167 95.8808 46.9167C95.8981 46.9167 95.9152 46.913 95.9311 46.9059C95.947 46.8987 95.9614 46.8882 95.9735 46.875C95.9856 46.8618 95.9951 46.8461 96.0014 46.8289C96.0077 46.8117 96.0107 46.7933 96.0103 46.7749C96.0103 46.7381 95.9967 46.7029 95.9724 46.677C95.9481 46.651 95.9151 46.6364 95.8808 46.6364C95.8635 46.6359 95.8463 46.6392 95.8302 46.6459C95.8141 46.6527 95.7995 46.6628 95.7871 46.6757C95.7747 46.6886 95.7649 46.7041 95.7582 46.7211C95.7515 46.7381 95.748 46.7564 95.748 46.7749Z" fill="white"/>
<path opacity="0.2" d="M91.5894 47.1367C91.5894 47.1744 91.6033 47.2104 91.6282 47.237C91.6531 47.2636 91.6869 47.2786 91.7221 47.2786C91.7573 47.2786 91.791 47.2636 91.8159 47.237C91.8408 47.2104 91.8548 47.1744 91.8548 47.1367C91.8548 47.0991 91.8408 47.063 91.8159 47.0364C91.791 47.0098 91.7573 46.9949 91.7221 46.9949C91.6869 46.9949 91.6531 47.0098 91.6282 47.0364C91.6033 47.063 91.5894 47.0991 91.5894 47.1367Z" fill="white"/>
<path opacity="0.2" d="M89.2952 47.617C89.2952 47.6546 89.3091 47.6907 89.334 47.7173C89.3589 47.7439 89.3927 47.7588 89.4279 47.7588C89.4631 47.7588 89.4969 47.7439 89.5217 47.7173C89.5466 47.6907 89.5606 47.6546 89.5606 47.617C89.5606 47.5794 89.5466 47.5433 89.5217 47.5167C89.4969 47.4901 89.4631 47.4751 89.4279 47.4751C89.3927 47.4751 89.3589 47.4901 89.334 47.5167C89.3091 47.5433 89.2952 47.5794 89.2952 47.617Z" fill="white"/>
<path opacity="0.2" d="M91.8169 48.3813C91.8165 48.3998 91.8196 48.4182 91.8259 48.4354C91.8322 48.4525 91.8417 48.4682 91.8537 48.4814C91.8658 48.4946 91.8802 48.5052 91.8962 48.5123C91.9121 48.5195 91.9292 48.5232 91.9465 48.5232C91.9817 48.5232 92.0155 48.5082 92.0403 48.4816C92.0652 48.455 92.0792 48.4189 92.0792 48.3813C92.0792 48.3437 92.0652 48.3076 92.0403 48.281C92.0155 48.2544 91.9817 48.2395 91.9465 48.2395C91.9292 48.2395 91.9121 48.2432 91.8962 48.2503C91.8802 48.2575 91.8658 48.268 91.8537 48.2812C91.8417 48.2944 91.8322 48.3101 91.8259 48.3273C91.8196 48.3445 91.8165 48.3629 91.8169 48.3813Z" fill="white"/>
<path opacity="0.2" d="M90.9795 49.9912C90.9795 50.0288 90.9935 50.0649 91.0184 50.0915C91.0433 50.1181 91.077 50.133 91.1122 50.133C91.1474 50.133 91.1812 50.1181 91.2061 50.0915C91.231 50.0649 91.2449 50.0288 91.2449 49.9912C91.2449 49.9535 91.231 49.9175 91.2061 49.8909C91.1812 49.8642 91.1474 49.8493 91.1122 49.8493C91.077 49.8493 91.0433 49.8642 91.0184 49.8909C90.9935 49.9175 90.9795 49.9535 90.9795 49.9912Z" fill="white"/>
<path opacity="0.2" d="M92.588 49.9911C92.5929 50.0246 92.6088 50.055 92.6328 50.0771C92.6569 50.0991 92.6875 50.1112 92.7191 50.1112C92.7508 50.1112 92.7814 50.0991 92.8055 50.0771C92.8295 50.055 92.8454 50.0246 92.8503 49.9911C92.8532 49.9709 92.852 49.9502 92.8468 49.9305C92.8416 49.9108 92.8324 49.8926 92.82 49.877C92.8075 49.8615 92.792 49.849 92.7746 49.8404C92.7572 49.8319 92.7383 49.8275 92.7191 49.8275C92.7 49.8275 92.6811 49.8319 92.6637 49.8404C92.6463 49.849 92.6308 49.8615 92.6183 49.877C92.6059 49.8926 92.5967 49.9108 92.5915 49.9305C92.5862 49.9502 92.5851 49.9709 92.588 49.9911Z" fill="white"/>
<path d="M92.8596 55.778C90.9657 55.7797 89.1298 55.0787 87.6646 53.7943C86.1994 52.5099 85.1956 50.7215 84.8241 48.7339C84.4526 46.7463 84.7365 44.6823 85.6273 42.8935C86.5181 41.1047 87.9609 39.7018 89.7097 38.9237C91.4585 38.1456 93.4053 38.0405 95.2185 38.6262C97.0316 39.2119 98.599 40.4523 99.6535 42.136C100.708 43.8197 101.185 45.8426 101.002 47.8602C100.819 49.8777 99.9889 51.7651 98.6519 53.2009C97.8937 54.0191 96.9913 54.6682 95.997 55.1105C95.0028 55.5529 93.9364 55.7798 92.8596 55.778ZM92.8596 39.2602C91.1839 39.26 89.5599 39.8816 88.2644 41.0192C86.9689 42.1568 86.082 43.74 85.755 45.499C85.4279 47.258 85.6809 49.0839 86.4708 50.6657C87.2607 52.2474 88.5387 53.487 90.0869 54.1734C91.6351 54.8597 93.3577 54.9502 94.9613 54.4295C96.5649 53.9087 97.9501 52.809 98.881 51.3177C99.8118 49.8263 100.231 48.0357 100.066 46.2509C99.9017 44.4661 99.164 42.7975 97.9788 41.5296C97.3083 40.8075 96.5106 40.2351 95.6318 39.8456C94.7531 39.456 93.8108 39.2571 92.8596 39.2602Z" fill="#45C2D6"/>
<path d="M87.7399 40.8111L87.0696 41.5285L97.9827 53.2083L98.653 52.4909L87.7399 40.8111Z" fill="#45C2D6"/>
<path d="M101.272 101.019H67.4565V126.878H101.272V101.019Z" fill="#2E353A"/>
<path opacity="0.2" d="M101.272 101.019H67.4565V126.878H101.272V101.019Z" fill="white"/>
<path opacity="0.2" d="M87.1686 101.019H67.4565V126.878H87.1686V101.019Z" fill="white"/>
<path d="M102.539 125.214H66.2874L65.3394 127.517H103.487L102.539 125.214Z" fill="#2E353A"/>
<path opacity="0.2" d="M86.7389 125.214H66.2874L65.3394 127.517H86.4229L86.7389 125.214Z" fill="white"/>
<path d="M62.4415 70.652H78.7597L84.1159 83.3278H98.1463C98.9752 83.3278 99.7701 83.6802 100.356 84.3075C100.942 84.9347 101.272 85.7855 101.272 86.6726V98.442C101.272 98.8486 101.198 99.2514 101.052 99.6272C100.907 100.003 100.694 100.345 100.426 100.632C100.157 100.92 99.8384 101.148 99.4874 101.304C99.1364 101.46 98.7601 101.54 98.3802 101.54H72.9959L59.8218 75.3429C59.4669 74.634 59.3744 73.8081 59.5627 73.0296C59.7301 72.3488 60.1033 71.7465 60.624 71.3164C61.1447 70.8863 61.7838 70.6527 62.4415 70.652Z" fill="#45C2D6"/>
<path opacity="0.5" d="M101.272 86.6827V98.4521C101.272 99.2458 100.987 100.009 100.477 100.585C99.9666 101.161 99.2692 101.505 98.5287 101.547H72.9959L59.8218 75.3496C59.5789 74.8646 59.4576 74.3204 59.4696 73.7702C59.4816 73.22 59.6265 72.6826 59.8904 72.2102C60.1542 71.7378 60.5278 71.3466 60.9749 71.0747C61.422 70.8028 61.9273 70.6595 62.4415 70.6588H78.7597L84.1159 83.3345H98.2759C99.0829 83.3695 99.8458 83.7379 100.404 84.3622C100.963 84.9866 101.274 85.8183 101.272 86.6827Z" fill="white"/>
<path opacity="0.2" d="M101.272 86.6828V98.4521C101.272 99.2458 100.987 100.009 100.477 100.585C99.9667 101.161 99.2693 101.505 98.5288 101.547H98.4814C97.7998 101.511 97.1571 101.196 96.6865 100.667C96.2159 100.138 95.9534 99.4361 95.9534 98.7058V86.1586C95.953 85.4666 96.1889 84.7984 96.6166 84.2796C97.0443 83.7608 97.6345 83.4271 98.276 83.3413C99.0819 83.3763 99.8439 83.7437 100.402 84.3666C100.961 84.9895 101.272 85.8195 101.272 86.6828Z" fill="black"/>
<path opacity="0.2" d="M95.9596 94.4614V101.547H72.9959L59.8219 75.3496C59.6088 74.9256 59.4883 74.4553 59.4696 73.9742C59.4509 73.4932 59.5345 73.0138 59.714 72.5723C59.8935 72.1308 60.1642 71.7386 60.5059 71.4253C60.8475 71.112 61.2511 70.8858 61.6863 70.7636C62.132 70.8795 62.5506 71.0925 62.916 71.3892C63.2813 71.686 63.5856 72.0602 63.8098 72.4885L75.3027 94.4715L95.9596 94.4614Z" fill="white"/>
<path d="M104.729 96.1456H72.8854C71.1122 96.1456 69.6748 97.684 69.6748 99.5817C69.6748 101.479 71.1122 103.018 72.8854 103.018H104.729C106.502 103.018 107.939 101.479 107.939 99.5817C107.939 97.684 106.502 96.1456 104.729 96.1456Z" fill="#45C2D6"/>
<path opacity="0.5" d="M107.939 99.5817C107.938 100.493 107.6 101.366 106.998 102.01C106.396 102.655 105.58 103.017 104.729 103.018H72.8885C72.4669 103.018 72.0494 102.929 71.6599 102.756C71.2704 102.584 70.9165 102.33 70.6183 102.011C70.3202 101.692 70.0837 101.314 69.9224 100.897C69.761 100.48 69.678 100.033 69.678 99.5817C69.678 99.1305 69.761 98.6837 69.9224 98.2668C70.0837 97.8499 70.3202 97.4711 70.6183 97.152C70.9165 96.8329 71.2704 96.5798 71.6599 96.4072C72.0494 96.2345 72.4669 96.1456 72.8885 96.1456H104.729C105.58 96.1456 106.397 96.5076 106.999 97.152C107.601 97.7964 107.939 98.6704 107.939 99.5817Z" fill="white"/>
<path opacity="0.2" d="M90.8752 99.5817C90.8744 100.493 90.5358 101.366 89.9339 102.01C89.332 102.655 88.5159 103.017 87.6646 103.018H66.5685C66.1469 103.018 65.7294 102.929 65.3398 102.756C64.9503 102.584 64.5964 102.33 64.2983 102.011C64.0001 101.692 63.7636 101.314 63.6023 100.897C63.441 100.48 63.3579 100.033 63.3579 99.5817C63.3579 99.1305 63.441 98.6837 63.6023 98.2668C63.7636 97.8499 64.0001 97.4711 64.2983 97.152C64.5964 96.8329 64.9503 96.5798 65.3398 96.4072C65.7294 96.2345 66.1469 96.1456 66.5685 96.1456H87.6646C88.5161 96.1456 89.3327 96.5076 89.9348 97.152C90.5369 97.7964 90.8752 98.6704 90.8752 99.5817Z" fill="white"/>
<path d="M123.66 113.154L113.153 99.3044C112.828 98.8754 112.409 98.5392 111.933 98.3256C111.458 98.112 110.94 98.0276 110.426 98.0801H97.0751C96.2671 98.0047 95.4635 98.2692 94.8346 98.8174C94.5133 99.0954 94.2464 99.4387 94.0494 99.8275C93.8523 100.216 93.7289 100.643 93.6864 101.083C93.6438 101.523 93.6828 101.967 93.8013 102.391C93.9197 102.815 94.1152 103.209 94.3764 103.552L104.887 117.418C105.179 117.805 105.549 118.118 105.969 118.332C106.389 118.547 106.848 118.659 107.313 118.66H121.192C121.788 118.666 122.373 118.491 122.879 118.155C123.386 117.818 123.792 117.335 124.051 116.761C124.31 116.186 124.41 115.545 124.341 114.912C124.272 114.278 124.036 113.679 123.66 113.184V113.154Z" fill="#45C2D6"/>
<path opacity="0.2" d="M109.298 117.878C108.978 118.158 108.609 118.368 108.213 118.495C107.817 118.622 107.402 118.664 106.991 118.618C106.58 118.573 106.181 118.441 105.818 118.229C105.454 118.018 105.134 117.732 104.874 117.388L94.367 103.522C94.1052 103.179 93.9091 102.785 93.7902 102.361C93.6713 101.938 93.6319 101.493 93.6742 101.053C93.7165 100.613 93.8397 100.186 94.0367 99.7973C94.2337 99.4084 94.5006 99.065 94.8221 98.7869C95.1422 98.5075 95.5108 98.2984 95.9065 98.1717C96.3023 98.0449 96.7175 98.003 97.1285 98.0482C97.5394 98.0934 97.938 98.225 98.3014 98.4353C98.6647 98.6457 98.9858 98.9306 99.2461 99.274L109.753 113.123C110.017 113.466 110.216 113.862 110.336 114.288C110.456 114.713 110.496 115.16 110.454 115.603C110.412 116.045 110.288 116.474 110.089 116.865C109.891 117.255 109.622 117.6 109.298 117.878Z" fill="white"/>
<path opacity="0.5" d="M123.66 113.154L113.153 99.3044C112.828 98.8754 112.409 98.5392 111.933 98.3256C111.458 98.112 110.94 98.0276 110.426 98.0801H97.0751C96.2671 98.0047 95.4635 98.2692 94.8346 98.8174C94.5133 99.0954 94.2464 99.4387 94.0494 99.8275C93.8523 100.216 93.7289 100.643 93.6864 101.083C93.6438 101.523 93.6828 101.967 93.8013 102.391C93.9197 102.815 94.1152 103.209 94.3764 103.552L104.887 117.418C105.179 117.805 105.549 118.118 105.969 118.332C106.389 118.547 106.848 118.659 107.313 118.66H121.192C121.788 118.666 122.373 118.491 122.879 118.155C123.386 117.818 123.792 117.335 124.051 116.761C124.31 116.186 124.41 115.545 124.341 114.912C124.272 114.278 124.036 113.679 123.66 113.184V113.154Z" fill="white"/>
<path d="M71.2421 72.7928C71.2297 72.7934 71.2174 72.7906 71.2064 72.7847C71.1953 72.7788 71.1858 72.7699 71.1789 72.759C70.2972 71.5043 70.6922 68.6093 71.3653 67.084C71.5403 66.6882 71.6138 66.2497 71.5783 65.8135C71.5427 65.3773 71.3994 64.959 71.1631 64.6016C71.1556 64.5931 71.1498 64.583 71.1461 64.572C71.1424 64.561 71.1409 64.5492 71.1417 64.5376C71.1425 64.5259 71.1455 64.5145 71.1506 64.5042C71.1557 64.4938 71.1628 64.4847 71.1714 64.4774C71.1799 64.4701 71.1898 64.4648 71.2004 64.4618C71.211 64.4589 71.222 64.4583 71.2328 64.4601C71.2436 64.4619 71.254 64.4661 71.2632 64.4724C71.2724 64.4787 71.2803 64.487 71.2863 64.4968C71.541 64.8793 71.6957 65.3276 71.7346 65.7955C71.7735 66.2633 71.6951 66.7338 71.5075 67.1584C70.8534 68.6431 70.4584 71.4536 71.3053 72.6576C71.3115 72.6664 71.316 72.6766 71.3186 72.6873C71.3212 72.6981 71.3217 72.7093 71.3203 72.7203C71.3188 72.7312 71.3153 72.7418 71.31 72.7514C71.3048 72.7609 71.2978 72.7693 71.2895 72.7759C71.276 72.7874 71.2592 72.7934 71.2421 72.7928Z" fill="#263238"/>
<path d="M70.8156 64.6253C70.8156 64.6253 68.4519 60.851 71.1695 57.9357C73.3657 55.5683 77.5242 56.0181 79.6509 60.3876C81.6291 64.4461 79.613 64.9398 82.1789 66.6849C84.7448 68.4301 84.9534 70.2293 83.4429 73.6113C81.9324 76.9933 77.7107 78.637 74.9646 76.9527C72.2186 75.2685 71.0747 69.8505 71.7857 67.4324C72.4967 65.0142 70.8156 64.6253 70.8156 64.6253Z" fill="#263238"/>
<path d="M84.9154 70.7366H84.8901C84.8705 70.7296 84.8543 70.7147 84.8449 70.6952C84.8354 70.6756 84.8335 70.6528 84.8395 70.6317C85.2819 69.1234 83.8662 67.8686 82.6275 66.7627C82.0828 66.3251 81.5894 65.8186 81.1581 65.2543C80.7915 64.6794 80.7252 63.9523 80.6525 63.1068C80.5293 61.7032 80.3902 60.1137 78.8355 58.5445C76.3897 56.0688 73.4351 57.4385 73.4066 57.4521C73.3972 57.457 73.3868 57.4598 73.3763 57.4603C73.3658 57.4608 73.3552 57.4588 73.3454 57.4547C73.3356 57.4506 73.3267 57.4443 73.3193 57.4363C73.3119 57.4282 73.3061 57.4186 73.3024 57.4081C73.2937 57.3879 73.2928 57.3649 73.2999 57.344C73.307 57.3231 73.3215 57.306 73.3403 57.2965C73.3719 57.2965 76.4181 55.8693 78.9461 58.4227C80.5419 60.0359 80.6904 61.7303 80.8105 63.0932C80.8832 63.9117 80.9432 64.6185 81.2908 65.1563C81.7115 65.7104 82.1944 66.2068 82.7286 66.6342C84.0116 67.7739 85.4684 69.0659 84.9944 70.6926C84.9868 70.7076 84.9753 70.7198 84.9612 70.7276C84.9471 70.7355 84.9311 70.7386 84.9154 70.7366Z" fill="#263238"/>
<path d="M94.5535 81.7146L96.4495 82.4282C96.4495 82.4282 98.9396 82.5229 99.2145 82.6379C99.4894 82.7529 99.5305 84.9106 99.5558 85.1439C99.581 85.3773 97.1162 85.5092 96.8413 85.3029C96.5664 85.0966 96.3041 84.2342 96.3041 84.2342L93.7761 83.0606L94.5535 81.7146Z" fill="#EBB376"/>
<path d="M95.9597 82.0494L95.3277 83.8148C95.3277 83.8148 92.1677 83.1384 89.4501 82.4316C87.6679 81.9648 86.0753 81.4846 85.7055 81.1667C85.1936 80.7304 83.9991 78.0079 83.0164 75.6202C82.1916 73.6113 81.5154 71.8324 81.5154 71.8324L82.4033 70.8651C84.391 71.599 87.6268 78.8974 87.6268 78.8974L95.9597 82.0494Z" fill="#45C2D6"/>
<path opacity="0.2" d="M89.4565 82.4315C87.6742 81.9648 86.0816 81.4846 85.7119 81.1667C85.1999 80.7304 84.0055 78.0079 83.0227 75.6202L83.8032 74.2403C83.8032 74.2403 87.3045 78.1229 89.4565 82.4315Z" fill="black"/>
<path d="M122.788 110.786L121.382 111.997L119.577 110.1L117.925 108.358L119.375 106.63L121.183 108.832L122.788 110.786Z" fill="#EBB376"/>
<path d="M121.028 112.349C120.873 112.213 122.485 110.242 122.485 110.242C122.485 110.242 124.614 109.961 125.777 108.946C126.94 107.932 127.136 109.193 126.144 110.58L123.682 114.009C122.981 114.993 122.639 113.739 121.028 112.349Z" fill="#2E353A"/>
<path d="M122.88 110.235H122.864C122.843 110.229 122.826 110.216 122.813 110.198C122.813 110.174 122.469 109.623 122.564 109.247C122.578 109.189 122.603 109.135 122.639 109.088C122.674 109.042 122.719 109.004 122.769 108.977C122.809 108.945 122.857 108.928 122.906 108.928C122.956 108.928 123.004 108.945 123.044 108.977C123.089 109.051 123.118 109.135 123.13 109.222C123.142 109.31 123.137 109.399 123.113 109.484C123.199 109.327 123.322 109.197 123.471 109.109C123.505 109.093 123.542 109.085 123.58 109.085C123.617 109.085 123.654 109.093 123.689 109.109C123.834 109.176 123.866 109.271 123.869 109.342C123.869 109.68 123.076 110.144 122.921 110.232L122.88 110.235ZM123.584 109.244C123.566 109.24 123.546 109.24 123.527 109.244C123.35 109.322 123.158 109.687 123.038 109.954C123.354 109.751 123.72 109.477 123.714 109.325C123.714 109.295 123.685 109.264 123.629 109.241C123.614 109.238 123.599 109.239 123.584 109.244ZM122.924 109.092C122.894 109.095 122.864 109.105 122.839 109.122C122.807 109.138 122.78 109.161 122.758 109.19C122.736 109.218 122.72 109.252 122.712 109.288C122.691 109.524 122.742 109.762 122.858 109.964C122.965 109.579 123.019 109.183 122.943 109.112L122.924 109.092Z" fill="#577AFA"/>
<path opacity="0.2" d="M121.218 108.875L119.609 110.14L117.941 108.378L119.382 106.64L121.218 108.875Z" fill="black"/>
<path d="M87.5066 83.1384L89.3236 86.5001C89.3236 86.5001 105.19 89.6589 107.522 91.1199C109.854 92.581 120.162 107.529 120.162 107.529L118.184 109.149L102.267 95.7296L84.1096 93.8391L87.5066 83.1384Z" fill="#2E353A"/>
<path opacity="0.3" d="M87.5066 83.1384L89.3236 86.5001C89.3236 86.5001 105.19 89.6589 107.522 91.1199C109.854 92.581 120.162 107.529 120.162 107.529L118.184 109.149L102.267 95.7296L84.1096 93.8391L87.5066 83.1384Z" fill="black"/>
<path d="M119.183 111.453L117.846 112.751L115.937 110.972L114.19 109.335L115.542 107.519L117.47 109.603L119.183 111.453Z" fill="#EBB376"/>
<path d="M117.508 112.687C117.378 112.525 119.303 110.905 119.303 110.905C119.303 110.905 121.445 111.047 122.76 110.279C124.074 109.511 124.055 110.79 122.839 111.97L119.833 114.858C118.968 115.673 118.848 114.368 117.508 112.687Z" fill="#2E353A"/>
<path d="M119.697 110.976H119.672L119.65 110.959C119.643 110.954 119.638 110.947 119.634 110.938C119.634 110.915 119.394 110.306 119.552 109.954C119.576 109.9 119.61 109.851 119.652 109.812C119.695 109.773 119.745 109.744 119.799 109.728C119.953 109.68 120.032 109.728 120.07 109.782C120.146 109.883 120.118 110.086 120.051 110.296C120.162 110.158 120.305 110.054 120.465 109.995C120.502 109.986 120.541 109.985 120.578 109.992C120.616 109.999 120.651 110.014 120.683 110.035C120.728 110.059 120.765 110.098 120.789 110.145C120.813 110.192 120.822 110.246 120.816 110.299C120.769 110.637 119.9 110.932 119.726 110.976H119.697ZM120.525 110.137H120.491C120.304 110.181 120.051 110.499 119.887 110.739C120.244 110.604 120.639 110.401 120.661 110.255C120.661 110.225 120.642 110.191 120.592 110.154C120.572 110.141 120.549 110.135 120.525 110.137ZM119.893 109.86C119.869 109.856 119.845 109.856 119.821 109.86C119.787 109.868 119.755 109.886 119.728 109.91C119.701 109.934 119.68 109.964 119.666 109.998C119.61 110.222 119.621 110.458 119.697 110.675C119.868 110.316 119.991 109.937 119.928 109.853C119.921 109.854 119.915 109.856 119.909 109.86H119.893Z" fill="#577AFA"/>
<path opacity="0.2" d="M117.508 109.647L115.972 111.009L114.206 109.356L115.552 107.529L117.508 109.647Z" fill="black"/>
<path d="M116.724 108.047L114.512 110.374C107.02 104.286 100.188 97.84 100.188 97.84C89.3142 99.4363 81.0571 97.6202 80.1186 97.052C75.8968 94.4884 77.9065 85.5261 77.9065 85.5261L86.9947 82.0494C87.7594 83.2094 88.2587 85.8981 88.5084 87.6128C88.6411 88.509 88.7043 89.1381 88.7043 89.1381C99.009 91.4446 102.393 91.3973 104.188 93.6057C105.762 95.5436 116.724 108.047 116.724 108.047Z" fill="#2E353A"/>
<path d="M114.164 110.1L116.566 107.299L117.283 108.76L115.305 110.999L114.164 110.1Z" fill="#45C2D6"/>
<path opacity="0.5" d="M77.9065 85.5227L77.7896 86.676L87.5066 83.1384L86.963 81.9344L77.9065 85.5227Z" fill="black"/>
<path d="M83.0067 83.5544L83.4302 84.6772C83.4533 84.7361 83.4967 84.7833 83.5514 84.8091C83.606 84.8349 83.6678 84.8373 83.7241 84.8159L85.1334 84.2511C85.1619 84.2398 85.188 84.2226 85.2102 84.2005C85.2324 84.1784 85.2504 84.1518 85.263 84.1223C85.2756 84.0928 85.2827 84.0609 85.2837 84.0284C85.2848 83.996 85.2799 83.9636 85.2693 83.9332L84.8616 82.8205C84.8398 82.7613 84.7971 82.7136 84.7427 82.6877C84.6884 82.6618 84.6267 82.6597 84.5709 82.6818L83.1426 83.2297C83.1134 83.241 83.0866 83.2584 83.0639 83.281C83.0411 83.3035 83.0228 83.3308 83.0101 83.3611C82.9975 83.3914 82.9906 83.4242 82.99 83.4574C82.9894 83.4906 82.9951 83.5236 83.0067 83.5544Z" fill="white"/>
<path d="M80.6273 84.4303L80.8738 85.8271L80.5167 85.9387L80.2102 84.5555L80.6273 84.4303Z" fill="#263238"/>
<path d="M85.7117 82.4316L86.2331 83.8148L86.5617 83.7133L86.053 82.2625L85.7117 82.4316Z" fill="#263238"/>
<path opacity="0.3" d="M88.7042 89.1381L86.5618 88.739L88.5083 87.6128C88.641 88.509 88.7042 89.1381 88.7042 89.1381Z" fill="black"/>
<path d="M117.615 109.163L120.052 106.396L120.75 107.868L118.743 110.079L117.615 109.163Z" fill="#45C2D6"/>
<path d="M87.1684 82.3876L77.9065 85.5261C76.2265 83.4969 74.6747 81.3502 73.2613 79.1003C72.529 77.9306 71.8774 76.7053 71.3116 75.4342C70.7143 74.0543 70.3351 72.7286 70.3636 71.6328C70.3636 71.6328 70.9703 71.4096 71.9941 71.1526C74.8233 70.414 77.751 70.208 80.6462 70.5438C81.2421 70.6242 81.8338 70.7371 82.419 70.882L87.1684 82.3876Z" fill="#45C2D6"/>
<path d="M75.3596 69.4075C75.4999 70.161 75.4999 70.9368 75.3596 71.6903L78.567 71.0139C77.9508 70.625 77.6474 68.146 77.4957 67.1314C77.4199 66.6477 77.382 66.1979 77.363 65.8868C77.3441 65.5756 77.3441 65.4539 77.3441 65.4539L76.1875 66.0931L74.2915 67.1347C74.7765 67.8146 75.1387 68.5854 75.3596 69.4075Z" fill="#EBB376"/>
<path opacity="0.2" d="M74.3137 67.1415C74.7902 67.8212 75.1448 68.5895 75.3597 69.4075C76.3055 68.95 77.0667 68.1449 77.5053 67.1381C77.4295 66.6545 77.3916 66.2047 77.3726 65.8936C76.9586 65.9578 76.5668 66.0288 76.1971 66.0999L74.3137 67.1415Z" fill="black"/>
<path d="M75.3027 57.2153C75.3027 57.2153 70.0191 55.3755 68.6445 60.7597C67.2699 66.1438 71.3116 65.7549 71.3116 65.7549L75.3027 57.2153Z" fill="#263238"/>
<path d="M72.996 59.2141C70.5028 59.9784 70.0825 61.6525 70.6355 64.4596C71.3244 67.9667 72.6895 70.1887 75.6125 68.518C79.5909 66.2047 77.1451 57.9357 72.996 59.2141Z" fill="#EBB376"/>
<path d="M72.2154 63.8136C72.1231 64.2748 71.9788 64.7222 71.7856 65.1461C71.8884 65.2341 72.0119 65.2898 72.1424 65.3071C72.2729 65.3244 72.4054 65.3027 72.5251 65.2442L72.2154 63.8136Z" fill="#D58745"/>
<path d="M73.6848 63.1305C73.7385 63.3503 73.8933 63.4991 74.0292 63.4687C74.1651 63.4382 74.2346 63.2218 74.1809 63.0019C74.1272 62.7821 73.9723 62.6333 73.8365 62.6637C73.7006 62.6942 73.6279 62.9072 73.6848 63.1305Z" fill="#263238"/>
<path d="M73.8965 62.6704L73.4004 62.6096C73.4004 62.6096 73.7227 62.9339 73.8965 62.6704Z" fill="#263238"/>
<path d="M71.0998 63.8001C71.1535 64.0199 71.3084 64.1687 71.4442 64.1383C71.5801 64.1079 71.6496 63.888 71.5959 63.6682C71.5422 63.4484 71.3874 63.2996 71.2515 63.33C71.1156 63.3604 71.0556 63.5803 71.0998 63.8001Z" fill="#263238"/>
<path d="M71.3211 63.3265L70.825 63.2624C70.825 63.2624 71.1473 63.6035 71.3211 63.3265Z" fill="#263238"/>
<path d="M74.4052 61.4733C74.3818 61.4729 74.3589 61.4659 74.3388 61.453C74.1753 61.356 73.9933 61.3002 73.8066 61.2896C73.6199 61.2791 73.4334 61.3141 73.2613 61.3921C73.2331 61.4038 73.2018 61.4037 73.1737 61.3918C73.1456 61.3799 73.1227 61.357 73.1096 61.3279C73.0979 61.2978 73.0976 61.264 73.1088 61.2336C73.12 61.2033 73.1418 61.1789 73.1696 61.1655C73.3779 61.0704 73.6039 61.0285 73.8299 61.0431C74.0559 61.0578 74.2756 61.1287 74.4716 61.2501C74.4958 61.2697 74.5122 61.2983 74.5175 61.3303C74.5228 61.3623 74.5165 61.3953 74.5 61.4226C74.489 61.4384 74.4748 61.4513 74.4583 61.4601C74.4418 61.4689 74.4236 61.4734 74.4052 61.4733Z" fill="#263238"/>
<path d="M70.4362 62.3661C70.4097 62.367 70.3838 62.3574 70.3635 62.3391C70.3529 62.3278 70.3445 62.3143 70.3388 62.2995C70.333 62.2847 70.3301 62.2689 70.3301 62.2528C70.3301 62.2368 70.333 62.2209 70.3388 62.2061C70.3445 62.1913 70.3529 62.1779 70.3635 62.1666C70.4838 61.9945 70.639 61.8539 70.8175 61.7555C70.9959 61.657 71.193 61.6033 71.3937 61.5984C71.4239 61.5984 71.4528 61.6112 71.4741 61.6341C71.4955 61.6569 71.5075 61.6879 71.5075 61.7202C71.5075 61.7525 71.4955 61.7834 71.4741 61.8063C71.4528 61.8291 71.4239 61.8419 71.3937 61.8419C71.2287 61.85 71.0675 61.8977 70.922 61.9814C70.7765 62.0651 70.6505 62.1827 70.5531 62.3255C70.5393 62.3436 70.521 62.357 70.5002 62.3642C70.4795 62.3714 70.4573 62.3721 70.4362 62.3661Z" fill="#263238"/>
<path d="M76.9333 62.8768C76.9333 62.8768 75.1795 61.0404 74.892 59.2885C74.892 59.2885 69.3714 58.6391 70.5659 64.0842C70.5659 64.0842 68.8058 59.4644 73.0655 58.0439C77.3252 56.6235 79.1011 63.3435 77.4231 66.0221C77.4358 66.0288 78.0204 64.0233 76.9333 62.8768Z" fill="#263238"/>
<path d="M73.1002 66.4414C73.0772 66.4408 73.0549 66.4332 73.0358 66.4194C73.0168 66.4056 73.0018 66.3863 72.9928 66.3637C72.9825 66.3327 72.9841 66.2987 72.9971 66.2689C73.0101 66.2392 73.0335 66.2161 73.0623 66.2047C73.9218 65.8665 73.9408 65.2172 73.9408 65.1901C73.9408 65.1741 73.9437 65.1583 73.9494 65.1435C73.9551 65.1287 73.9635 65.1153 73.9741 65.104C73.9846 65.0927 73.9972 65.0837 74.011 65.0776C74.0248 65.0715 74.0396 65.0683 74.0545 65.0683C74.0847 65.0683 74.1136 65.0812 74.135 65.104C74.1563 65.1268 74.1683 65.1578 74.1683 65.1901C74.1683 65.2239 74.1683 66.0322 73.1413 66.4347C73.1282 66.4402 73.1142 66.4425 73.1002 66.4414Z" fill="#263238"/>
<path d="M70.825 65.2848C71.2128 64.951 71.6685 64.7193 72.1553 64.6084C73.2072 64.534 74.262 64.5193 75.3153 64.5644L76.6678 67.429C76.6678 67.429 75.5049 69.0185 72.9737 69.076C72.9611 69.076 71.0999 68.1561 70.825 65.2848Z" fill="#45C2D6"/>
<path opacity="0.5" d="M70.825 65.2848C71.2128 64.951 71.6685 64.7193 72.1553 64.6084C73.2072 64.534 74.262 64.5193 75.3153 64.5644L76.6678 67.429C76.6678 67.429 75.5049 69.0185 72.9737 69.076C72.9611 69.076 71.0999 68.1561 70.825 65.2848Z" fill="white"/>
<path d="M76.453 67.5135C76.4322 67.5123 76.4122 67.504 76.3961 67.4898C76.3814 67.4735 76.3732 67.4517 76.3732 67.429C76.3732 67.4063 76.3814 67.3845 76.3961 67.3681C77.2385 66.5334 77.7384 65.376 77.7865 64.1484C77.8164 63.6037 77.6476 63.0678 77.3157 62.6536C77.2793 62.6094 77.2327 62.5762 77.1806 62.5572C77.1285 62.5382 77.0727 62.5342 77.0186 62.5454C76.4277 62.6637 75.6282 64.2972 75.3723 64.9128C75.3633 64.9337 75.347 64.95 75.3269 64.9582C75.3069 64.9664 75.2846 64.9659 75.2648 64.9567C75.2461 64.9472 75.2316 64.9301 75.2245 64.9092C75.2174 64.8884 75.2183 64.8653 75.2269 64.8451C75.2648 64.7504 76.197 62.5352 76.987 62.3763C77.0663 62.3588 77.1484 62.3636 77.2254 62.3903C77.3024 62.417 77.3716 62.4646 77.4263 62.5284C77.7881 62.9752 77.9739 63.5547 77.9445 64.145C77.8966 65.4184 77.3797 66.6197 76.5067 67.4865C76.4919 67.5012 76.4731 67.5107 76.453 67.5135Z" fill="white"/>
<path d="M76.6773 63.5634C76.6187 63.2472 76.6795 62.9191 76.8466 62.6509C77.0136 62.3828 77.2732 62.1964 77.5684 62.1328C78.3647 61.9873 79.1863 63.5735 77.3757 64.5678C77.1039 64.6997 76.8827 64.4731 76.6773 63.5634Z" fill="#EBB376"/>
<path d="M78.9082 73.2731C75.8082 73.5234 72.9832 71.8256 71.9846 71.1424C74.8138 70.4039 77.7415 70.1979 80.6367 70.5337C81.1107 71.6362 81.2592 73.0803 78.9082 73.2731Z" fill="#EBB376"/>
<path opacity="0.2" d="M73.2612 79.0901C72.529 77.9204 71.8773 76.6952 71.3115 75.424C71.6206 75.0306 72.0157 74.7251 72.4618 74.5346C72.4618 74.5346 74.1018 76.9121 73.2612 79.0901Z" fill="black"/>
<path d="M66.0881 84.4303H78.4722C79.0211 84.4303 79.5476 84.6637 79.9357 85.0792C80.3239 85.4946 80.542 86.058 80.542 86.6455V100.512C80.542 101.147 80.3062 101.756 79.8867 102.205C79.4671 102.654 78.898 102.906 78.3047 102.906H66.4104C65.776 102.906 65.1676 102.636 64.7189 102.156C64.2703 101.676 64.0183 101.025 64.0183 100.346V86.6455C64.0183 86.058 64.2364 85.4946 64.6245 85.0792C65.0127 84.6637 65.5392 84.4303 66.0881 84.4303Z" fill="#45C2D6"/>
<path opacity="0.5" d="M80.542 86.6455V100.512C80.5433 101.079 80.3562 101.629 80.0142 102.062C79.6721 102.496 79.1973 102.785 78.6744 102.879C78.5534 102.902 78.4307 102.914 78.3078 102.913H66.4104C65.776 102.913 65.1676 102.643 64.7189 102.163C64.2703 101.683 64.0183 101.032 64.0183 100.353V86.6455C64.0183 86.058 64.2364 85.4946 64.6245 85.0791C65.0127 84.6637 65.5392 84.4303 66.0881 84.4303H78.4753C78.5174 84.427 78.5596 84.427 78.6017 84.4303C79.1282 84.4648 79.6224 84.7135 79.9831 85.1253C80.3438 85.5372 80.5438 86.081 80.542 86.6455Z" fill="white"/>
<path opacity="0.2" d="M80.5419 86.6455V100.512C80.5432 101.079 80.3562 101.629 80.0142 102.062C79.6721 102.496 79.1973 102.785 78.6744 102.879C78.112 102.785 77.5996 102.478 77.2299 102.015C76.8602 101.552 76.6575 100.962 76.6583 100.353V86.6455C76.6397 86.3604 76.6761 86.0742 76.7652 85.8048C76.8544 85.5354 76.9944 85.2885 77.1765 85.0794C77.3586 84.8704 77.579 84.7037 77.8239 84.5897C78.0689 84.4757 78.3331 84.4169 78.6001 84.4169C78.8672 84.4169 79.1314 84.4757 79.3763 84.5897C79.6212 84.7037 79.8416 84.8704 80.0237 85.0794C80.2059 85.2885 80.3459 85.5354 80.435 85.8048C80.5242 86.0742 80.5606 86.3604 80.5419 86.6455Z" fill="black"/>
<path d="M72.3101 83.3379L74.2061 84.0515C74.2061 84.0515 76.6993 84.1462 76.9711 84.2612C77.2428 84.3762 77.2871 86.5339 77.3124 86.7673C77.3376 87.0006 74.8728 87.1359 74.6011 86.9296C74.3293 86.7233 74.0639 85.8575 74.0639 85.8575L71.5359 84.9275L72.3101 83.3379Z" fill="#EBB376"/>
<path d="M70.3542 71.6227C68.5783 72.3329 64.9348 80.4362 64.9348 82.0494C64.9348 83.6626 73.7259 85.4314 73.7259 85.4314L74.5665 84.0786C74.5665 84.0786 68.493 81.603 68.3002 81.0348C68.1075 80.4666 71.9184 75.8603 71.9184 75.8603C71.9184 75.8603 72.3134 74.0746 71.9184 73.29C71.5234 72.5054 70.3542 71.6227 70.3542 71.6227Z" fill="#EBB376"/>
<path d="M70.3542 71.6227C69.6274 71.3082 67.8958 74.0307 67.8958 74.0307L71.6467 76.8749L72.2534 76.3575C72.2534 76.3575 73.4384 72.962 70.3542 71.6227Z" fill="#45C2D6"/>
<path d="M67.4565 74.2403L67.7536 73.2968L71.8963 76.8817L71.6025 77.2639L67.4565 74.2403Z" fill="#45C2D6"/>
<path opacity="0.6" d="M67.4565 74.2403L67.7536 73.2968L71.8963 76.8817L71.6025 77.2639L67.4565 74.2403Z" fill="white"/>
<path d="M55.2684 70.1583L53.2681 71.5618L52.5508 69.5732L54.6111 68.4639L55.2684 70.1583Z" fill="#E4897B"/>
<path d="M44.7043 71.3961C44.7359 71.4739 46.7394 73.919 47.9402 74.1997C49.141 74.4804 53.7198 71.6768 53.7198 71.6768L52.6865 68.9001C52.6865 68.9001 48.9672 70.3375 48.6543 70.5032C48.3415 70.6689 47.2165 69.0456 47.2165 69.0456L44.7043 71.3961Z" fill="#45C2D6"/>
<path opacity="0.1" d="M44.7043 71.3961C44.7359 71.4739 46.7394 73.919 47.9402 74.1997C49.141 74.4804 53.7198 71.6768 53.7198 71.6768L52.6865 68.9001C52.6865 68.9001 48.9672 70.3375 48.6543 70.5032C48.3415 70.6689 47.2165 69.0456 47.2165 69.0456L44.7043 71.3961Z" fill="white"/>
<path d="M54.0168 68.4199L54.9332 70.9564L55.6411 70.4119L56.5069 70.3037C56.9493 70.2496 58.8548 68.8258 58.9528 68.6127C59.0507 68.3996 57.635 65.1529 57.5529 65.2104C57.4707 65.2679 54.7816 66.9927 54.6362 67.0536C54.4908 67.1145 54.4245 68.2339 54.4245 68.2339L54.0168 68.4199Z" fill="#45C2D6"/>
<path opacity="0.8" d="M54.0168 68.4199L54.9332 70.9564L55.6411 70.4119L56.5069 70.3037C56.9493 70.2496 58.8548 68.8258 58.9528 68.6127C59.0507 68.3996 57.635 65.1529 57.5529 65.2104C57.4707 65.2679 54.7816 66.9927 54.6362 67.0536C54.4908 67.1145 54.4245 68.2339 54.4245 68.2339L54.0168 68.4199Z" fill="white"/>
<path d="M56.2136 68.2339L56.5781 68.4962L57.9977 66.237L57.6332 65.9747L56.2136 68.2339Z" fill="#45C2D6"/>
<path opacity="0.3" d="M56.2136 68.2339L56.5781 68.4962L57.9977 66.237L57.6332 65.9747L56.2136 68.2339Z" fill="white"/>
<path d="M55.915 68.2109L56.7092 68.7825L56.8326 68.5863L56.0384 68.0147L55.915 68.2109Z" fill="#45C2D6"/>
<path opacity="0.5" d="M55.915 68.2109L56.7092 68.7825L56.8326 68.5863L56.0384 68.0147L55.915 68.2109Z" fill="white"/>
<path d="M56.4849 66.1235L58.2987 67.429L57.9195 66.5902L57.357 66.1844L56.4849 66.1235Z" fill="#45C2D6"/>
<path d="M56.4356 66.2119L58.2476 67.5161L58.3022 67.4291L56.4903 66.1249L56.4356 66.2119Z" fill="#45C2D6"/>
<path opacity="0.6" d="M56.4356 66.2119L58.2476 67.5161L58.3022 67.4291L56.4903 66.1249L56.4356 66.2119Z" fill="white"/>
<path opacity="0.5" d="M56.4849 66.1235L58.2987 67.429L57.9195 66.5902L57.357 66.1844L56.4849 66.1235Z" fill="white"/>
<path d="M59.708 63.215L59.6006 63.1372L60.8677 61.1249L60.833 61.4225L59.708 63.215Z" fill="#45C2D6"/>
<path d="M59.3639 63.302L59.6575 63.5133L59.9482 63.0507L59.6546 62.8394L59.3639 63.302Z" fill="#45C2D6"/>
<path opacity="0.5" d="M59.3639 63.302L59.6575 63.5133L59.9482 63.0507L59.6546 62.8394L59.3639 63.302Z" fill="white"/>
<path d="M58.0628 66.9054L57.0348 66.1655L59.0363 62.9802C59.0587 62.9445 59.0935 62.9198 59.133 62.9115C59.1725 62.9032 59.2134 62.9121 59.2468 62.9361L60.0335 63.5023C60.0668 63.5263 60.0899 63.5635 60.0977 63.6058C60.1054 63.648 60.0971 63.6919 60.0747 63.7276L58.0821 66.8989L58.0628 66.9054Z" fill="#45C2D6"/>
<path opacity="0.6" d="M58.0628 66.9054L57.0348 66.1655L59.0363 62.9802C59.0587 62.9445 59.0935 62.9198 59.133 62.9115C59.1725 62.9032 59.2134 62.9121 59.2468 62.9361L60.0335 63.5023C60.0668 63.5263 60.0899 63.5635 60.0977 63.6058C60.1054 63.648 60.0971 63.6919 60.0747 63.7276L58.0821 66.8989L58.0628 66.9054Z" fill="white"/>
<path d="M54.4562 51.3644C54.4562 51.3644 53.2365 60.1813 52.832 60.5939C52.4275 61.0065 47.4158 59.4035 47.4158 59.4035L48.1268 50.7861L54.4562 51.3644Z" fill="#45C2D6"/>
<path opacity="0.8" d="M54.4562 51.3644C54.4562 51.3644 53.2365 60.1813 52.832 60.5939C52.4275 61.0065 47.4158 59.4035 47.4158 59.4035L48.1268 50.7861L54.4562 51.3644Z" fill="white"/>
<path d="M52.6107 55.6089C52.5186 56.069 52.3743 56.5154 52.1809 56.938C52.2836 57.0258 52.4069 57.0817 52.5373 57.0996C52.6677 57.1175 52.8002 57.0967 52.9203 57.0395L52.6107 55.6089Z" fill="#CC6633"/>
<path d="M53.1449 53.9449C53.1218 53.9452 53.0995 53.9369 53.0817 53.9213C52.9174 53.8246 52.7347 53.7691 52.5475 53.7592C52.3602 53.7492 52.1733 53.785 52.0009 53.8638C51.9741 53.8709 51.9457 53.8677 51.9208 53.8545C51.896 53.8414 51.8763 53.8193 51.8653 53.7921C51.8543 53.7649 51.8527 53.7344 51.8608 53.706C51.8688 53.6776 51.886 53.6532 51.9093 53.6372C52.1175 53.542 52.3436 53.5001 52.5696 53.5148C52.7956 53.5295 53.0153 53.6003 53.2112 53.7217C53.2359 53.7402 53.2527 53.7683 53.2581 53.8C53.2634 53.8317 53.2568 53.8643 53.2397 53.8908C53.2297 53.908 53.2157 53.922 53.199 53.9315C53.1824 53.941 53.1637 53.9456 53.1449 53.9449Z" fill="#263238"/>
<path d="M52.576 54.8107C52.5128 55.0272 52.576 55.2402 52.7056 55.2876C52.8351 55.3349 53.0026 55.1929 53.069 54.9764C53.1353 54.76 53.069 54.5469 52.9394 54.4996C52.8098 54.4522 52.6424 54.5943 52.576 54.8107Z" fill="#263238"/>
<path d="M51.6028 58.3652C51.1074 59.2184 50.3463 59.8568 49.454 60.1678C49.2631 60.2348 49.0676 60.2857 48.8694 60.32C48.1072 60.4644 47.3219 60.3383 46.6328 59.961C45.9437 59.5837 45.3887 58.9759 45.0521 58.2299C44.1483 56.3056 44.695 54.6349 45.4092 51.7365C45.5657 51.0564 45.8821 50.4305 46.3284 49.9183C46.7747 49.406 47.336 49.0245 47.9589 48.81C48.5819 48.5954 49.2457 48.555 49.8874 48.6925C50.529 48.83 51.1272 49.1409 51.6249 49.5957C53.8874 51.6452 52.9584 56.0046 51.6028 58.3652Z" fill="#E4897B"/>
<path opacity="0.2" d="M49.454 60.1678C49.2631 60.2348 49.0677 60.2857 48.8694 60.32C48.3468 60.4178 47.8104 60.3896 47.2993 60.2375C46.7882 60.0853 46.3152 59.8131 45.9148 59.4407C46.1376 59.1404 46.3957 58.8721 46.6827 58.6425C47.7242 58.8554 48.6864 59.3849 49.454 60.1678Z" fill="black"/>
<path d="M41.0325 61.267C41.4907 63.1981 45.5702 63.4585 45.5702 63.4585C45.5702 63.4585 47.6463 64.1856 47.64 63.3367C46.7205 62.4202 46.5372 61.5511 46.7394 60.7428C46.8797 60.2487 47.1095 59.789 47.4157 59.3899C47.5794 59.1646 47.7545 58.9489 47.9402 58.744L46.1643 53.5391C45.5039 55.6765 42.9759 60.7428 41.0325 61.267Z" fill="#E4897B"/>
<path d="M51.2424 48.1076C51.2424 48.1076 52.0861 47.8911 52.9172 49.5213C53.6187 50.8944 52.3515 51.3577 52.5633 52.883C52.775 54.4083 51.5615 55.406 51.5615 55.406C51.5615 55.406 50.5661 56.5491 49.5771 56.1094C49.5771 56.1094 48.4237 56.894 48.2183 58.0507C48.0129 59.2073 45.9146 57.4115 44.2398 57.9357C44.2398 57.9357 42.9758 56.9211 42.7673 54.114C42.7062 52.8874 42.8628 51.6595 43.2286 50.4953C43.2286 50.4953 43.5446 48.7738 45.4027 47.6138C47.2608 46.4538 50.7305 46.7548 51.2424 48.1076Z" fill="#263238"/>
<path d="M51.7133 55.9065C51.7133 55.9065 50.7337 58.5648 49.7731 59.0687C49.8184 59.4596 49.7905 59.8562 49.6909 60.2355C49.6909 60.2355 52.7087 59.7417 52.9931 56.5153L51.7133 55.9065Z" fill="#45C2D6"/>
<path opacity="0.5" d="M51.7133 55.9065C51.7133 55.9065 50.7337 58.5648 49.7731 59.0687C49.8184 59.4596 49.7905 59.8562 49.6909 60.2355C49.6909 60.2355 52.7087 59.7417 52.9931 56.5153L51.7133 55.9065Z" fill="white"/>
<path d="M49.8741 59.3223C49.8596 59.322 49.8454 59.3175 49.8332 59.3091C49.8209 59.3008 49.811 59.2889 49.8046 59.275C49.7667 59.1938 48.8566 57.2796 49.0462 55.893C49.0648 55.6187 49.1467 55.3537 49.2846 55.1218C49.4225 54.8898 49.612 54.6981 49.8362 54.5638C50.0157 54.4721 50.2133 54.4285 50.4121 54.4367C50.6108 54.445 50.8047 54.5049 50.977 54.6112C51.609 55.0069 51.925 56.265 51.9534 56.3191C51.9589 56.3411 51.9559 56.3645 51.9453 56.3841C51.9346 56.4038 51.9171 56.4181 51.8965 56.4239C51.876 56.4298 51.8541 56.4266 51.8358 56.4152C51.8174 56.4038 51.804 56.385 51.7986 56.3631C51.7986 56.3631 51.4826 55.1185 50.898 54.7566C50.7479 54.6649 50.5795 54.6131 50.4069 54.6054C50.2342 54.5978 50.0624 54.6345 49.9057 54.7126C49.7049 54.8357 49.5358 55.01 49.4134 55.2201C49.2909 55.4302 49.2191 55.6695 49.2042 55.9166C49.0209 57.2356 49.9373 59.1634 49.9468 59.1803C49.9559 59.2006 49.9573 59.2238 49.9508 59.2452C49.9444 59.2666 49.9305 59.2845 49.9121 59.2953C49.9019 59.3078 49.8888 59.3172 49.8741 59.3223Z" fill="white"/>
<path d="M49.258 55.3146C49.228 55.5999 49.2572 55.8888 49.3435 56.1606C49.4298 56.4325 49.5711 56.6806 49.7573 56.8873C50.225 57.3201 50.8285 56.6302 51.0213 55.7441C51.1793 54.9629 51.1351 53.7657 50.5125 53.7149C49.89 53.6642 49.2959 54.4826 49.258 55.3146Z" fill="#E4897B"/>
<path d="M44.4199 124.7L47.1849 124.294L47.5673 117.263L44.8086 117.672L44.4199 124.7Z" fill="#EBB376"/>
<path opacity="0.2" d="M44.8086 117.672L47.5673 117.266L47.3493 121.284L44.5938 121.544L44.8086 117.672Z" fill="black"/>
<path d="M53.859 91.4175C53.0658 100.745 49.1506 120.378 49.1506 120.378L44.063 119.962C44.063 119.962 43.8544 101.743 45.9842 92.422C42.4387 91.9857 30.3833 94.2111 28.026 89.8381C28.0111 89.8141 27.9974 89.7893 27.9849 89.7637C26.7209 87.2611 28.3672 77.8523 28.3672 77.8523L43.8512 78.8433L44.5275 83.365C46.7395 84.2105 48.9041 84.6501 50.6042 85.4212C52.7719 86.4054 54.156 87.907 53.859 91.4175Z" fill="#45C2D6"/>
<path d="M47.4 123.936L44.2779 123.729C44.2261 123.723 44.1742 123.74 44.1334 123.775C44.0926 123.809 44.0662 123.86 44.0599 123.915L43.7439 126.553C43.7369 126.691 43.7805 126.827 43.8655 126.931C43.9505 127.035 44.0701 127.1 44.1989 127.111C45.2891 127.165 45.8137 127.132 47.1851 127.213C48.0289 127.267 49.691 127.456 50.8539 127.338C52.0168 127.219 51.8777 125.985 51.3753 125.931C50.1808 125.785 48.604 124.849 47.8582 124.135C47.7294 124.018 47.5688 123.948 47.4 123.936Z" fill="#263238"/>
<path d="M47.4599 124.301H47.5168C47.5168 124.301 47.58 124.321 47.5895 124.331C47.5989 124.341 47.5895 124.331 47.5895 124.352C47.5976 124.355 47.6066 124.355 47.6147 124.352C47.8509 124.432 48.0947 124.484 48.3415 124.507C48.5243 124.541 48.7122 124.501 48.8692 124.395C48.9181 124.349 48.9536 124.288 48.9715 124.22C48.9893 124.152 48.989 124.081 48.9704 124.013C48.9655 123.969 48.9503 123.926 48.926 123.889C48.9017 123.853 48.8691 123.823 48.8313 123.804C48.5656 123.757 48.2931 123.811 48.0603 123.956C48.2236 123.772 48.3209 123.533 48.3352 123.279C48.3234 123.22 48.294 123.165 48.2514 123.125C48.2088 123.084 48.1551 123.059 48.0982 123.053C48.0434 123.042 47.9871 123.044 47.9328 123.057C47.8785 123.071 47.8273 123.096 47.7822 123.131C47.4915 123.401 47.4441 124.243 47.4441 124.294L47.4599 124.301ZM47.7601 124.128L47.7032 124.162C47.7032 123.881 47.7633 123.408 47.9371 123.249C47.9561 123.23 47.9786 123.216 48.003 123.206C48.0274 123.197 48.0534 123.193 48.0792 123.195H48.1109C48.2025 123.195 48.2246 123.263 48.2278 123.303C48.1679 123.629 48.0022 123.921 47.7601 124.128ZM47.798 124.277C48.1361 124.078 48.6133 123.861 48.7902 123.939C48.809 123.948 48.8251 123.962 48.8368 123.98C48.8485 123.998 48.8554 124.019 48.8566 124.04C48.8676 124.083 48.8678 124.128 48.8573 124.171C48.8467 124.214 48.8258 124.253 48.7966 124.284C48.6639 124.423 48.291 124.416 47.798 124.277Z" fill="#45C2D6"/>
<path d="M28.3672 77.8591C28.3672 77.8591 31.9633 52.2032 50.9549 61.1182L51.7133 67.7739L50.3955 69.4142C50.3955 69.4142 45.4312 73.1716 43.8575 78.85L28.3672 77.8591Z" fill="#45C2D6"/>
<path opacity="0.2" d="M51.7133 67.7739L50.3956 69.4142C49.688 69.976 49.0195 70.592 48.3953 71.2574C46.8153 72.8977 44.7708 75.5492 43.8575 78.85L28.3735 77.8591C28.3735 77.8591 31.9696 52.2032 50.9612 61.1182L51.5932 66.7526L51.7133 67.7739Z" fill="white"/>
<path opacity="0.2" d="M51.7132 67.7739L50.3955 69.4142C49.688 69.976 49.0194 70.592 48.3952 71.2574C48.1866 69.1354 48.3856 66.9901 48.9798 64.9534L51.5995 66.7526L51.7132 67.7739Z" fill="black"/>
<path d="M60.9879 75.742L63.7308 77.1286C63.9616 76.7582 64.2217 76.4097 64.5082 76.0869C65.4789 75.8229 66.4699 75.6531 67.4691 75.5796C67.6713 75.6473 68.1011 78.2582 67.7851 78.6031C67.4691 78.9481 64.8653 79.2795 64.8653 79.2795L64.1827 79.0326L60.5171 77.9436L60.9879 75.742Z" fill="#E4897B"/>
<path d="M50.9548 61.1182C52.8097 61.8757 54.3518 70.3409 54.8922 71.1018C55.4326 71.8628 62.5678 76.1985 62.5678 76.1985L61.9358 78.8027C61.9358 78.8027 53.8936 75.7927 52.8097 74.8119C51.7259 73.8311 49.1442 67.6251 49.1442 67.6251C48.8777 66.2156 48.8777 64.7632 49.1442 63.3537C49.6118 61.2061 50.9548 61.1182 50.9548 61.1182Z" fill="#45C2D6"/>
<path opacity="0.2" d="M50.9548 61.1182C52.8097 61.8757 54.3518 70.3409 54.8922 71.1018C55.4326 71.8628 62.5678 76.1985 62.5678 76.1985L61.9358 78.8027C61.9358 78.8027 53.8936 75.7927 52.8097 74.8119C51.7259 73.8311 49.1442 67.6251 49.1442 67.6251C48.8777 66.2156 48.8777 64.7632 49.1442 63.3537C49.6118 61.2061 50.9548 61.1182 50.9548 61.1182Z" fill="white"/>
<path d="M43.1023 50.0556L54.6016 51.5505L54.4562 52.7511L42.8843 51.1886L43.1023 50.0556Z" fill="#45C2D6"/>
<path d="M63.3643 76.8073V79.5298L64.2048 79.293L65.0517 79.5298C65.4815 79.6482 67.7377 79.0563 67.8957 78.9109C68.0537 78.7655 67.8325 75.1907 67.7377 75.1907C67.6429 75.1907 64.5493 75.7825 64.3944 75.7825C64.2396 75.7825 63.8003 76.7971 63.8003 76.7971L63.3643 76.8073Z" fill="white"/>
<path opacity="0.2" d="M53.8589 91.4175C53.0657 100.745 49.1505 120.378 49.1505 120.378L44.0629 119.962C44.0629 119.962 43.8543 101.743 45.9842 92.422C42.4386 91.9857 30.3832 94.2111 28.0259 89.8381C29.6059 90.5382 32.3677 90.9677 36.599 89.0806L50.6104 85.4212C52.7718 86.4054 54.1559 87.907 53.8589 91.4175Z" fill="black"/>
<path d="M51.8113 123.854L54.5984 123.902L55.9793 117.016L53.1922 116.972L51.8113 123.854Z" fill="#EBB376"/>
<path d="M54.984 124.01C54.984 124.01 54.984 124.027 54.984 124.034H55.0061C55.2285 124.149 55.4615 124.24 55.7013 124.304C55.878 124.368 56.0704 124.359 56.2417 124.28C56.2969 124.242 56.3409 124.188 56.3689 124.124C56.3968 124.06 56.4074 123.989 56.3997 123.919C56.4013 123.874 56.3923 123.83 56.3735 123.79C56.3547 123.751 56.3267 123.717 56.2922 123.692C56.0379 123.599 55.7607 123.607 55.5117 123.716C55.7034 123.56 55.8377 123.338 55.8909 123.087C55.8925 123.028 55.8751 122.97 55.8418 122.923C55.8084 122.877 55.761 122.844 55.7076 122.83C55.6624 122.811 55.6139 122.804 55.5656 122.808C55.5174 122.813 55.4709 122.83 55.4295 122.857C55.1135 123.076 55.0156 123.915 55.0093 123.963H55.0567H55.0093H54.9619C54.9602 123.972 54.9615 123.982 54.9655 123.99C54.9695 123.999 54.976 124.006 54.984 124.01ZM55.1799 123.834L55.1199 123.858C55.1704 123.58 55.2873 123.124 55.4833 122.995C55.5043 122.979 55.5286 122.967 55.5543 122.962C55.58 122.957 55.6065 122.958 55.6318 122.965H55.6602C55.7487 122.995 55.7645 123.049 55.7613 123.09C55.7582 123.303 55.4548 123.655 55.1894 123.834H55.1799ZM55.1989 123.986C55.5591 123.844 56.0615 123.706 56.2259 123.824C56.2429 123.836 56.2565 123.853 56.2654 123.872C56.2743 123.892 56.2781 123.914 56.2764 123.936C56.2813 123.979 56.2751 124.024 56.2584 124.064C56.2417 124.105 56.2152 124.14 56.1816 124.166C56.0363 124.27 55.676 124.203 55.2083 123.986H55.1989Z" fill="#45C2D6"/>
<path opacity="0.2" d="M53.1922 116.972L55.9762 117.019L55.1893 120.956L52.4275 120.763L53.1922 116.972Z" fill="black"/>
<path d="M57.1011 120.361L52.1399 119.12C52.1399 119.12 54.118 101.307 56.7535 95.0092C56.526 94.945 56.2289 94.8638 55.8592 94.7691C55.1924 94.6 54.3076 94.3903 53.2712 94.1468C46.0506 92.4727 31.4387 89.412 31.4387 89.412L37.6671 82.4383C37.6671 82.4383 64.1036 85.1135 65.0422 92.4727C65.4782 95.9968 57.1011 120.361 57.1011 120.361Z" fill="#45C2D6"/>
<path d="M54.8576 123.584L51.8018 122.87C51.7511 122.856 51.6971 122.863 51.6516 122.891C51.606 122.919 51.5726 122.965 51.5585 123.019L50.876 125.576C50.8485 125.711 50.8719 125.853 50.9411 125.97C51.0102 126.087 51.1197 126.17 51.2457 126.201C52.3169 126.431 52.8257 126.486 54.1845 126.79C55.0124 126.979 56.6272 127.439 57.7932 127.51C58.9592 127.581 58.994 126.344 58.5074 126.205C57.3508 125.867 55.9225 124.683 55.2873 123.858C55.1757 123.719 55.0248 123.623 54.8576 123.584Z" fill="#263238"/>
<path d="M26.1965 91.3364H47.3432C47.7622 91.3364 48.1641 91.5145 48.4604 91.8317C48.7567 92.1488 48.9232 92.5789 48.9232 93.0274V95.2899H24.6165V93.0274C24.6165 92.5789 24.7829 92.1488 25.0792 91.8317C25.3755 91.5145 25.7774 91.3364 26.1965 91.3364Z" fill="#45C2D6"/>
<path opacity="0.3" d="M26.1965 91.3364H47.3432C47.7622 91.3364 48.1641 91.5145 48.4604 91.8317C48.7567 92.1488 48.9232 92.5789 48.9232 93.0274V95.2899H24.6165V93.0274C24.6165 92.5789 24.7829 92.1488 25.0792 91.8317C25.3755 91.5145 25.7774 91.3364 26.1965 91.3364Z" fill="black"/>
<path d="M22.12 76.1917H30.81C33.3545 76.1917 35.4172 73.9841 35.4172 71.2608V67.6217C35.4172 64.8984 33.3545 62.6908 30.81 62.6908H22.12C19.5754 62.6908 17.5127 64.8984 17.5127 67.6217V71.2608C17.5127 73.9841 19.5754 76.1917 22.12 76.1917Z" fill="#45C2D6"/>
<g opacity="0.3">
<path opacity="0.3" d="M22.12 76.1918H30.81C33.3545 76.1918 35.4172 73.9841 35.4172 71.2608V67.6218C35.4172 64.8985 33.3545 62.6908 30.81 62.6908H22.12C19.5754 62.6908 17.5127 64.8985 17.5127 67.6218V71.2608C17.5127 73.9841 19.5754 76.1918 22.12 76.1918Z" fill="black"/>
</g>
<path d="M25.5423 119.826L34.6494 118.869V103.143H38.2582V118.863L47.4 119.826C47.8387 119.873 48.2456 120.092 48.5417 120.441C48.8378 120.79 49.0019 121.245 49.0022 121.717V123.178H23.9434V121.717C23.9435 121.246 24.1072 120.791 24.4027 120.442C24.6981 120.093 25.1043 119.873 25.5423 119.826Z" fill="#263238"/>
<path opacity="0.2" d="M25.5423 119.826L34.6494 118.869V103.143H38.2582V118.863L47.4 119.826C47.8387 119.873 48.2456 120.092 48.5417 120.441C48.8378 120.79 49.0019 121.245 49.0022 121.717V123.178H23.9434V121.717C23.9435 121.246 24.1072 120.791 24.4027 120.442C24.6981 120.093 25.1043 119.873 25.5423 119.826Z" fill="white"/>
<path d="M48.0351 127.517C49.3388 127.517 50.3956 126.386 50.3956 124.991C50.3956 123.595 49.3388 122.464 48.0351 122.464C46.7314 122.464 45.6746 123.595 45.6746 124.991C45.6746 126.386 46.7314 127.517 48.0351 127.517Z" fill="#263238"/>
<path d="M24.9072 127.517C26.2108 127.517 27.2677 126.386 27.2677 124.991C27.2677 123.595 26.2108 122.464 24.9072 122.464C23.6035 122.464 22.5466 123.595 22.5466 124.991C22.5466 126.386 23.6035 127.517 24.9072 127.517Z" fill="#263238"/>
<path d="M37.5724 106.085H35.3319C34.9858 106.085 34.6538 105.938 34.4091 105.676C34.1643 105.414 34.0268 105.059 34.0268 104.689V93.8898H38.8774V104.689C38.8774 105.059 38.7399 105.414 38.4952 105.676C38.2504 105.938 37.9185 106.085 37.5724 106.085Z" fill="#263238"/>
<path opacity="0.3" d="M37.5724 106.085H35.3319C34.9858 106.085 34.6538 105.938 34.4091 105.676C34.1643 105.414 34.0268 105.059 34.0268 104.689V93.8898H38.8774V104.689C38.8774 105.059 38.7399 105.414 38.4952 105.676C38.2504 105.938 37.9185 106.085 37.5724 106.085Z" fill="white"/>
<path d="M27.827 72.4783C27.827 72.4783 27.1381 90.7411 31.8876 93.8864H26.465C26.465 93.8864 22.2622 87.6635 23.4504 72.4783H27.827Z" fill="#263238"/>
<path opacity="0.3" d="M27.827 72.4783C27.827 72.4783 27.1381 90.7411 31.8876 93.8864H26.465C26.465 93.8864 22.2622 87.6635 23.4504 72.4783H27.827Z" fill="white"/>
<path d="M49.3023 93.3115H24.2404C23.8896 93.3115 23.6052 93.6158 23.6052 93.9912V94.6068C23.6052 94.9822 23.8896 95.2866 24.2404 95.2866H49.3023C49.6531 95.2866 49.9375 94.9822 49.9375 94.6068V93.9912C49.9375 93.6158 49.6531 93.3115 49.3023 93.3115Z" fill="#263238"/>
<path opacity="0.6" d="M49.3023 93.3115H24.2404C23.8896 93.3115 23.6052 93.6158 23.6052 93.9912V94.6068C23.6052 94.9822 23.8896 95.2866 24.2404 95.2866H49.3023C49.6531 95.2866 49.9375 94.9822 49.9375 94.6068V93.9912C49.9375 93.6158 49.6531 93.3115 49.3023 93.3115Z" fill="white"/>
<path d="M27.8963 66.7932H22.9888C21.5508 66.7932 20.385 68.0408 20.385 69.5799V71.6328C20.385 73.1719 21.5508 74.4196 22.9888 74.4196H27.8963C29.3344 74.4196 30.5002 73.1719 30.5002 71.6328V69.5799C30.5002 68.0408 29.3344 66.7932 27.8963 66.7932Z" fill="#263238"/>
<path opacity="0.2" d="M27.8963 66.7932H22.9888C21.5508 66.7932 20.385 68.0408 20.385 69.5799V71.6328C20.385 73.1719 21.5508 74.4196 22.9888 74.4196H27.8963C29.3344 74.4196 30.5002 73.1719 30.5002 71.6328V69.5799C30.5002 68.0408 29.3344 66.7932 27.8963 66.7932Z" fill="white"/>
</svg>
